<?xml version="1.0" encoding="utf-8"?>
<!-- Generator: Adobe Illustrator 26.0.2, SVG Export Plug-In . SVG Version: 6.00 Build 0)  -->
<svg version="1.1" id="Layer_1" xmlns="http://www.w3.org/2000/svg" xmlns:xlink="http://www.w3.org/1999/xlink" x="0px" y="0px"
	 viewBox="0 0 425.2 331.65" style="enable-background:new 0 0 425.2 331.65;" xml:space="preserve">
<style type="text/css">
	.st0{fill:none;stroke:#000000;stroke-miterlimit:10;}
</style>
<g>
	<circle cx="240.02" cy="52.99" r="17.01"/>
	<circle cx="111.99" cy="52.99" r="17.01"/>
	<circle cx="176.01" cy="52.99" r="17.01"/>
	<circle cx="224.58" cy="275.37" r="17.01"/>
	<circle cx="47.97" cy="52.99" r="17.01"/>
	<circle cx="47.97" cy="179.85" r="22.32"/>
	<circle cx="93.38" cy="275.77" r="22.32"/>
	<circle cx="138.78" cy="179.85" r="22.32"/>
	<ellipse cx="330.58" cy="35.61" rx="8.29" ry="8.18"/>
	<circle cx="381.48" cy="35.72" r="8.29"/>
	<circle cx="381.48" cy="79.88" r="8.29"/>
	<ellipse cx="330.58" cy="79.23" rx="8.29" ry="8.18"/>
	<circle cx="320.81" cy="294.73" r="9.5"/>
	<circle cx="390.05" cy="253.45" r="9.5"/>
	<circle cx="356.03" cy="253.45" r="9.5"/>
	<circle cx="320.81" cy="253.45" r="9.5"/>
	<circle cx="356.03" cy="294.73" r="9.5"/>
	<circle cx="390.05" cy="294.73" r="9.5"/>
	<circle cx="93.38" cy="219.01" r="9.5"/>
	<circle cx="223.51" cy="179.85" r="37.77"/>
</g>
</svg>
