<?xml version="1.0" encoding="utf-8"?>
<!-- Generator: Adobe Illustrator 26.5.0, SVG Export Plug-In . SVG Version: 6.00 Build 0)  -->
<svg version="1.1" id="Layer_1" xmlns="http://www.w3.org/2000/svg" xmlns:xlink="http://www.w3.org/1999/xlink" x="0px" y="0px"
	 viewBox="0 0 430.9 340.2" style="enable-background:new 0 0 430.9 340.2;" xml:space="preserve">
<style type="text/css">
	.st0{fill:none;stroke:#000000;stroke-miterlimit:10;}
	.st1{fill:#FFFFFF;stroke:#000000;stroke-width:0.8035;stroke-linecap:round;stroke-linejoin:round;stroke-miterlimit:113.3858;}
	.st2{display:none;}
	.st3{display:inline;fill:#231F20;}
	.st4{font-family:'FuturaPT-Bold';}
	.st5{font-size:10px;}
	.st6{font-size:8px;}
	.st7{display:inline;}
	.st8{display:inline;enable-background:new    ;}
	.st9{fill:#231F20;}
	.st10{enable-background:new    ;}
</style>
<g id="Layer_1_00000137107429555868438230000003071284827773054367_">
	<path class="st0" d="M430.8,335.5l0.1-1V5.7l-0.1-1l-0.3-1l-0.4-0.9L429.5,2l-0.7-0.7L428,0.8l-0.9-0.4l-1-0.3l-1-0.1H5.7l-1,0.1
		l-1,0.3L2.8,0.8L2,1.3L1.3,2L0.8,2.8L0.3,3.7L0,4.7v1v328.8l0.1,1l0.3,1l0.4,0.9l0.6,0.8l0.7,0.7l0.8,0.6l0.9,0.4l1,0.3l1,0.1
		h419.5l1-0.1l1-0.3l0.9-0.4l0.8-0.6l0.7-0.7l0.6-0.8l0.4-0.9L430.8,335.5z"/>
	<path class="st1" d="M208.6,285c0-4.6-3.7-8.3-8.3-8.3s-8.3,3.7-8.3,8.3l0,0c0,4.6,3.7,8.3,8.3,8.3S208.6,289.6,208.6,285z"/>
	<path class="st1" d="M400.4,184.3c0-12.5-10.1-22.7-22.7-22.7c-12.5,0-22.7,10.1-22.7,22.7l0,0c0,12.5,10.1,22.7,22.7,22.7
		C390.2,207,400.4,196.9,400.4,184.3C400.4,184.4,400.4,184.4,400.4,184.3z"/>
	<path class="st1" d="M125.5,94.3c0-5.3-4.3-9.6-9.6-9.6c-5.3,0-9.6,4.3-9.6,9.6c0,5.3,4.3,9.6,9.6,9.6S125.5,99.6,125.5,94.3z"/>
	<path class="st1" d="M201.7,72.2c0-9.5-7.7-17.2-17.2-17.2s-17.2,7.7-17.2,17.2s7.7,17.2,17.2,17.2S201.7,81.7,201.7,72.2z"/>
	<path class="st1" d="M395.8,72.2c0-9.5-7.7-17.2-17.2-17.2s-17.2,7.7-17.2,17.2s7.7,17.2,17.2,17.2
		C388.1,89.4,395.8,81.7,395.8,72.2z"/>
	<path class="st1" d="M125.5,50.2c0-5.3-4.3-9.6-9.6-9.6c-5.3,0-9.6,4.3-9.6,9.6l0,0c0,5.3,4.3,9.6,9.6,9.6
		C121.2,59.8,125.5,55.5,125.5,50.2z"/>
	<path class="st1" d="M238.5,184.3c0-21.1-17.1-38.2-38.2-38.2s-38.2,17.1-38.2,38.2s17.1,38.2,38.2,38.2S238.5,205.4,238.5,184.3
		C238.5,184.4,238.5,184.3,238.5,184.3z"/>
	<path class="st1" d="M340.2,224.4c0-4.6-3.7-8.3-8.3-8.3s-8.3,3.7-8.3,8.3l0,0c0,4.6,3.7,8.3,8.3,8.3S340.2,229,340.2,224.4
		L340.2,224.4z"/>
	<path class="st1" d="M139.9,288.3c0-4.6-3.7-8.3-8.3-8.3s-8.3,3.7-8.3,8.3s3.7,8.3,8.3,8.3C136.1,296.6,139.9,292.9,139.9,288.3
		L139.9,288.3z"/>
	<path class="st1" d="M211.7,240.9c0-6.3-5.1-11.3-11.3-11.3c-6.3,0-11.3,5.1-11.3,11.3l0,0c0,6.3,5.1,11.3,11.3,11.3
		C206.6,252.2,211.7,247.1,211.7,240.9L211.7,240.9z"/>
	<path class="st1" d="M343.2,184.3c0-6.3-5.1-11.3-11.3-11.3c-6.3,0-11.3,5.1-11.3,11.3l0,0c0,6.3,5.1,11.3,11.3,11.3
		C338.1,195.7,343.2,190.6,343.2,184.3C343.2,184.4,343.2,184.3,343.2,184.3z"/>
	<path class="st1" d="M74.1,94.9c0-5.3-4.3-9.6-9.6-9.6s-9.6,4.3-9.6,9.6c0,5.3,4.3,9.6,9.6,9.6S74.1,100.2,74.1,94.9z"/>
	<path class="st1" d="M266.4,72.2c0-9.5-7.7-17.2-17.2-17.2c-9.5,0-17.2,7.7-17.2,17.2l0,0c0,9.5,7.7,17.2,17.2,17.2
		C258.7,89.4,266.4,81.7,266.4,72.2L266.4,72.2z"/>
	<path class="st1" d="M331.1,72.2c0-9.5-7.7-17.2-17.2-17.2s-17.2,7.7-17.2,17.2l0,0c0,9.5,7.7,17.2,17.2,17.2
		C323.4,89.4,331.1,81.7,331.1,72.2L331.1,72.2z"/>
	<path class="st1" d="M74.1,50.3c0-5.3-4.3-9.6-9.6-9.6s-9.6,4.3-9.6,9.6s4.3,9.6,9.6,9.6S74.1,55.6,74.1,50.3z"/>
	<path class="st1" d="M308.6,184.3c0-12.5-10.1-22.7-22.7-22.7c-12.5,0-22.7,10.1-22.7,22.7l0,0c0,12.5,10.1,22.7,22.7,22.7
		S308.6,196.9,308.6,184.3L308.6,184.3z"/>
	<path class="st1" d="M354.5,281.3c0-12.5-10.1-22.7-22.7-22.7s-22.7,10.1-22.7,22.7l0,0c0,12.5,10.1,22.7,22.7,22.7
		S354.5,293.8,354.5,281.3L354.5,281.3z"/>
	<path class="st1" d="M139.9,246.6c0-4.6-3.7-8.3-8.3-8.3s-8.3,3.7-8.3,8.3l0,0c0,4.6,3.7,8.3,8.3,8.3S139.9,251.2,139.9,246.6z"/>
	<path class="st1" d="M18.6,13.4l0.1,0.8L18.6,15l-0.2,0.8l-0.3,0.7l-0.5,0.6L17,17.7l-0.6,0.5l-0.7,0.3L15,18.6l-0.8,0.1l-0.8-0.1
		l-0.8-0.2l-0.7-0.3l-0.6-0.5L10.7,17l-0.5-0.6l-0.3-0.7L9.7,15l-0.1-0.8l0.1-0.8l0.2-0.8l0.3-0.7l0.5-0.6l0.6-0.6l0.6-0.5l0.7-0.3
		l0.8-0.2l0.8-0.1L15,9.7l0.8,0.2l0.7,0.3l0.6,0.5l0.6,0.6l0.5,0.6l0.3,0.7L18.6,13.4z"/>
	<path class="st1" d="M18.6,325.2l0.1,0.8l-0.1,0.8l-0.2,0.8l-0.3,0.7l-0.5,0.6l-0.6,0.6l-0.6,0.5l-0.7,0.3l-0.8,0.2l-0.8,0.1
		l-0.8-0.1l-0.8-0.2l-0.7-0.3l-0.6-0.5l-0.6-0.6l-0.5-0.6l-0.3-0.7l-0.2-0.8V326l0.1-0.8l0.2-0.8l0.3-0.7l0.5-0.6l0.6-0.6l0.6-0.5
		l0.7-0.3l0.8-0.2l0.8-0.1l0.8,0.1l0.8,0.2l0.7,0.3l0.6,0.5l0.6,0.6l0.5,0.6l0.3,0.7L18.6,325.2z"/>
	<path class="st1" d="M421.2,13.4l0.1,0.8l-0.1,0.8l-0.2,0.8l-0.3,0.7l-0.5,0.6l-0.6,0.6l-0.6,0.5l-0.7,0.3l-0.8,0.2l-0.8,0.1
		l-0.8-0.1l-0.8-0.2l-0.7-0.3l-0.6-0.5l-0.6-0.6l-0.5-0.6l-0.3-0.7l-0.2-0.8l-0.1-0.8l0.1-0.8l0.2-0.8l0.3-0.7l0.5-0.6l0.6-0.6
		l0.6-0.5l0.7-0.3l0.8-0.2l0.8-0.1l0.8,0.1l0.8,0.2l0.7,0.3l0.6,0.5l0.6,0.6l0.5,0.6l0.3,0.7L421.2,13.4z"/>
	<path class="st1" d="M421.2,325.2l0.1,0.8l-0.1,0.8l-0.2,0.8l-0.3,0.7l-0.5,0.6l-0.6,0.6L419,330l-0.7,0.3l-0.8,0.2l-0.8,0.1
		l-0.8-0.1l-0.8-0.2l-0.7-0.3l-0.6-0.5l-0.6-0.6l-0.5-0.6l-0.3-0.7l-0.2-0.8l-0.1-0.8l0.1-0.8l0.2-0.8l0.3-0.7l0.5-0.6l0.6-0.6
		l0.6-0.5l0.7-0.3l0.8-0.2l0.8-0.1l0.8,0.1l0.8,0.2l0.7,0.3l0.6,0.5l0.6,0.6l0.5,0.6l0.3,0.7L421.2,325.2z"/>
</g>
<g id="Text" class="st2">
	<text transform="matrix(1 0 0 1 184.0401 269.4944)" class="st3 st4 st5">SPOOL</text>
	<text transform="matrix(1 0 0 1 352.9699 154.6245)" class="st3 st4 st5">PWR SHLD</text>
	<text transform="matrix(1 0 0 1 102.0504 229.9312)" class="st3 st4 st5">SHLD FRONT</text>
	<text transform="matrix(1 0 0 1 104.9854 272.6002)" class="st3 st4 st5">SHLD BACK</text>
	<text transform="matrix(1 0 0 1 353.58 110.7448)" class="st3 st4 st5">WEAPONS</text>
	<text transform="matrix(1 0 0 1 99.2204 32.9616)" class="st3 st4 st5">LIGHTS</text>
	<text transform="matrix(1 0 0 1 46.8749 77.3057)" class="st3 st4 st5">DOORS</text>
	<text transform="matrix(1 0 0 1 107.0501 77.3057)" class="st3 st4 st5">ATC</text>
	<text transform="matrix(1 0 0 1 259.4754 154.6246)" class="st3 st4 st5">PWR WEAP</text>
	<text transform="matrix(1 0 0 1 309.0951 250.5959)" class="st3 st4 st5">PWR ENG</text>
	<text transform="matrix(1 0 0 1 315.332 209.9738)" class="st3 st4 st6">PWR RST</text>
	<text transform="matrix(1 0 0 1 102.9932 177.3002)" class="st3 st4 st5">QUANTUM</text>
	<text transform="matrix(1 0 0 1 114.6733 189.3002)" class="st3 st4 st5">DRIVE</text>
	<text transform="matrix(1 0 0 1 41.6404 32.9614)" class="st7 st4 st5">LANDING</text>
	<text transform="matrix(1 0 0 1 166.775 110.7447)" class="st3 st4 st5">POWER</text>
	<text transform="matrix(1 0 0 1 227.9703 110.7448)" class="st3 st4 st5">ENGINES</text>
	<text transform="matrix(1 0 0 1 294.6698 110.7448)" class="st3 st4 st5">SHIELDS</text>
</g>
<g id="Expanded_Text__x28_Old_layout_x29_" class="st2">
	<g class="st8">
		<path class="st9" d="M190,263.9c-0.2-0.2-0.4-0.3-0.6-0.4c-0.2-0.1-0.4-0.1-0.6-0.1c-0.3,0-0.5,0.1-0.6,0.2
			c-0.2,0.1-0.2,0.3-0.2,0.5c0,0.1,0,0.2,0.1,0.3c0.1,0.1,0.2,0.2,0.3,0.2s0.3,0.1,0.4,0.2c0.2,0,0.3,0.1,0.5,0.2
			c0.6,0.2,1.1,0.5,1.4,0.9c0.3,0.4,0.4,0.8,0.4,1.4c0,0.4-0.1,0.7-0.2,1c-0.1,0.3-0.3,0.6-0.6,0.8s-0.6,0.4-0.9,0.5
			c-0.4,0.1-0.8,0.2-1.2,0.2c-1,0-1.8-0.3-2.6-0.8l0.8-1.6c0.3,0.3,0.6,0.5,0.9,0.6c0.3,0.1,0.6,0.2,0.8,0.2c0.3,0,0.6-0.1,0.7-0.2
			c0.2-0.1,0.2-0.3,0.2-0.5c0-0.1,0-0.2-0.1-0.3s-0.1-0.2-0.2-0.2c-0.1-0.1-0.2-0.1-0.4-0.2c-0.1-0.1-0.3-0.1-0.5-0.2
			c-0.3-0.1-0.5-0.2-0.7-0.3c-0.2-0.1-0.5-0.2-0.6-0.4s-0.3-0.4-0.5-0.6s-0.2-0.6-0.2-0.9c0-0.4,0.1-0.7,0.2-1
			c0.1-0.3,0.3-0.6,0.5-0.8c0.2-0.2,0.5-0.4,0.8-0.5s0.7-0.2,1.1-0.2c0.4,0,0.8,0.1,1.2,0.2s0.8,0.3,1.2,0.5L190,263.9z"/>
		<path class="st9" d="M193.9,272.1h-1.8v-7.7h1.8v0.6c0.4-0.5,0.9-0.7,1.6-0.7c0.4,0,0.7,0.1,1,0.2s0.6,0.3,0.8,0.6
			c0.2,0.2,0.4,0.5,0.5,0.9c0.1,0.3,0.2,0.7,0.2,1.1s-0.1,0.7-0.2,1.1c-0.1,0.3-0.3,0.6-0.5,0.9c-0.2,0.2-0.5,0.4-0.8,0.6
			c-0.3,0.1-0.7,0.2-1,0.2c-0.6,0-1.2-0.2-1.6-0.7V272.1z M196.2,266.9c0-0.2,0-0.3-0.1-0.5s-0.1-0.3-0.2-0.4s-0.2-0.2-0.4-0.3
			s-0.3-0.1-0.5-0.1s-0.3,0-0.5,0.1c-0.1,0.1-0.3,0.1-0.4,0.2c-0.1,0.1-0.2,0.2-0.2,0.4c-0.1,0.1-0.1,0.3-0.1,0.5s0,0.3,0.1,0.4
			s0.1,0.3,0.2,0.4c0.1,0.1,0.2,0.2,0.4,0.2c0.1,0.1,0.3,0.1,0.5,0.1s0.3,0,0.5-0.1c0.1-0.1,0.3-0.1,0.4-0.2
			c0.1-0.1,0.2-0.2,0.2-0.4C196.2,267.2,196.2,267.1,196.2,266.9z"/>
		<path class="st9" d="M198.9,266.9c0-0.4,0.1-0.7,0.2-1.1s0.4-0.6,0.6-0.9s0.6-0.4,1-0.6c0.4-0.1,0.8-0.2,1.2-0.2s0.8,0.1,1.2,0.2
			s0.7,0.3,1,0.6c0.3,0.2,0.5,0.5,0.6,0.9s0.2,0.7,0.2,1.1s-0.1,0.8-0.2,1.1c-0.2,0.3-0.4,0.6-0.6,0.9c-0.3,0.2-0.6,0.4-1,0.6
			c-0.4,0.1-0.8,0.2-1.2,0.2s-0.8-0.1-1.2-0.2s-0.7-0.3-1-0.6c-0.3-0.2-0.5-0.5-0.6-0.9S198.9,267.3,198.9,266.9z M200.8,266.9
			c0,0.2,0,0.3,0.1,0.5c0.1,0.1,0.1,0.3,0.2,0.4c0.1,0.1,0.2,0.2,0.4,0.2c0.1,0.1,0.3,0.1,0.5,0.1s0.3,0,0.5-0.1
			c0.1-0.1,0.3-0.1,0.4-0.2c0.1-0.1,0.2-0.2,0.2-0.4c0.1-0.1,0.1-0.3,0.1-0.5s0-0.3-0.1-0.5c-0.1-0.1-0.1-0.3-0.2-0.4
			c-0.1-0.1-0.2-0.2-0.4-0.2c-0.1-0.1-0.3-0.1-0.5-0.1s-0.3,0-0.5,0.1c-0.1,0.1-0.3,0.1-0.4,0.2c-0.1,0.1-0.2,0.2-0.2,0.4
			S200.8,266.7,200.8,266.9z"/>
		<path class="st9" d="M205.9,266.9c0-0.4,0.1-0.7,0.2-1.1s0.4-0.6,0.6-0.9s0.6-0.4,1-0.6c0.4-0.1,0.8-0.2,1.2-0.2s0.8,0.1,1.2,0.2
			s0.7,0.3,1,0.6s0.5,0.5,0.6,0.9s0.2,0.7,0.2,1.1s-0.1,0.8-0.2,1.1c-0.2,0.3-0.4,0.6-0.6,0.9s-0.6,0.4-1,0.6
			c-0.4,0.1-0.8,0.2-1.2,0.2s-0.8-0.1-1.2-0.2s-0.7-0.3-1-0.6c-0.3-0.2-0.5-0.5-0.6-0.9S205.9,267.3,205.9,266.9z M207.8,266.9
			c0,0.2,0,0.3,0.1,0.5c0.1,0.1,0.1,0.3,0.2,0.4c0.1,0.1,0.2,0.2,0.4,0.2c0.1,0.1,0.3,0.1,0.5,0.1s0.3,0,0.5-0.1
			c0.1-0.1,0.3-0.1,0.4-0.2c0.1-0.1,0.2-0.2,0.2-0.4c0.1-0.1,0.1-0.3,0.1-0.5s0-0.3-0.1-0.5s-0.1-0.3-0.2-0.4s-0.2-0.2-0.4-0.2
			c-0.1-0.1-0.3-0.1-0.5-0.1s-0.3,0-0.5,0.1c-0.1,0.1-0.3,0.1-0.4,0.2c-0.1,0.1-0.2,0.2-0.2,0.4S207.8,266.7,207.8,266.9z"/>
		<path class="st9" d="M214.9,261.2v8.3h-1.8v-8.3H214.9z"/>
	</g>
	<g class="st8">
		<path class="st9" d="M354.5,154.6h-2v-7.5h3.1c0.8,0,1.5,0.2,1.9,0.7c0.5,0.4,0.7,1.1,0.7,1.9c0,0.8-0.2,1.4-0.7,1.9
			c-0.5,0.4-1.1,0.7-1.9,0.7h-1.2v2.3L354.5,154.6L354.5,154.6z M354.5,150.5h0.6c0.7,0,1.1-0.3,1.1-0.9c0-0.6-0.4-0.9-1.1-0.9h-0.6
			V150.5z"/>
		<path class="st9" d="M360.6,147.1l1.3,4.9l1.6-4.9h1.6l1.6,4.9l1.3-4.9h2l-2.2,7.5h-2l-1.5-4.4l-1.5,4.4h-2l-2.2-7.5H360.6z"/>
		<path class="st9" d="M377.1,154.6h-2.4l-1.9-2.9v2.9h-2v-7.5h3c0.4,0,0.8,0.1,1.1,0.2c0.3,0.1,0.6,0.3,0.8,0.5
			c0.2,0.2,0.4,0.5,0.5,0.7c0.1,0.3,0.2,0.6,0.2,0.9c0,0.6-0.1,1-0.4,1.4s-0.7,0.6-1.2,0.7L377.1,154.6z M372.7,150.5h0.4
			c0.4,0,0.7-0.1,0.9-0.2c0.2-0.2,0.3-0.4,0.3-0.7s-0.1-0.5-0.3-0.7c-0.2-0.2-0.5-0.2-0.9-0.2h-0.4V150.5z"/>
		<path class="st9" d="M385.4,149c-0.2-0.2-0.4-0.3-0.6-0.4c-0.2-0.1-0.4-0.1-0.6-0.1c-0.3,0-0.5,0.1-0.6,0.2
			c-0.2,0.1-0.2,0.3-0.2,0.5c0,0.1,0,0.2,0.1,0.3s0.2,0.2,0.3,0.2s0.3,0.1,0.4,0.2c0.2,0,0.3,0.1,0.5,0.2c0.6,0.2,1.1,0.5,1.4,0.9
			s0.4,0.8,0.4,1.4c0,0.4-0.1,0.7-0.2,1s-0.3,0.6-0.6,0.8s-0.6,0.4-0.9,0.5c-0.4,0.1-0.8,0.2-1.2,0.2c-1,0-1.8-0.3-2.6-0.8l0.8-1.6
			c0.3,0.3,0.6,0.5,0.9,0.6s0.6,0.2,0.8,0.2c0.3,0,0.6-0.1,0.7-0.2c0.2-0.1,0.2-0.3,0.2-0.5c0-0.1,0-0.2-0.1-0.3s-0.1-0.2-0.2-0.2
			c-0.1-0.1-0.2-0.1-0.4-0.2c-0.2-0.1-0.3-0.1-0.5-0.2c-0.3-0.1-0.5-0.2-0.7-0.3s-0.5-0.2-0.7-0.4s-0.3-0.4-0.5-0.6
			c-0.1-0.2-0.2-0.6-0.2-0.9c0-0.4,0.1-0.7,0.2-1s0.3-0.6,0.5-0.8s0.5-0.4,0.8-0.5s0.7-0.2,1.1-0.2s0.8,0.1,1.2,0.2
			c0.4,0.1,0.8,0.3,1.2,0.5L385.4,149z"/>
		<path class="st9" d="M387.6,146.3h1.8v3.8c0.2-0.3,0.5-0.5,0.8-0.6s0.6-0.2,0.9-0.2c0.6,0,1.1,0.2,1.5,0.5s0.5,0.8,0.5,1.4v3.3
			h-1.8V152c0-0.3,0-0.5-0.1-0.6s-0.1-0.3-0.2-0.4c-0.2-0.1-0.4-0.2-0.6-0.2c-0.3,0-0.5,0.1-0.7,0.3s-0.2,0.4-0.2,0.8v2.7h-1.8
			L387.6,146.3L387.6,146.3z"/>
		<path class="st9" d="M396,146.3v8.3h-1.8v-8.3H396z"/>
		<path class="st9" d="M401.2,146.3h1.8v8.3h-1.8V154c-0.4,0.5-0.9,0.7-1.6,0.7c-0.4,0-0.7-0.1-1-0.2c-0.3-0.1-0.6-0.3-0.8-0.6
			s-0.4-0.5-0.5-0.9s-0.2-0.7-0.2-1.1c0-0.4,0.1-0.7,0.2-1s0.3-0.6,0.5-0.9c0.2-0.2,0.5-0.4,0.8-0.6c0.3-0.1,0.7-0.2,1-0.2
			c0.6,0,1.2,0.2,1.6,0.7V146.3z M398.9,152c0,0.2,0,0.3,0.1,0.5c0.1,0.1,0.1,0.3,0.2,0.4c0.1,0.1,0.2,0.2,0.4,0.2
			c0.1,0.1,0.3,0.1,0.5,0.1s0.3,0,0.5-0.1c0.1-0.1,0.3-0.1,0.4-0.2c0.1-0.1,0.2-0.2,0.2-0.4c0.1-0.1,0.1-0.3,0.1-0.4
			c0-0.2,0-0.3-0.1-0.5s-0.1-0.3-0.2-0.4s-0.2-0.2-0.4-0.2c-0.1-0.1-0.3-0.1-0.5-0.1s-0.3,0-0.5,0.1c-0.1,0.1-0.3,0.1-0.4,0.2
			c-0.1,0.1-0.2,0.2-0.2,0.4C399,151.7,398.9,151.9,398.9,152z"/>
	</g>
	<g class="st8">
		<path class="st9" d="M106.9,224.7c-0.2-0.2-0.4-0.3-0.6-0.4c-0.2-0.1-0.4-0.1-0.6-0.1c-0.3,0-0.5,0.1-0.6,0.2
			c-0.2,0.1-0.2,0.3-0.2,0.5c0,0.1,0,0.2,0.1,0.3s0.2,0.2,0.3,0.2s0.3,0.1,0.4,0.2c0.2,0,0.3,0.1,0.5,0.2c0.6,0.2,1.1,0.5,1.4,0.9
			s0.4,0.8,0.4,1.4c0,0.4-0.1,0.7-0.2,1s-0.3,0.6-0.6,0.8s-0.6,0.4-0.9,0.5c-0.4,0.1-0.8,0.2-1.2,0.2c-1,0-1.8-0.3-2.6-0.8l0.8-1.6
			c0.3,0.3,0.6,0.5,0.9,0.6s0.6,0.2,0.8,0.2c0.3,0,0.6-0.1,0.7-0.2c0.2-0.1,0.2-0.3,0.2-0.5c0-0.1,0-0.2-0.1-0.3s-0.1-0.2-0.2-0.2
			c-0.1-0.1-0.2-0.1-0.4-0.2c-0.1-0.1-0.3-0.1-0.5-0.2c-0.3-0.1-0.5-0.2-0.7-0.3s-0.5-0.2-0.6-0.4s-0.3-0.4-0.5-0.6
			s-0.2-0.6-0.2-0.9c0-0.4,0.1-0.7,0.2-1s0.3-0.6,0.5-0.8s0.5-0.4,0.8-0.5s0.7-0.2,1.1-0.2s0.8,0.1,1.2,0.2s0.8,0.3,1.2,0.5
			L106.9,224.7z"/>
		<path class="st9" d="M111.2,225.6h2.8v-2.9h2v7.5h-2v-3.1h-2.8v3.1h-2v-7.5h2V225.6z"/>
		<path class="st9" d="M119.5,222.7v5.9h2.4v1.7h-4.3v-7.5L119.5,222.7L119.5,222.7z"/>
		<path class="st9" d="M122.9,222.7h2.9c0.5,0,1,0.1,1.4,0.3c0.5,0.2,0.8,0.5,1.2,0.8c0.3,0.3,0.6,0.7,0.8,1.2s0.3,0.9,0.3,1.4
			s-0.1,1-0.3,1.4c-0.2,0.5-0.5,0.9-0.8,1.2s-0.7,0.6-1.2,0.8c-0.4,0.2-0.9,0.3-1.5,0.3h-2.9L122.9,222.7L122.9,222.7z M124.8,228.6
			h0.5c0.3,0,0.6-0.1,0.9-0.2c0.3-0.1,0.5-0.3,0.7-0.4s0.3-0.4,0.4-0.7s0.1-0.5,0.1-0.8s0-0.6-0.1-0.8c-0.1-0.3-0.2-0.5-0.4-0.7
			s-0.4-0.3-0.7-0.4c-0.3-0.1-0.6-0.2-0.9-0.2h-0.5V228.6z"/>
		<path class="st9" d="M138.4,224.4H136v1.3h2.2v1.7H136v3h-2v-7.5h4.3L138.4,224.4L138.4,224.4z"/>
		<path class="st9" d="M139.4,225.1h1.8v0.8c0.2-0.3,0.4-0.5,0.7-0.7s0.6-0.2,1-0.2c0,0,0.1,0,0.2,0s0.1,0,0.2,0v1.7
			c-0.2-0.1-0.5-0.2-0.8-0.2c-0.4,0-0.7,0.1-0.9,0.4s-0.3,0.6-0.3,1.1v2.2h-1.8L139.4,225.1L139.4,225.1z"/>
		<path class="st9" d="M143.9,227.7c0-0.4,0.1-0.7,0.2-1.1c0.2-0.3,0.4-0.6,0.6-0.9s0.6-0.4,1-0.6c0.4-0.1,0.8-0.2,1.2-0.2
			s0.8,0.1,1.2,0.2c0.4,0.1,0.7,0.3,1,0.6s0.5,0.5,0.6,0.9s0.2,0.7,0.2,1.1c0,0.4-0.1,0.8-0.2,1.1c-0.2,0.3-0.4,0.6-0.6,0.9
			s-0.6,0.4-1,0.6c-0.4,0.1-0.8,0.2-1.2,0.2s-0.8-0.1-1.2-0.2c-0.4-0.1-0.7-0.3-1-0.6c-0.3-0.2-0.5-0.5-0.6-0.9
			C144,228.5,143.9,228.1,143.9,227.7z M145.8,227.7c0,0.2,0,0.3,0.1,0.5c0.1,0.1,0.1,0.3,0.2,0.4c0.1,0.1,0.2,0.2,0.4,0.2
			c0.1,0.1,0.3,0.1,0.5,0.1s0.3,0,0.5-0.1c0.1-0.1,0.3-0.1,0.4-0.2c0.1-0.1,0.2-0.2,0.2-0.4c0.1-0.1,0.1-0.3,0.1-0.5s0-0.3-0.1-0.5
			s-0.1-0.3-0.2-0.4s-0.2-0.2-0.4-0.2c-0.1-0.1-0.3-0.1-0.5-0.1s-0.3,0-0.5,0.1c-0.1,0.1-0.3,0.1-0.4,0.2s-0.2,0.2-0.2,0.4
			S145.8,227.5,145.8,227.7z"/>
		<path class="st9" d="M151.1,225.1h1.8v0.6c0.2-0.3,0.5-0.5,0.8-0.6s0.6-0.2,0.9-0.2c0.4,0,0.7,0.1,0.9,0.2
			c0.3,0.1,0.5,0.3,0.7,0.5c0.1,0.2,0.2,0.4,0.3,0.6c0.1,0.2,0.1,0.5,0.1,0.7v3.3h-1.8v-2.6c0-0.3,0-0.5-0.1-0.6
			c0-0.2-0.1-0.3-0.2-0.4c-0.1-0.1-0.2-0.1-0.3-0.2c-0.1,0-0.2,0-0.3,0c-0.3,0-0.5,0.1-0.7,0.3s-0.2,0.4-0.2,0.8v2.7h-1.8
			L151.1,225.1L151.1,225.1z"/>
		<path class="st9" d="M159.8,226.6v3.6H158v-3.6h-0.6v-1.5h0.6v-1.5h1.8v1.5h1v1.5H159.8z"/>
	</g>
	<g class="st8">
		<path class="st9" d="M107.7,267c-0.2-0.2-0.4-0.3-0.6-0.4s-0.4-0.1-0.6-0.1c-0.3,0-0.5,0.1-0.6,0.2c-0.2,0.1-0.2,0.3-0.2,0.5
			c0,0.1,0,0.2,0.1,0.3c0.1,0.1,0.2,0.2,0.3,0.2s0.3,0.1,0.4,0.2c0.2,0,0.3,0.1,0.5,0.2c0.6,0.2,1.1,0.5,1.4,0.9s0.4,0.8,0.4,1.4
			c0,0.4-0.1,0.7-0.2,1s-0.3,0.6-0.6,0.8s-0.6,0.4-0.9,0.5c-0.4,0.1-0.8,0.2-1.2,0.2c-1,0-1.8-0.3-2.6-0.8l0.8-1.6
			c0.3,0.3,0.6,0.5,0.9,0.6s0.6,0.2,0.8,0.2c0.3,0,0.6-0.1,0.7-0.2c0.2-0.1,0.2-0.3,0.2-0.5c0-0.1,0-0.2-0.1-0.3s-0.1-0.2-0.2-0.2
			c-0.1-0.1-0.2-0.1-0.4-0.2c-0.1-0.1-0.3-0.1-0.5-0.2c-0.3-0.1-0.5-0.2-0.7-0.3c-0.2-0.1-0.5-0.2-0.6-0.4s-0.3-0.4-0.5-0.6
			s-0.2-0.6-0.2-0.9c0-0.4,0.1-0.7,0.2-1s0.3-0.6,0.5-0.8c0.2-0.2,0.5-0.4,0.8-0.5s0.7-0.2,1.1-0.2s0.8,0.1,1.2,0.2s0.8,0.3,1.2,0.5
			L107.7,267z"/>
		<path class="st9" d="M112,268h2.8v-2.9h2v7.5h-2v-3.1H112v3.1h-2v-7.5h2V268z"/>
		<path class="st9" d="M120.3,265.1v5.9h2.4v1.7h-4.3v-7.5h1.9V265.1z"/>
		<path class="st9" d="M123.7,265.1h2.9c0.5,0,1,0.1,1.4,0.3c0.5,0.2,0.8,0.5,1.2,0.8c0.3,0.3,0.6,0.7,0.8,1.2s0.3,0.9,0.3,1.4
			s-0.1,1-0.3,1.4c-0.2,0.5-0.5,0.9-0.8,1.2c-0.3,0.3-0.7,0.6-1.2,0.8c-0.4,0.2-0.9,0.3-1.5,0.3h-2.9L123.7,265.1L123.7,265.1z
			 M125.7,270.9h0.5c0.3,0,0.6-0.1,0.9-0.2s0.5-0.3,0.7-0.4s0.3-0.4,0.4-0.7c0.1-0.3,0.1-0.5,0.1-0.8s0-0.6-0.1-0.8
			c-0.1-0.3-0.2-0.5-0.4-0.7s-0.4-0.3-0.7-0.4c-0.3-0.1-0.6-0.2-0.9-0.2h-0.5V270.9z"/>
		<path class="st9" d="M135,265.1h2.9c0.7,0,1.2,0.2,1.6,0.5s0.5,0.8,0.5,1.4c0,0.4-0.1,0.7-0.2,0.9s-0.3,0.5-0.6,0.6
			c0.3,0.1,0.5,0.1,0.7,0.2s0.4,0.2,0.5,0.4c0.1,0.2,0.2,0.3,0.3,0.5s0.1,0.4,0.1,0.6c0,0.4-0.1,0.7-0.2,0.9
			c-0.1,0.3-0.3,0.5-0.5,0.7s-0.5,0.3-0.8,0.4s-0.7,0.1-1.1,0.1H135V265.1z M136.9,268h0.4c0.6,0,0.9-0.2,0.9-0.7s-0.3-0.7-0.9-0.7
			h-0.4V268z M136.9,271.1h0.4c0.5,0,0.8-0.1,1.1-0.2c0.2-0.1,0.3-0.3,0.3-0.6c0-0.3-0.1-0.5-0.3-0.6s-0.6-0.2-1.1-0.2h-0.4V271.1z"
			/>
		<path class="st9" d="M145.7,267.5h1.8v5.1h-1.8V272c-0.4,0.5-0.9,0.7-1.6,0.7c-0.4,0-0.7-0.1-1-0.2s-0.6-0.3-0.8-0.6
			c-0.2-0.2-0.4-0.5-0.5-0.9c-0.1-0.3-0.2-0.7-0.2-1.1s0.1-0.7,0.2-1c0.1-0.3,0.3-0.6,0.5-0.9c0.2-0.2,0.5-0.4,0.8-0.6
			s0.7-0.2,1-0.2c0.6,0,1.2,0.2,1.6,0.7V267.5z M143.4,270c0,0.2,0,0.3,0.1,0.5c0.1,0.1,0.1,0.3,0.2,0.4c0.1,0.1,0.2,0.2,0.4,0.2
			c0.1,0.1,0.3,0.1,0.5,0.1s0.3,0,0.5-0.1c0.1-0.1,0.3-0.1,0.4-0.2c0.1-0.1,0.2-0.2,0.2-0.4c0.1-0.1,0.1-0.3,0.1-0.4
			c0-0.2,0-0.3-0.1-0.5s-0.1-0.3-0.2-0.4s-0.2-0.2-0.4-0.2c-0.1-0.1-0.3-0.1-0.5-0.1s-0.3,0-0.5,0.1c-0.1,0.1-0.3,0.1-0.4,0.2
			s-0.2,0.2-0.2,0.4C143.4,269.7,143.4,269.9,143.4,270z"/>
		<path class="st9" d="M152.6,269.1c-0.3-0.2-0.6-0.3-1-0.3c-0.2,0-0.3,0-0.5,0.1c-0.1,0.1-0.3,0.1-0.4,0.3
			c-0.1,0.1-0.2,0.2-0.3,0.4c-0.1,0.1-0.1,0.3-0.1,0.5s0,0.3,0.1,0.5c0.1,0.1,0.2,0.3,0.3,0.4s0.2,0.2,0.4,0.3
			c0.2,0.1,0.3,0.1,0.5,0.1c0.3,0,0.7-0.1,1-0.3v1.5c-0.4,0.2-0.9,0.3-1.3,0.3c-0.4,0-0.7-0.1-1.1-0.2c-0.3-0.1-0.6-0.3-0.9-0.5
			c-0.3-0.2-0.5-0.5-0.6-0.8c-0.2-0.3-0.2-0.7-0.2-1.1s0.1-0.8,0.2-1.1c0.1-0.3,0.3-0.6,0.6-0.9c0.3-0.2,0.6-0.4,0.9-0.6
			c0.4-0.1,0.7-0.2,1.1-0.2c0.4,0,0.8,0.1,1.2,0.3v1.3L152.6,269.1L152.6,269.1z"/>
		<path class="st9" d="M155.7,264.3v5l1.9-1.8h2.5l-2.6,2.4l2.7,2.8h-2.5l-2-2.1v2.1h-1.8v-8.3h1.8L155.7,264.3L155.7,264.3z"/>
	</g>
	<g class="st8">
		<path class="st9" d="M355.3,104.7l1.3,4.9l1.6-4.9h1.6l1.6,4.9l1.3-4.9h2l-2.2,7.5h-2l-1.5-4.3l-1.5,4.4h-2l-2.2-7.5h2V104.7z"/>
		<path class="st9" d="M366.6,110c0,0.8,0.4,1.2,1.1,1.2c0.4,0,0.7-0.2,0.9-0.5h1.8c-0.4,1.2-1.2,1.8-2.7,1.8
			c-0.4,0-0.8-0.1-1.2-0.2c-0.4-0.1-0.7-0.3-0.9-0.6c-0.3-0.2-0.5-0.5-0.6-0.9c-0.1-0.3-0.2-0.7-0.2-1.1c0-0.4,0.1-0.8,0.2-1.2
			c0.1-0.3,0.3-0.6,0.6-0.9c0.2-0.2,0.5-0.4,0.9-0.6c0.4-0.1,0.7-0.2,1.2-0.2c0.4,0,0.8,0.1,1.2,0.2s0.6,0.3,0.9,0.6
			c0.2,0.2,0.4,0.5,0.5,0.9s0.2,0.8,0.2,1.2v0.2L366.6,110L366.6,110z M368.8,108.9c-0.1-0.3-0.2-0.5-0.4-0.6s-0.4-0.2-0.7-0.2
			c-0.3,0-0.5,0.1-0.7,0.2c-0.2,0.1-0.3,0.4-0.3,0.6H368.8z"/>
		<path class="st9" d="M375.4,107.1h1.8v5.1h-1.8v-0.6c-0.4,0.5-0.9,0.7-1.6,0.7c-0.4,0-0.7-0.1-1-0.2c-0.3-0.1-0.6-0.3-0.8-0.6
			c-0.2-0.2-0.4-0.5-0.5-0.9c-0.1-0.3-0.2-0.7-0.2-1.1c0-0.4,0.1-0.7,0.2-1c0.1-0.3,0.3-0.6,0.5-0.9c0.2-0.2,0.5-0.4,0.8-0.6
			s0.7-0.2,1-0.2c0.6,0,1.2,0.2,1.6,0.7V107.1z M373.1,109.7c0,0.2,0,0.3,0.1,0.5c0.1,0.1,0.1,0.3,0.2,0.4c0.1,0.1,0.2,0.2,0.4,0.2
			c0.1,0.1,0.3,0.1,0.5,0.1s0.3,0,0.5-0.1c0.1-0.1,0.3-0.1,0.4-0.2c0.1-0.1,0.2-0.2,0.2-0.4c0.1-0.1,0.1-0.3,0.1-0.4
			c0-0.2,0-0.3-0.1-0.5c-0.1-0.2-0.1-0.3-0.2-0.4c-0.1-0.1-0.2-0.2-0.4-0.2c-0.1-0.1-0.3-0.1-0.5-0.1s-0.3,0-0.5,0.1
			c-0.1,0.1-0.3,0.1-0.4,0.2c-0.1,0.1-0.2,0.2-0.2,0.4C373.2,109.3,373.1,109.5,373.1,109.7z"/>
		<path class="st9" d="M380.3,114.8h-1.8v-7.7h1.8v0.6c0.4-0.5,0.9-0.7,1.6-0.7c0.4,0,0.7,0.1,1,0.2c0.3,0.1,0.6,0.3,0.8,0.6
			c0.2,0.2,0.4,0.5,0.5,0.9c0.1,0.3,0.2,0.7,0.2,1.1c0,0.4-0.1,0.7-0.2,1.1c-0.1,0.3-0.3,0.6-0.5,0.9c-0.2,0.2-0.5,0.4-0.8,0.6
			c-0.3,0.1-0.7,0.2-1,0.2c-0.6,0-1.2-0.2-1.6-0.7V114.8z M382.6,109.7c0-0.2,0-0.3-0.1-0.5c-0.1-0.2-0.1-0.3-0.2-0.4
			c-0.1-0.1-0.2-0.2-0.4-0.3s-0.3-0.1-0.5-0.1s-0.3,0-0.5,0.1c-0.1,0.1-0.3,0.1-0.4,0.2c-0.1,0.1-0.2,0.2-0.2,0.4
			c0,0.2-0.1,0.3-0.1,0.5c0,0.2,0,0.3,0.1,0.4c0.1,0.1,0.1,0.3,0.2,0.4c0.1,0.1,0.2,0.2,0.4,0.2s0.3,0.1,0.5,0.1s0.3,0,0.5-0.1
			c0.1-0.1,0.3-0.1,0.4-0.2c0.1-0.1,0.2-0.2,0.2-0.4C382.5,110,382.6,109.8,382.6,109.7z"/>
		<path class="st9" d="M385.3,109.6c0-0.4,0.1-0.7,0.2-1.1c0.2-0.3,0.4-0.6,0.6-0.9s0.6-0.4,1-0.6c0.4-0.1,0.8-0.2,1.2-0.2
			c0.4,0,0.8,0.1,1.2,0.2c0.4,0.1,0.7,0.3,1,0.6c0.3,0.3,0.5,0.5,0.6,0.9c0.1,0.4,0.2,0.7,0.2,1.1c0,0.4-0.1,0.8-0.2,1.1
			c-0.2,0.3-0.4,0.6-0.6,0.9s-0.6,0.4-1,0.6c-0.4,0.1-0.8,0.2-1.2,0.2c-0.4,0-0.8-0.1-1.2-0.2c-0.4-0.1-0.7-0.3-1-0.6
			c-0.3-0.2-0.5-0.5-0.6-0.9C385.4,110.4,385.3,110,385.3,109.6z M387.2,109.6c0,0.2,0,0.3,0.1,0.5c0.1,0.1,0.1,0.3,0.2,0.4
			c0.1,0.1,0.2,0.2,0.4,0.2c0.1,0.1,0.3,0.1,0.5,0.1s0.3,0,0.5-0.1c0.1-0.1,0.3-0.1,0.4-0.2c0.1-0.1,0.2-0.2,0.2-0.4
			c0.1-0.1,0.1-0.3,0.1-0.5c0-0.2,0-0.3-0.1-0.5c-0.1-0.2-0.1-0.3-0.2-0.4c-0.1-0.1-0.2-0.2-0.4-0.2c-0.1-0.1-0.3-0.1-0.5-0.1
			s-0.3,0-0.5,0.1c-0.1,0.1-0.3,0.1-0.4,0.2c-0.1,0.1-0.2,0.2-0.2,0.4C387.3,109.3,387.2,109.5,387.2,109.6z"/>
		<path class="st9" d="M392.5,107.1h1.8v0.6c0.2-0.3,0.5-0.5,0.8-0.6c0.3-0.1,0.6-0.2,0.9-0.2c0.4,0,0.7,0.1,0.9,0.2
			c0.3,0.1,0.5,0.3,0.7,0.5c0.1,0.2,0.2,0.4,0.3,0.6c0.1,0.2,0.1,0.5,0.1,0.7v3.3h-1.8v-2.6c0-0.3,0-0.5-0.1-0.6
			c0-0.2-0.1-0.3-0.2-0.4c-0.1-0.1-0.2-0.1-0.3-0.2c-0.1,0-0.2,0-0.3,0c-0.3,0-0.5,0.1-0.7,0.3c-0.2,0.2-0.2,0.4-0.2,0.8v2.7h-1.8
			L392.5,107.1L392.5,107.1z"/>
		<path class="st9" d="M402.5,108.4c-0.3-0.2-0.7-0.3-1-0.3c-0.2,0-0.3,0-0.4,0.1c-0.1,0.1-0.2,0.2-0.2,0.3s0,0.1,0,0.1l0.1,0.1
			c0,0,0.1,0.1,0.2,0.1s0.3,0.1,0.4,0.1c0.5,0.1,0.9,0.3,1.1,0.5c0.2,0.3,0.4,0.6,0.4,1c0,0.3-0.1,0.6-0.2,0.8
			c-0.1,0.2-0.3,0.4-0.5,0.6c-0.2,0.2-0.5,0.3-0.8,0.4c-0.3,0.1-0.6,0.1-1,0.1c-0.7,0-1.4-0.2-2-0.6l0.7-1.3c0.5,0.3,1,0.5,1.4,0.5
			c0.2,0,0.3,0,0.4-0.1s0.2-0.2,0.2-0.3c0-0.1,0-0.1,0-0.2s-0.1-0.1-0.1-0.1c-0.1,0-0.1-0.1-0.2-0.1s-0.2-0.1-0.4-0.1
			c-0.6-0.1-1-0.3-1.2-0.5s-0.3-0.5-0.3-0.9c0-0.3,0.1-0.5,0.2-0.8c0.1-0.2,0.3-0.4,0.5-0.6s0.4-0.3,0.7-0.4
			c0.3-0.1,0.6-0.1,0.9-0.1c0.6,0,1.1,0.1,1.6,0.3L402.5,108.4z"/>
	</g>
	<g class="st8">
		<path class="st9" d="M103.3,25.4v5.9h2.4V33h-4.3v-7.5h1.9V25.4z"/>
		<path class="st9" d="M106.3,25.9c0-0.1,0-0.3,0.1-0.4s0.1-0.2,0.2-0.3c0.1-0.1,0.2-0.2,0.3-0.2c0.1-0.1,0.3-0.1,0.4-0.1
			s0.3,0,0.4,0.1s0.2,0.1,0.3,0.2c0.1,0.1,0.2,0.2,0.2,0.3c0.1,0.1,0.1,0.3,0.1,0.4s0,0.3-0.1,0.4s-0.1,0.2-0.2,0.3
			c-0.1,0.1-0.2,0.2-0.3,0.2c-0.1,0.1-0.3,0.1-0.4,0.1s-0.3,0-0.4-0.1s-0.2-0.1-0.3-0.2s-0.2-0.2-0.2-0.3
			C106.3,26.1,106.3,26,106.3,25.9z M108.3,27.8V33h-1.8v-5.1h1.8V27.8z"/>
		<path class="st9" d="M115.2,27.8v4.8c0,0.3,0,0.5,0,0.8c0,0.2-0.1,0.4-0.1,0.6c-0.1,0.2-0.2,0.4-0.4,0.6c-0.2,0.2-0.4,0.4-0.6,0.5
			s-0.5,0.2-0.8,0.3s-0.6,0.1-1,0.1s-0.8,0-1.1-0.2c-0.3-0.1-0.6-0.2-0.9-0.4s-0.5-0.4-0.6-0.6c-0.2-0.2-0.3-0.5-0.3-0.8h2
			c0.1,0.3,0.4,0.5,0.9,0.5c0.4,0,0.7-0.1,0.9-0.3c0.2-0.2,0.3-0.5,0.3-0.9v-0.5c-0.1,0.1-0.3,0.2-0.4,0.3s-0.2,0.2-0.4,0.2
			c-0.1,0.1-0.3,0.1-0.4,0.1s-0.3,0-0.5,0c-0.4,0-0.7-0.1-1-0.2c-0.3-0.1-0.6-0.3-0.8-0.5c-0.2-0.2-0.4-0.5-0.5-0.8
			s-0.2-0.7-0.2-1.1s0.1-0.8,0.2-1.1c0.1-0.3,0.3-0.6,0.5-0.9s0.5-0.4,0.8-0.6c0.3-0.1,0.7-0.2,1-0.2c0.6,0,1.1,0.2,1.5,0.7v-0.5
			h1.9V27.8z M111.2,30.4c0,0.2,0,0.3,0.1,0.5s0.1,0.3,0.2,0.4s0.2,0.2,0.4,0.2s0.3,0.1,0.5,0.1s0.3,0,0.5-0.1
			c0.1-0.1,0.3-0.1,0.4-0.2s0.2-0.2,0.2-0.4s0.1-0.3,0.1-0.5s0-0.3-0.1-0.5s-0.1-0.3-0.3-0.4c-0.1-0.1-0.2-0.2-0.4-0.2
			c-0.1-0.1-0.3-0.1-0.4-0.1c-0.2,0-0.3,0-0.5,0.1s-0.3,0.1-0.4,0.2s-0.2,0.2-0.3,0.4S111.2,30.2,111.2,30.4z"/>
		<path class="st9" d="M116.5,24.7h1.8v3.8c0.2-0.3,0.5-0.5,0.8-0.6s0.5-0.2,0.9-0.2c0.6,0,1.1,0.2,1.5,0.5s0.5,0.8,0.5,1.4V33h-1.8
			v-2.6c0-0.3,0-0.5-0.1-0.6s-0.1-0.3-0.2-0.4c-0.2-0.1-0.4-0.2-0.6-0.2c-0.3,0-0.5,0.1-0.7,0.3c-0.2,0.2-0.2,0.4-0.2,0.8V33h-1.8
			v-8.3H116.5z"/>
		<path class="st9" d="M125.1,29.3V33h-1.8v-3.6h-0.6v-1.5h0.6v-1.5h1.8v1.5h1v1.5h-1V29.3z"/>
		<path class="st9" d="M130.3,29.2c-0.3-0.2-0.7-0.3-1-0.3c-0.2,0-0.3,0-0.4,0.1s-0.2,0.2-0.2,0.3c0,0.1,0,0.1,0,0.1l0.1,0.1
			c0,0,0.1,0.1,0.2,0.1c0.1,0,0.3,0.1,0.4,0.1c0.5,0.1,0.9,0.3,1.1,0.5c0.2,0.3,0.4,0.6,0.4,1c0,0.3-0.1,0.6-0.2,0.8
			c-0.1,0.2-0.3,0.4-0.5,0.6c-0.2,0.2-0.5,0.3-0.8,0.4s-0.6,0.1-1,0.1c-0.7,0-1.4-0.2-2-0.6l0.7-1.3c0.5,0.3,1,0.5,1.4,0.5
			c0.2,0,0.3,0,0.4-0.1c0.1-0.1,0.2-0.2,0.2-0.3c0-0.1,0-0.1,0-0.2S129,31,129,31c-0.1,0-0.1-0.1-0.2-0.1c-0.1,0-0.2-0.1-0.4-0.1
			c-0.6-0.1-1-0.3-1.2-0.5s-0.3-0.5-0.3-0.9c0-0.3,0.1-0.5,0.2-0.8c0.1-0.2,0.3-0.4,0.5-0.6s0.4-0.3,0.7-0.4s0.6-0.1,0.9-0.1
			c0.6,0,1.1,0.1,1.6,0.3L130.3,29.2z"/>
	</g>
	<g class="st8">
		<path class="st9" d="M49,70h2.9c0.5,0,1,0.1,1.4,0.3c0.5,0.2,0.8,0.5,1.2,0.8c0.3,0.3,0.6,0.7,0.8,1.2s0.3,0.9,0.3,1.4
			s-0.1,1-0.3,1.4c-0.2,0.5-0.5,0.9-0.8,1.2c-0.3,0.3-0.7,0.6-1.2,0.8c-0.5,0.2-0.9,0.3-1.5,0.3H49V70z M50.9,75.9h0.5
			c0.3,0,0.6-0.1,0.9-0.2c0.3-0.1,0.5-0.3,0.7-0.4c0.2-0.2,0.3-0.4,0.4-0.7s0.1-0.5,0.1-0.8s-0.1-0.6-0.1-0.8
			c-0.1-0.3-0.2-0.5-0.4-0.7s-0.4-0.3-0.7-0.4s-0.6-0.2-0.9-0.2h-0.5V75.9z"/>
		<path class="st9" d="M56.4,75c0-0.4,0.1-0.7,0.2-1.1s0.4-0.6,0.6-0.9s0.6-0.4,1-0.6c0.4-0.1,0.8-0.2,1.2-0.2s0.8,0.1,1.2,0.2
			s0.7,0.3,1,0.6c0.3,0.2,0.5,0.5,0.6,0.9s0.2,0.7,0.2,1.1s-0.1,0.8-0.2,1.1c-0.2,0.3-0.4,0.6-0.6,0.9c-0.3,0.2-0.6,0.4-1,0.6
			c-0.4,0.1-0.8,0.2-1.2,0.2s-0.8-0.1-1.2-0.2s-0.7-0.3-1-0.6c-0.3-0.2-0.5-0.5-0.6-0.9S56.4,75.4,56.4,75z M58.4,75
			c0,0.2,0,0.3,0.1,0.5c0.1,0.1,0.1,0.3,0.2,0.4c0.1,0.1,0.2,0.2,0.4,0.2c0.1,0.1,0.3,0.1,0.5,0.1s0.3,0,0.5-0.1
			c0.1-0.1,0.3-0.1,0.4-0.2c0.1-0.1,0.2-0.2,0.2-0.4c0.1-0.1,0.1-0.3,0.1-0.5s0-0.3-0.1-0.5c-0.1-0.1-0.1-0.3-0.2-0.4
			c-0.1-0.1-0.2-0.2-0.4-0.2c-0.1-0.1-0.3-0.1-0.5-0.1s-0.3,0-0.5,0.1C59,74,58.8,74,58.7,74.1s-0.2,0.2-0.2,0.4S58.4,74.8,58.4,75z
			"/>
		<path class="st9" d="M63.4,75c0-0.4,0.1-0.7,0.2-1.1s0.4-0.6,0.6-0.9s0.6-0.4,1-0.6c0.4-0.1,0.8-0.2,1.2-0.2
			c0.4,0,0.8,0.1,1.2,0.2c0.4,0.1,0.7,0.3,1,0.6c0.3,0.2,0.5,0.5,0.6,0.9s0.2,0.7,0.2,1.1s-0.1,0.8-0.2,1.1
			c-0.2,0.3-0.4,0.6-0.6,0.9c-0.3,0.2-0.6,0.4-1,0.6c-0.4,0.1-0.8,0.2-1.2,0.2c-0.4,0-0.8-0.1-1.2-0.2c-0.4-0.1-0.7-0.3-1-0.6
			c-0.3-0.2-0.5-0.5-0.6-0.9S63.4,75.4,63.4,75z M65.4,75c0,0.2,0,0.3,0.1,0.5c0.1,0.1,0.1,0.3,0.2,0.4s0.2,0.2,0.4,0.2
			c0.1,0.1,0.3,0.1,0.5,0.1s0.3,0,0.5-0.1c0.1-0.1,0.3-0.1,0.4-0.2s0.2-0.2,0.2-0.4c0.1-0.1,0.1-0.3,0.1-0.5s0-0.3-0.1-0.5
			c-0.1-0.1-0.1-0.3-0.2-0.4s-0.2-0.2-0.4-0.2c-0.1-0.1-0.3-0.1-0.5-0.1s-0.3,0-0.5,0.1C66,74,65.8,74,65.7,74.1s-0.2,0.2-0.2,0.4
			S65.4,74.8,65.4,75z"/>
		<path class="st9" d="M70.6,72.4h1.8v0.8c0.2-0.3,0.4-0.5,0.7-0.7c0.3-0.2,0.6-0.2,1-0.2c0,0,0.1,0,0.2,0s0.1,0,0.2,0V74
			c-0.2-0.1-0.5-0.2-0.8-0.2c-0.4,0-0.7,0.1-0.9,0.4c-0.2,0.2-0.3,0.6-0.3,1.1v2.2h-1.8L70.6,72.4L70.6,72.4z"/>
		<path class="st9" d="M78.7,73.8c-0.3-0.2-0.7-0.3-1-0.3c-0.2,0-0.3,0-0.4,0.1s-0.2,0.2-0.2,0.3c0,0.1,0,0.1,0,0.1l0.1,0.1
			c0,0,0.1,0.1,0.2,0.1s0.3,0.1,0.4,0.1c0.5,0.1,0.9,0.3,1.1,0.5c0.2,0.3,0.4,0.6,0.4,1c0,0.3-0.1,0.6-0.2,0.8
			c-0.1,0.2-0.3,0.4-0.5,0.6s-0.5,0.3-0.8,0.4s-0.6,0.1-1,0.1c-0.7,0-1.4-0.2-2-0.6l0.7-1.3c0.5,0.3,1,0.5,1.4,0.5
			c0.2,0,0.3,0,0.4-0.1s0.2-0.2,0.2-0.3c0-0.1,0-0.1,0-0.2s-0.1-0.1-0.1-0.1c-0.1,0-0.1-0.1-0.2-0.1s-0.2-0.1-0.4-0.1
			c-0.6-0.1-1-0.3-1.2-0.5s-0.3-0.5-0.3-0.9c0-0.3,0.1-0.5,0.2-0.8c0.1-0.2,0.3-0.4,0.5-0.6s0.4-0.3,0.7-0.4
			c0.3-0.1,0.6-0.1,0.9-0.1c0.6,0,1.1,0.1,1.6,0.3L78.7,73.8z"/>
	</g>
	<g class="st8">
		<path class="st9" d="M110.5,76.3h-2.8l-0.4,1.3h-2.1l2.9-7.5h2.1l2.9,7.5H111L110.5,76.3z M110,74.8l-0.9-2.5l-0.9,2.5H110z"/>
		<path class="st9" d="M116.5,71.7v5.9h-2v-5.9h-1.6V70h5.2v1.7H116.5z"/>
		<path class="st9" d="M124.3,72.6c-0.5-0.6-1-0.8-1.7-0.8c-0.3,0-0.6,0.1-0.8,0.2c-0.2,0.1-0.5,0.3-0.6,0.4
			c-0.2,0.2-0.3,0.4-0.4,0.7c-0.1,0.3-0.2,0.5-0.2,0.8s0.1,0.6,0.2,0.8c0.1,0.3,0.2,0.5,0.4,0.7c0.2,0.2,0.4,0.3,0.6,0.4
			s0.5,0.2,0.8,0.2c0.6,0,1.2-0.3,1.7-0.8v2.3l-0.2,0.1c-0.3,0.1-0.6,0.2-0.8,0.2c-0.3,0-0.5,0.1-0.8,0.1c-0.5,0-1-0.1-1.5-0.3
			s-0.9-0.5-1.3-0.8s-0.7-0.8-0.9-1.3c-0.2-0.5-0.3-1-0.3-1.6s0.1-1.1,0.3-1.6s0.5-0.9,0.9-1.2c0.4-0.4,0.8-0.6,1.3-0.8
			c0.5-0.2,1-0.3,1.5-0.3c0.3,0,0.6,0,0.9,0.1s0.6,0.2,0.9,0.3V72.6z"/>
	</g>
	<g class="st8">
		<path class="st9" d="M258.3,154.6h-2v-7.5h3.1c0.8,0,1.5,0.2,1.9,0.7c0.5,0.4,0.7,1.1,0.7,1.9c0,0.8-0.2,1.4-0.7,1.9
			c-0.5,0.4-1.1,0.7-1.9,0.7h-1.2v2.3L258.3,154.6L258.3,154.6z M258.3,150.5h0.7c0.7,0,1.1-0.3,1.1-0.9c0-0.6-0.4-0.9-1.1-0.9h-0.7
			V150.5z"/>
		<path class="st9" d="M264.4,147.1l1.3,4.9l1.6-4.9h1.6l1.6,4.9l1.3-4.9h2l-2.2,7.5h-2l-1.5-4.4l-1.5,4.4h-2l-2.2-7.5H264.4z"/>
		<path class="st9" d="M280.9,154.6h-2.4l-1.9-2.9v2.9h-2v-7.5h3c0.4,0,0.8,0.1,1.1,0.2c0.3,0.1,0.6,0.3,0.8,0.5
			c0.2,0.2,0.4,0.5,0.5,0.7c0.1,0.3,0.2,0.6,0.2,0.9c0,0.6-0.1,1-0.4,1.4s-0.7,0.6-1.2,0.7L280.9,154.6z M276.5,150.5h0.4
			c0.4,0,0.7-0.1,0.9-0.2s0.3-0.4,0.3-0.7s-0.1-0.5-0.3-0.7s-0.5-0.2-0.9-0.2h-0.4V150.5z"/>
		<path class="st9" d="M286.3,147.1l1.3,4.9l1.6-4.9h1.6l1.6,4.9l1.3-4.9h2l-2.2,7.5h-2l-1.5-4.4l-1.5,4.4h-2l-2.2-7.5H286.3z"/>
		<path class="st9" d="M297.7,152.4c0,0.8,0.4,1.2,1.1,1.2c0.4,0,0.7-0.2,0.9-0.5h1.8c-0.4,1.2-1.2,1.8-2.7,1.8
			c-0.4,0-0.8-0.1-1.2-0.2c-0.4-0.1-0.7-0.3-0.9-0.6c-0.3-0.2-0.5-0.5-0.6-0.9s-0.2-0.7-0.2-1.1c0-0.4,0.1-0.8,0.2-1.2
			c0.1-0.3,0.3-0.6,0.6-0.9c0.2-0.2,0.5-0.4,0.9-0.6s0.7-0.2,1.2-0.2c0.4,0,0.8,0.1,1.2,0.2c0.3,0.1,0.6,0.3,0.9,0.6
			c0.2,0.2,0.4,0.5,0.5,0.9s0.2,0.8,0.2,1.2v0.2h-3.9V152.4z M299.8,151.3c-0.1-0.3-0.2-0.5-0.4-0.6s-0.4-0.2-0.7-0.2
			c-0.3,0-0.5,0.1-0.7,0.2s-0.3,0.4-0.3,0.6H299.8z"/>
		<path class="st9" d="M306.5,149.5h1.8v5.1h-1.8V154c-0.4,0.5-0.9,0.7-1.6,0.7c-0.4,0-0.7-0.1-1-0.2c-0.3-0.1-0.6-0.3-0.8-0.6
			c-0.2-0.2-0.4-0.5-0.5-0.9c-0.1-0.3-0.2-0.7-0.2-1.1c0-0.4,0.1-0.7,0.2-1s0.3-0.6,0.5-0.9c0.2-0.2,0.5-0.4,0.8-0.6s0.7-0.2,1-0.2
			c0.6,0,1.2,0.2,1.6,0.7V149.5z M304.2,152c0,0.2,0,0.3,0.1,0.5c0.1,0.1,0.1,0.3,0.2,0.4c0.1,0.1,0.2,0.2,0.4,0.2
			c0.1,0.1,0.3,0.1,0.5,0.1s0.3,0,0.5-0.1c0.1-0.1,0.3-0.1,0.4-0.2c0.1-0.1,0.2-0.2,0.2-0.4c0.1-0.1,0.1-0.3,0.1-0.4
			c0-0.2,0-0.3-0.1-0.5s-0.1-0.3-0.2-0.4s-0.2-0.2-0.4-0.2c-0.1-0.1-0.3-0.1-0.5-0.1s-0.3,0-0.5,0.1c-0.1,0.1-0.3,0.1-0.4,0.2
			s-0.2,0.2-0.2,0.4C304.2,151.7,304.2,151.9,304.2,152z"/>
		<path class="st9" d="M311.3,157.2h-1.8v-7.7h1.8v0.6c0.4-0.5,0.9-0.7,1.6-0.7c0.4,0,0.7,0.1,1,0.2s0.6,0.3,0.8,0.6
			c0.2,0.2,0.4,0.5,0.5,0.9c0.1,0.3,0.2,0.7,0.2,1.1s-0.1,0.7-0.2,1.1c-0.1,0.3-0.3,0.6-0.5,0.9c-0.2,0.2-0.5,0.4-0.8,0.6
			c-0.3,0.1-0.7,0.2-1,0.2c-0.6,0-1.2-0.2-1.6-0.7V157.2z M313.6,152.1c0-0.2,0-0.3-0.1-0.5s-0.1-0.3-0.2-0.4s-0.2-0.2-0.4-0.3
			s-0.3-0.1-0.5-0.1s-0.3,0-0.5,0.1c-0.1,0.1-0.3,0.1-0.4,0.2s-0.2,0.2-0.2,0.4s-0.1,0.3-0.1,0.5s0,0.3,0.1,0.4
			c0.1,0.1,0.1,0.3,0.2,0.4s0.2,0.2,0.4,0.2s0.3,0.1,0.5,0.1s0.3,0,0.5-0.1c0.1-0.1,0.3-0.1,0.4-0.2c0.1-0.1,0.2-0.2,0.2-0.4
			C313.6,152.4,313.6,152.2,313.6,152.1z"/>
	</g>
	<g class="st8">
		<path class="st9" d="M310.4,250.6h-2v-7.5h3.1c0.8,0,1.5,0.2,1.9,0.7c0.5,0.4,0.7,1.1,0.7,1.9c0,0.8-0.2,1.4-0.7,1.9
			c-0.5,0.4-1.1,0.7-1.9,0.7h-1.2v2.3L310.4,250.6L310.4,250.6z M310.4,246.5h0.6c0.7,0,1.1-0.3,1.1-0.9c0-0.6-0.4-0.9-1.1-0.9h-0.6
			V246.5z"/>
		<path class="st9" d="M316.5,243.1l1.3,4.9l1.6-4.9h1.6l1.6,4.9l1.3-4.9h2l-2.2,7.5h-2l-1.5-4.4l-1.5,4.4h-2l-2.2-7.5H316.5z"/>
		<path class="st9" d="M333,250.6h-2.4l-1.9-2.9v2.9h-2v-7.5h3c0.4,0,0.8,0.1,1.1,0.2c0.3,0.1,0.6,0.3,0.8,0.5
			c0.2,0.2,0.4,0.5,0.5,0.7c0.1,0.3,0.2,0.6,0.2,0.9c0,0.6-0.1,1-0.4,1.4s-0.7,0.6-1.2,0.7L333,250.6z M328.7,246.4h0.4
			c0.4,0,0.7-0.1,0.9-0.2c0.2-0.2,0.3-0.4,0.3-0.7s-0.1-0.5-0.3-0.7c-0.2-0.2-0.5-0.2-0.9-0.2h-0.4V246.4z"/>
		<path class="st9" d="M341.5,244.7h-2.3v1.3h2.2v1.7h-2.2v1.3h2.3v1.7h-4.3v-7.5h4.3V244.7z"/>
		<path class="st9" d="M342.7,245.5h1.8v0.6c0.2-0.3,0.5-0.5,0.8-0.6s0.6-0.2,0.9-0.2c0.4,0,0.7,0.1,0.9,0.2
			c0.3,0.1,0.5,0.3,0.7,0.5c0.1,0.2,0.2,0.4,0.3,0.6c0.1,0.2,0.1,0.5,0.1,0.7v3.3h-1.8V248c0-0.3,0-0.5-0.1-0.6
			c0-0.2-0.1-0.3-0.2-0.4c-0.1-0.1-0.2-0.1-0.3-0.2c-0.1,0-0.2,0-0.3,0c-0.3,0-0.5,0.1-0.7,0.3s-0.2,0.4-0.2,0.8v2.7h-1.8
			L342.7,245.5L342.7,245.5z"/>
		<path class="st9" d="M355.1,245.5v4.8c0,0.3,0,0.5-0.1,0.8c0,0.2-0.1,0.4-0.1,0.6c-0.1,0.2-0.2,0.4-0.4,0.6
			c-0.2,0.2-0.4,0.4-0.6,0.5s-0.5,0.2-0.8,0.3s-0.6,0.1-1,0.1s-0.8,0-1.1-0.2c-0.3-0.1-0.6-0.2-0.9-0.4s-0.5-0.4-0.6-0.6
			c-0.2-0.2-0.3-0.5-0.3-0.8h2c0.1,0.3,0.4,0.5,0.9,0.5c0.4,0,0.7-0.1,0.9-0.3c0.2-0.2,0.3-0.5,0.3-0.9V250
			c-0.1,0.1-0.3,0.2-0.4,0.3s-0.2,0.2-0.4,0.2c-0.1,0.1-0.3,0.1-0.4,0.1s-0.3,0-0.5,0c-0.4,0-0.7-0.1-1-0.2
			c-0.3-0.1-0.6-0.3-0.8-0.5s-0.4-0.5-0.5-0.8s-0.2-0.7-0.2-1.1c0-0.4,0.1-0.8,0.2-1.1s0.3-0.6,0.5-0.9c0.2-0.2,0.5-0.4,0.8-0.6
			c0.3-0.1,0.7-0.2,1-0.2c0.6,0,1.1,0.2,1.5,0.7v-0.5h2V245.5z M351.1,248c0,0.2,0,0.3,0.1,0.5c0.1,0.1,0.1,0.3,0.2,0.4
			s0.2,0.2,0.4,0.2s0.3,0.1,0.5,0.1s0.3,0,0.5-0.1s0.3-0.1,0.4-0.2s0.2-0.2,0.2-0.4s0.1-0.3,0.1-0.5s0-0.3-0.1-0.5s-0.1-0.3-0.3-0.4
			s-0.2-0.2-0.4-0.2c-0.1-0.1-0.3-0.1-0.4-0.1c-0.2,0-0.3,0-0.5,0.1c-0.1,0.1-0.3,0.1-0.4,0.2c-0.1,0.1-0.2,0.2-0.3,0.4
			C351.1,247.7,351.1,247.8,351.1,248z"/>
	</g>
	<g class="st8">
		<path class="st9" d="M314.8,210h-1.6v-6h2.5c0.7,0,1.2,0.2,1.6,0.5c0.4,0.4,0.5,0.8,0.5,1.5c0,0.6-0.2,1.1-0.5,1.5
			c-0.4,0.4-0.9,0.5-1.6,0.5h-0.9V210z M314.8,206.7h0.5c0.6,0,0.9-0.3,0.9-0.8s-0.3-0.8-0.9-0.8h-0.5V206.7z"/>
		<path class="st9" d="M319.6,203.9l1,3.9l1.3-3.9h1.2l1.3,3.9l1-3.9h1.6l-1.8,6h-1.6l-1.2-3.5l-1.2,3.5h-1.6l-1.8-6H319.6z"/>
		<path class="st9" d="M332.8,210h-2l-1.5-2.3v2.3h-1.6v-6h2.4c0.3,0,0.6,0,0.9,0.1c0.2,0.1,0.5,0.2,0.6,0.4
			c0.2,0.2,0.3,0.4,0.4,0.6c0.1,0.2,0.1,0.5,0.1,0.7c0,0.5-0.1,0.8-0.3,1.1c-0.2,0.3-0.5,0.5-1,0.6L332.8,210z M329.4,206.6h0.3
			c0.3,0,0.5-0.1,0.7-0.2c0.2-0.1,0.2-0.3,0.2-0.6s-0.1-0.4-0.2-0.6c-0.2-0.1-0.4-0.2-0.7-0.2h-0.3V206.6z"/>
		<path class="st9" d="M341.2,210h-2l-1.5-2.3v2.3h-1.6v-6h2.4c0.3,0,0.6,0,0.9,0.1s0.5,0.2,0.6,0.4c0.2,0.2,0.3,0.4,0.4,0.6
			c0.1,0.2,0.1,0.5,0.1,0.7c0,0.5-0.1,0.8-0.3,1.1c-0.2,0.3-0.5,0.5-1,0.6L341.2,210z M337.8,206.6h0.3c0.3,0,0.5-0.1,0.7-0.2
			c0.2-0.1,0.2-0.3,0.2-0.6s-0.1-0.4-0.2-0.6c-0.2-0.1-0.4-0.2-0.7-0.2h-0.3V206.6z"/>
		<path class="st9" d="M345.2,205.5c-0.2-0.1-0.3-0.2-0.5-0.3s-0.3-0.1-0.5-0.1s-0.4,0-0.5,0.1s-0.2,0.2-0.2,0.4
			c0,0.1,0,0.2,0.1,0.3s0.1,0.1,0.3,0.2c0.1,0.1,0.2,0.1,0.4,0.1s0.3,0.1,0.4,0.1c0.5,0.2,0.9,0.4,1.1,0.7s0.4,0.7,0.4,1.1
			c0,0.3-0.1,0.6-0.2,0.8c-0.1,0.3-0.3,0.5-0.5,0.6c-0.2,0.2-0.4,0.3-0.7,0.4c-0.3,0.1-0.6,0.1-1,0.1c-0.8,0-1.5-0.2-2.1-0.7
			l0.7-1.3c0.2,0.2,0.5,0.4,0.7,0.5s0.5,0.2,0.7,0.2c0.3,0,0.4-0.1,0.6-0.2c0.1-0.1,0.2-0.3,0.2-0.4c0-0.1,0-0.2,0-0.2
			c0-0.1-0.1-0.1-0.2-0.2c-0.1-0.1-0.2-0.1-0.3-0.2c-0.1,0-0.3-0.1-0.4-0.2c-0.2-0.1-0.4-0.1-0.6-0.2c-0.2-0.1-0.4-0.2-0.5-0.3
			c-0.2-0.1-0.3-0.3-0.4-0.5s-0.1-0.4-0.1-0.7s0-0.6,0.1-0.8s0.2-0.5,0.4-0.6c0.2-0.2,0.4-0.3,0.7-0.4c0.3-0.1,0.5-0.1,0.9-0.1
			c0.3,0,0.6,0,0.9,0.1s0.6,0.2,0.9,0.4L345.2,205.5z"/>
		<path class="st9" d="M349.4,205.3v4.7h-1.6v-4.7h-1.3V204h4.1v1.3H349.4z"/>
	</g>
	<g class="st8">
		<path class="st9" d="M107.2,178.3c0-0.6,0.1-1.1,0.3-1.6s0.5-0.9,0.9-1.3c0.4-0.4,0.8-0.6,1.3-0.8c0.5-0.2,1.1-0.3,1.7-0.3
			c0.6,0,1.2,0.1,1.7,0.3s1,0.5,1.3,0.8c0.4,0.4,0.7,0.8,0.9,1.3s0.3,1,0.3,1.6c0,0.5-0.1,1-0.3,1.4c-0.2,0.4-0.4,0.8-0.7,1.2
			l1.3,1.3l-1.8,0.3l-0.7-0.7c-0.3,0.1-0.6,0.2-0.9,0.3c-0.3,0.1-0.7,0.1-1,0.1c-0.6,0-1.2-0.1-1.7-0.3s-0.9-0.5-1.3-0.8
			c-0.4-0.4-0.7-0.8-0.9-1.3C107.3,179.3,107.2,178.8,107.2,178.3z M109.2,178.3c0,0.3,0.1,0.6,0.2,0.8c0.1,0.3,0.3,0.5,0.5,0.7
			s0.4,0.3,0.7,0.4c0.3,0.1,0.5,0.2,0.8,0.2c0.2,0,0.3,0,0.5-0.1l-1.1-1.2l1.9-0.2l0.5,0.5c0.2-0.3,0.4-0.7,0.4-1.2
			c0-0.3-0.1-0.6-0.2-0.8c-0.1-0.3-0.3-0.5-0.5-0.7s-0.4-0.3-0.7-0.4c-0.3-0.1-0.5-0.2-0.8-0.2s-0.6,0.1-0.8,0.2
			c-0.3,0.1-0.5,0.2-0.7,0.4c-0.2,0.2-0.3,0.4-0.5,0.7C109.3,177.7,109.2,178,109.2,178.3z"/>
		<path class="st9" d="M118.4,176.9v2.9c0,0.6,0.3,1,0.9,1c0.6,0,0.9-0.3,0.9-1v-2.9h1.8v3.2c0,0.7-0.2,1.2-0.7,1.6
			c-0.5,0.4-1.1,0.5-2,0.5s-1.6-0.2-2-0.5c-0.5-0.3-0.7-0.9-0.7-1.6v-3.2H118.4z"/>
		<path class="st9" d="M127.3,176.9h1.8v5.1h-1.8v-0.5c-0.4,0.5-0.9,0.7-1.6,0.7c-0.4,0-0.7-0.1-1-0.2c-0.3-0.1-0.6-0.3-0.8-0.6
			c-0.2-0.2-0.4-0.5-0.5-0.9c-0.1-0.3-0.2-0.7-0.2-1.1c0-0.4,0.1-0.7,0.2-1s0.3-0.6,0.5-0.9c0.2-0.2,0.5-0.4,0.8-0.6
			c0.3-0.1,0.7-0.2,1-0.2c0.6,0,1.2,0.2,1.6,0.7V176.9z M125,179.4c0,0.2,0,0.3,0.1,0.5c0.1,0.1,0.1,0.3,0.2,0.4
			c0.1,0.1,0.2,0.2,0.4,0.2c0.1,0.1,0.3,0.1,0.5,0.1s0.3,0,0.5-0.1c0.1-0.1,0.3-0.1,0.4-0.2c0.1-0.1,0.2-0.2,0.2-0.4
			c0.1-0.1,0.1-0.3,0.1-0.4c0-0.2,0-0.3-0.1-0.5s-0.1-0.3-0.2-0.4c-0.1-0.1-0.2-0.2-0.4-0.2c-0.1-0.1-0.3-0.1-0.5-0.1
			s-0.3,0-0.5,0.1c-0.1,0.1-0.3,0.1-0.4,0.2c-0.1,0.1-0.2,0.2-0.2,0.4C125,179.1,125,179.3,125,179.4z"/>
		<path class="st9" d="M130.3,176.9h1.8v0.6c0.2-0.3,0.5-0.5,0.8-0.6c0.3-0.1,0.6-0.2,0.9-0.2c0.4,0,0.7,0.1,0.9,0.2
			c0.3,0.1,0.5,0.3,0.7,0.5c0.1,0.2,0.2,0.4,0.3,0.6s0.1,0.5,0.1,0.7v3.3H134v-2.6c0-0.3,0-0.5-0.1-0.6c0-0.2-0.1-0.3-0.2-0.4
			c-0.1-0.1-0.2-0.1-0.3-0.2c-0.1,0-0.2,0-0.3,0c-0.3,0-0.5,0.1-0.7,0.3s-0.2,0.4-0.2,0.8v2.7h-1.8L130.3,176.9L130.3,176.9z"/>
		<path class="st9" d="M139,178.4v3.6h-1.8v-3.6h-0.6v-1.5h0.6v-1.5h1.8v1.5h1v1.5H139z"/>
		<path class="st9" d="M142.5,176.9v2.9c0,0.6,0.3,1,0.9,1s0.9-0.3,0.9-1v-2.9h1.8v3.2c0,0.7-0.2,1.2-0.7,1.6
			c-0.5,0.3-1.1,0.5-2,0.5s-1.6-0.2-2-0.5c-0.5-0.3-0.7-0.9-0.7-1.6v-3.2H142.5z"/>
		<path class="st9" d="M147.4,176.9h1.8v0.6c0.5-0.5,1-0.7,1.7-0.7c0.8,0,1.3,0.3,1.7,1c0.4-0.6,1-1,1.7-1c0.2,0,0.5,0,0.7,0.1
			c0.2,0.1,0.4,0.2,0.5,0.3c0.2,0.2,0.3,0.3,0.4,0.6c0.1,0.3,0.1,0.5,0.1,0.9v3.3h-1.8v-2.5c0-0.3,0-0.5-0.1-0.6
			c0-0.2-0.1-0.3-0.2-0.4c-0.1-0.1-0.2-0.2-0.2-0.2c-0.1,0-0.2,0-0.3,0c-0.6,0-0.9,0.4-0.9,1.3v2.5h-1.8v-2.6c0-0.3,0-0.5,0-0.6
			c0-0.1-0.1-0.3-0.1-0.4c-0.1-0.1-0.1-0.2-0.2-0.2c-0.1,0-0.2-0.1-0.4-0.1c-0.1,0-0.2,0-0.3,0s-0.2,0.1-0.3,0.2
			c-0.1,0.1-0.1,0.2-0.2,0.4c0,0.2-0.1,0.4-0.1,0.7v2.5h-1.7V176.9z"/>
	</g>
	<g class="st8">
		<path class="st9" d="M118.2,186.5h2.9c0.5,0,1,0.1,1.4,0.3c0.5,0.2,0.8,0.5,1.2,0.8c0.3,0.3,0.6,0.7,0.8,1.2s0.3,0.9,0.3,1.4
			s-0.1,1-0.3,1.4c-0.2,0.5-0.5,0.9-0.8,1.2s-0.7,0.6-1.2,0.8s-0.9,0.3-1.5,0.3h-2.9v-7.4H118.2z M120.2,192.4h0.5
			c0.3,0,0.6-0.1,0.9-0.2c0.3-0.1,0.5-0.3,0.7-0.4c0.2-0.2,0.3-0.4,0.4-0.7s0.1-0.5,0.1-0.8s-0.1-0.6-0.1-0.8
			c-0.1-0.3-0.2-0.5-0.4-0.7s-0.4-0.3-0.7-0.4s-0.6-0.2-0.9-0.2h-0.5V192.4z"/>
		<path class="st9" d="M125.9,188.9h1.8v0.8c0.2-0.3,0.4-0.5,0.7-0.7s0.6-0.2,1-0.2c0,0,0.1,0,0.2,0s0.1,0,0.2,0v1.7
			c-0.2-0.1-0.5-0.2-0.8-0.2c-0.4,0-0.7,0.1-0.9,0.4s-0.3,0.6-0.3,1.1v2.2H126L125.9,188.9L125.9,188.9z"/>
		<path class="st9" d="M130.5,186.9c0-0.1,0-0.3,0.1-0.4c0.1-0.1,0.1-0.2,0.2-0.3c0.1-0.1,0.2-0.2,0.3-0.2c0.1-0.1,0.3-0.1,0.4-0.1
			s0.3,0,0.4,0.1c0.1,0.1,0.2,0.1,0.3,0.2c0.1,0.1,0.2,0.2,0.2,0.3c0.1,0.1,0.1,0.3,0.1,0.4c0,0.1,0,0.3-0.1,0.4s-0.1,0.2-0.2,0.3
			c-0.1,0.1-0.2,0.2-0.3,0.2c-0.1,0.1-0.3,0.1-0.4,0.1s-0.3,0-0.4-0.1c-0.1-0.1-0.2-0.1-0.3-0.2s-0.2-0.2-0.2-0.3
			C130.5,187.2,130.5,187.1,130.5,186.9z M132.4,188.9v5.1h-1.8v-5.1H132.4z"/>
		<path class="st9" d="M135.1,188.9l1.2,2.6l1.2-2.6h2l-2.7,5.1h-1.2l-2.6-5.1H135.1z"/>
		<path class="st9" d="M141.6,191.8c0,0.8,0.4,1.2,1.1,1.2c0.4,0,0.7-0.2,0.9-0.5h1.8c-0.4,1.2-1.2,1.8-2.7,1.8
			c-0.4,0-0.8-0.1-1.2-0.2c-0.4-0.1-0.7-0.3-0.9-0.6c-0.3-0.2-0.5-0.5-0.6-0.9c-0.1-0.3-0.2-0.7-0.2-1.1c0-0.4,0.1-0.8,0.2-1.2
			c0.1-0.3,0.3-0.6,0.6-0.9c0.2-0.2,0.5-0.4,0.9-0.6c0.3-0.1,0.7-0.2,1.2-0.2c0.4,0,0.8,0.1,1.2,0.2c0.3,0.1,0.6,0.3,0.9,0.6
			c0.2,0.2,0.4,0.5,0.6,0.9c0.1,0.4,0.2,0.8,0.2,1.2v0.2h-4V191.8z M143.8,190.7c-0.1-0.3-0.2-0.5-0.4-0.6c-0.2-0.2-0.4-0.2-0.7-0.2
			s-0.5,0.1-0.7,0.2c-0.2,0.1-0.3,0.4-0.3,0.6H143.8z"/>
	</g>
	<g class="st8">
		<path d="M45.8,25.4v5.9h2.4V33h-4.3v-7.5h1.9C45.8,25.5,45.8,25.4,45.8,25.4z"/>
		<path d="M53,27.8h1.8V33H53v-0.6c-0.4,0.5-0.9,0.7-1.6,0.7c-0.4,0-0.7-0.1-1-0.2s-0.6-0.3-0.8-0.6c-0.2-0.2-0.4-0.5-0.5-0.9
			c-0.1-0.3-0.2-0.7-0.2-1.1s0.1-0.7,0.2-1s0.3-0.6,0.5-0.9c0.2-0.2,0.5-0.4,0.8-0.6c0.3-0.1,0.7-0.2,1-0.2c0.6,0,1.2,0.2,1.6,0.7
			V27.8z M50.7,30.4c0,0.2,0,0.3,0.1,0.5c0.1,0.1,0.1,0.3,0.2,0.4c0.1,0.1,0.2,0.2,0.4,0.2c0.1,0.1,0.3,0.1,0.5,0.1s0.3,0,0.5-0.1
			c0.1-0.1,0.3-0.1,0.4-0.2c0.1-0.1,0.2-0.2,0.2-0.4c0.1-0.1,0.1-0.3,0.1-0.4c0-0.2,0-0.3-0.1-0.5s-0.1-0.3-0.2-0.4
			s-0.2-0.2-0.4-0.2c-0.1-0.1-0.3-0.1-0.5-0.1s-0.3,0-0.5,0.1c-0.1,0.1-0.3,0.1-0.4,0.2c-0.1,0.1-0.2,0.2-0.2,0.4
			C50.7,30.1,50.7,30.2,50.7,30.4z"/>
		<path d="M56,27.8h1.8v0.6c0.2-0.3,0.5-0.5,0.8-0.6s0.5-0.2,0.9-0.2s0.7,0.1,0.9,0.2c0.3,0.1,0.5,0.3,0.7,0.5
			c0.1,0.2,0.2,0.4,0.3,0.6s0.1,0.5,0.1,0.7V33h-1.8v-2.6c0-0.3,0-0.5-0.1-0.6c0-0.2-0.1-0.3-0.2-0.4c-0.1-0.1-0.2-0.1-0.3-0.2
			c-0.1,0-0.2,0-0.3,0c-0.3,0-0.5,0.1-0.7,0.3c-0.2,0.2-0.2,0.4-0.2,0.8V33H56V27.8z"/>
		<path d="M66.6,24.7h1.8V33h-1.8v-0.6c-0.4,0.5-0.9,0.7-1.6,0.7c-0.4,0-0.7-0.1-1-0.2c-0.3-0.1-0.6-0.3-0.8-0.6
			c-0.2-0.2-0.4-0.5-0.5-0.9c-0.1-0.3-0.2-0.7-0.2-1.1s0.1-0.7,0.2-1s0.3-0.6,0.5-0.9c0.2-0.2,0.5-0.4,0.8-0.6
			c0.3-0.1,0.7-0.2,1-0.2c0.6,0,1.2,0.2,1.6,0.7V24.7z M64.3,30.4c0,0.2,0,0.3,0.1,0.5c0.1,0.1,0.1,0.3,0.2,0.4s0.2,0.2,0.4,0.2
			c0.1,0.1,0.3,0.1,0.5,0.1s0.3,0,0.5-0.1c0.1-0.1,0.3-0.1,0.4-0.2s0.2-0.2,0.2-0.4c0.1-0.1,0.1-0.3,0.1-0.4c0-0.2,0-0.3-0.1-0.5
			s-0.1-0.3-0.2-0.4s-0.2-0.2-0.4-0.2c-0.1-0.1-0.3-0.1-0.5-0.1s-0.3,0-0.5,0.1c-0.1,0.1-0.3,0.1-0.4,0.2s-0.2,0.2-0.2,0.4
			C64.4,30.1,64.3,30.2,64.3,30.4z"/>
		<path d="M69.5,25.9c0-0.1,0-0.3,0.1-0.4s0.1-0.2,0.2-0.3c0.1-0.1,0.2-0.2,0.3-0.2s0.3-0.1,0.4-0.1s0.3,0,0.4,0.1s0.2,0.1,0.3,0.2
			c0.1,0.1,0.2,0.2,0.2,0.3c0.1,0.1,0.1,0.3,0.1,0.4s0,0.3-0.1,0.4s-0.1,0.2-0.2,0.3c-0.1,0.1-0.2,0.2-0.3,0.2
			c-0.1,0.1-0.3,0.1-0.4,0.1s-0.3,0-0.4-0.1s-0.2-0.1-0.3-0.2c-0.1-0.1-0.2-0.2-0.2-0.3C69.6,26.1,69.5,26,69.5,25.9z M71.5,27.8V33
			h-1.8v-5.1h1.8V27.8z"/>
		<path d="M72.7,27.8h1.8v0.6c0.2-0.3,0.5-0.5,0.8-0.6s0.6-0.2,0.9-0.2c0.4,0,0.7,0.1,0.9,0.2c0.3,0.1,0.5,0.3,0.7,0.5
			c0.1,0.2,0.2,0.4,0.3,0.6c0.1,0.2,0.1,0.5,0.1,0.7V33h-1.8v-2.6c0-0.3,0-0.5-0.1-0.6c0-0.2-0.1-0.3-0.2-0.4s-0.2-0.1-0.3-0.2
			c-0.1,0-0.2,0-0.3,0c-0.3,0-0.5,0.1-0.7,0.3c-0.2,0.2-0.2,0.4-0.2,0.8V33h-1.8v-5.2H72.7z"/>
		<path d="M85.1,27.8v4.8c0,0.3,0,0.5-0.1,0.8c0,0.2-0.1,0.4-0.1,0.6c-0.1,0.2-0.2,0.4-0.4,0.6c-0.2,0.2-0.4,0.4-0.6,0.5
			s-0.5,0.2-0.8,0.3s-0.6,0.1-1,0.1s-0.8,0-1.1-0.2c-0.3-0.1-0.6-0.2-0.9-0.4s-0.5-0.4-0.6-0.6c-0.2-0.2-0.3-0.5-0.3-0.8h2
			c0.1,0.3,0.4,0.5,0.9,0.5c0.4,0,0.7-0.1,0.9-0.3c0.2-0.2,0.3-0.5,0.3-0.9v-0.5c-0.1,0.1-0.3,0.2-0.4,0.3s-0.2,0.2-0.4,0.2
			C82.4,33,82.3,33,82.1,33c-0.1,0-0.3,0-0.5,0c-0.4,0-0.7-0.1-1-0.2c-0.3-0.1-0.6-0.3-0.8-0.5s-0.4-0.5-0.5-0.8s-0.2-0.7-0.2-1.1
			s0.1-0.8,0.2-1.1c0.1-0.3,0.3-0.6,0.5-0.9c0.2-0.2,0.5-0.4,0.8-0.6c0.3-0.1,0.7-0.2,1-0.2c0.6,0,1.1,0.2,1.5,0.7v-0.5H85.1z
			 M81,30.4c0,0.2,0,0.3,0.1,0.5c0.1,0.1,0.1,0.3,0.2,0.4s0.2,0.2,0.4,0.2s0.3,0.1,0.5,0.1s0.3,0,0.5-0.1s0.3-0.1,0.4-0.2
			s0.2-0.2,0.2-0.4s0.1-0.3,0.1-0.5s0-0.3-0.1-0.5s-0.1-0.3-0.3-0.4s-0.2-0.2-0.4-0.2c-0.1-0.1-0.3-0.1-0.4-0.1
			c-0.2,0-0.3,0-0.5,0.1c-0.1,0.1-0.3,0.1-0.4,0.2s-0.2,0.2-0.3,0.4C81.1,30.1,81,30.2,81,30.4z"/>
	</g>
	<g class="st8">
		<path class="st9" d="M169.7,112.2h-2v-7.5h3.1c0.8,0,1.5,0.2,1.9,0.7c0.5,0.4,0.7,1.1,0.7,1.9s-0.2,1.4-0.7,1.9
			c-0.5,0.4-1.1,0.7-1.9,0.7h-1.2L169.7,112.2L169.7,112.2z M169.7,108.2h0.6c0.7,0,1.1-0.3,1.1-0.9c0-0.6-0.4-0.9-1.1-0.9h-0.6
			V108.2z"/>
		<path class="st9" d="M174,109.6c0-0.4,0.1-0.7,0.2-1.1c0.1-0.4,0.4-0.6,0.6-0.9s0.6-0.4,1-0.6c0.4-0.1,0.8-0.2,1.2-0.2
			s0.8,0.1,1.2,0.2c0.4,0.1,0.7,0.3,1,0.6c0.3,0.2,0.5,0.5,0.6,0.9c0.1,0.4,0.2,0.7,0.2,1.1c0,0.4-0.1,0.8-0.2,1.1
			c-0.2,0.3-0.4,0.6-0.6,0.9c-0.3,0.2-0.6,0.4-1,0.6c-0.4,0.1-0.8,0.2-1.2,0.2s-0.8-0.1-1.2-0.2c-0.4-0.1-0.7-0.3-1-0.6
			c-0.3-0.2-0.5-0.5-0.6-0.9C174.1,110.3,174,110,174,109.6z M175.9,109.6c0,0.2,0,0.3,0.1,0.5c0.1,0.1,0.1,0.3,0.2,0.4
			c0.1,0.1,0.2,0.2,0.4,0.2c0.1,0.1,0.3,0.1,0.5,0.1s0.3,0,0.5-0.1c0.1-0.1,0.3-0.1,0.4-0.2c0.1-0.1,0.2-0.2,0.2-0.4
			c0.1-0.1,0.1-0.3,0.1-0.5c0-0.2,0-0.3-0.1-0.5c-0.1-0.1-0.1-0.3-0.2-0.4c-0.1-0.1-0.2-0.2-0.4-0.2c-0.1-0.1-0.3-0.1-0.5-0.1
			s-0.3,0-0.5,0.1c-0.1,0.1-0.3,0.1-0.4,0.2c-0.1,0.1-0.2,0.2-0.2,0.4C176,109.3,175.9,109.5,175.9,109.6z"/>
		<path class="st9" d="M182.3,107.1l1.2,2.7l1.3-2.7h1.1l1.3,2.8l1.3-2.8h2l-2.7,5.1h-1.2l-1.3-2.8l-1.2,2.8h-1.2l-2.6-5.1H182.3z"
			/>
		<path class="st9" d="M192.6,110c0,0.8,0.4,1.2,1.1,1.2c0.4,0,0.7-0.2,0.9-0.5h1.8c-0.4,1.2-1.2,1.8-2.7,1.8
			c-0.4,0-0.8-0.1-1.2-0.2c-0.4-0.1-0.7-0.3-0.9-0.6c-0.3-0.2-0.5-0.5-0.6-0.9c-0.1-0.3-0.2-0.7-0.2-1.1c0-0.4,0.1-0.8,0.2-1.2
			c0.1-0.3,0.3-0.6,0.6-0.9c0.2-0.2,0.5-0.4,0.9-0.6s0.7-0.2,1.2-0.2c0.4,0,0.8,0.1,1.2,0.2c0.3,0.1,0.6,0.3,0.9,0.6
			c0.2,0.2,0.4,0.5,0.5,0.9s0.2,0.8,0.2,1.2v0.2L192.6,110L192.6,110z M194.7,108.9c-0.1-0.3-0.2-0.5-0.4-0.6s-0.4-0.2-0.7-0.2
			s-0.5,0.1-0.7,0.2s-0.3,0.4-0.3,0.6H194.7z"/>
		<path class="st9" d="M197.4,107.1h1.8v0.8c0.2-0.3,0.4-0.5,0.7-0.7c0.3-0.2,0.6-0.2,1-0.2c0,0,0.1,0,0.2,0s0.1,0,0.2,0v1.7
			c-0.2-0.1-0.5-0.2-0.8-0.2c-0.4,0-0.7,0.1-0.9,0.4s-0.3,0.6-0.3,1.1v2.2h-1.8L197.4,107.1L197.4,107.1z"/>
	</g>
	<g class="st8">
		<path class="st9" d="M234,106.4h-2.3v1.3h2.2v1.7h-2.2v1.3h2.3v1.7h-4.3v-7.5h4.3V106.4z"/>
		<path class="st9" d="M235.2,107.1h1.8v0.6c0.2-0.3,0.5-0.5,0.8-0.6c0.3-0.1,0.5-0.2,0.9-0.2s0.7,0.1,0.9,0.2
			c0.3,0.1,0.5,0.3,0.7,0.5c0.1,0.2,0.2,0.4,0.3,0.6c0.1,0.2,0.1,0.5,0.1,0.7v3.3h-1.8v-2.6c0-0.3,0-0.5-0.1-0.6
			c0-0.2-0.1-0.3-0.2-0.4c-0.1-0.1-0.2-0.1-0.3-0.2c-0.1,0-0.2,0-0.3,0c-0.3,0-0.5,0.1-0.7,0.3c-0.2,0.2-0.2,0.4-0.2,0.8v2.7h-1.8
			L235.2,107.1L235.2,107.1z"/>
		<path class="st9" d="M247.6,107.1v4.8c0,0.3,0,0.5,0,0.8c0,0.2-0.1,0.4-0.1,0.6c-0.1,0.2-0.2,0.4-0.4,0.6
			c-0.2,0.2-0.4,0.4-0.6,0.5c-0.2,0.1-0.5,0.2-0.8,0.3s-0.6,0.1-1,0.1s-0.8,0-1.1-0.2c-0.3-0.1-0.6-0.2-0.9-0.4
			c-0.3-0.2-0.5-0.4-0.6-0.6c-0.2-0.2-0.3-0.5-0.3-0.8h2c0.1,0.3,0.4,0.5,0.9,0.5c0.4,0,0.7-0.1,0.9-0.3c0.2-0.2,0.3-0.5,0.3-0.9
			v-0.5c-0.1,0.1-0.3,0.2-0.4,0.3s-0.2,0.2-0.4,0.2c-0.1,0.1-0.3,0.1-0.4,0.1c-0.1,0-0.3,0-0.5,0c-0.4,0-0.7-0.1-1-0.2
			s-0.6-0.3-0.8-0.5s-0.4-0.5-0.5-0.8c-0.1-0.3-0.2-0.7-0.2-1.1c0-0.4,0.1-0.8,0.2-1.1c0.1-0.3,0.3-0.6,0.5-0.9
			c0.2-0.2,0.5-0.4,0.8-0.6s0.7-0.2,1-0.2c0.6,0,1.1,0.2,1.5,0.7V107h1.9L247.6,107.1L247.6,107.1z M243.6,109.6
			c0,0.2,0,0.3,0.1,0.5c0.1,0.1,0.1,0.3,0.2,0.4c0.1,0.1,0.2,0.2,0.4,0.2s0.3,0.1,0.5,0.1s0.3,0,0.5-0.1c0.1-0.1,0.3-0.1,0.4-0.2
			c0.1-0.1,0.2-0.2,0.2-0.4c0-0.2,0.1-0.3,0.1-0.5c0-0.2,0-0.3-0.1-0.5c-0.1-0.2-0.1-0.3-0.3-0.4c-0.2-0.1-0.2-0.2-0.4-0.2
			c-0.1-0.1-0.3-0.1-0.4-0.1c-0.2,0-0.3,0-0.5,0.1c-0.1,0.1-0.3,0.1-0.4,0.2c-0.1,0.1-0.2,0.2-0.3,0.4
			C243.5,109.3,243.6,109.5,243.6,109.6z"/>
		<path class="st9" d="M248.7,105.1c0-0.1,0-0.3,0.1-0.4c0.1-0.1,0.1-0.2,0.2-0.3c0.1-0.1,0.2-0.2,0.3-0.2s0.3-0.1,0.4-0.1
			c0.1,0,0.3,0,0.4,0.1c0.1,0.1,0.2,0.1,0.3,0.2s0.2,0.2,0.2,0.3c0.1,0.1,0.1,0.3,0.1,0.4c0,0.1,0,0.3-0.1,0.4
			c-0.1,0.1-0.1,0.2-0.2,0.3s-0.2,0.2-0.3,0.2c-0.1,0.1-0.3,0.1-0.4,0.1c-0.1,0-0.3,0-0.4-0.1c-0.1-0.1-0.2-0.1-0.3-0.2
			c-0.1-0.1-0.2-0.2-0.2-0.3C248.8,105.4,248.7,105.3,248.7,105.1z M250.7,107.1v5.1h-1.8v-5.1H250.7z"/>
		<path class="st9" d="M251.9,107.1h1.8v0.6c0.2-0.3,0.5-0.5,0.8-0.6c0.3-0.1,0.6-0.2,0.9-0.2c0.4,0,0.7,0.1,0.9,0.2
			c0.3,0.1,0.5,0.3,0.7,0.5c0.1,0.2,0.2,0.4,0.3,0.6c0.1,0.2,0.1,0.5,0.1,0.7v3.3h-1.8v-2.6c0-0.3,0-0.5-0.1-0.6
			c0-0.2-0.1-0.3-0.2-0.4c-0.1-0.1-0.2-0.1-0.3-0.2c-0.1,0-0.2,0-0.3,0c-0.3,0-0.5,0.1-0.7,0.3c-0.2,0.2-0.2,0.4-0.2,0.8v2.7H252
			L251.9,107.1L251.9,107.1z"/>
		<path class="st9" d="M260.2,110c0,0.8,0.4,1.2,1.1,1.2c0.4,0,0.7-0.2,0.9-0.5h1.8c-0.4,1.2-1.2,1.8-2.7,1.8
			c-0.4,0-0.8-0.1-1.2-0.2c-0.4-0.1-0.7-0.3-0.9-0.6c-0.3-0.2-0.5-0.5-0.6-0.9c-0.1-0.4-0.2-0.7-0.2-1.1c0-0.4,0.1-0.8,0.2-1.2
			c0.1-0.3,0.3-0.6,0.6-0.9c0.2-0.2,0.5-0.4,0.9-0.6s0.7-0.2,1.2-0.2c0.4,0,0.8,0.1,1.2,0.2c0.3,0.1,0.6,0.3,0.9,0.6
			c0.2,0.2,0.4,0.5,0.5,0.9s0.2,0.8,0.2,1.2v0.2L260.2,110L260.2,110z M262.3,108.9c-0.1-0.3-0.2-0.5-0.4-0.6s-0.4-0.2-0.7-0.2
			c-0.3,0-0.5,0.1-0.7,0.2s-0.3,0.4-0.3,0.6H262.3z"/>
		<path class="st9" d="M268.4,108.4c-0.3-0.2-0.7-0.3-1-0.3c-0.2,0-0.3,0-0.4,0.1c-0.1,0.1-0.2,0.2-0.2,0.3s0,0.1,0,0.1l0.1,0.1
			c0,0,0.1,0.1,0.2,0.1s0.3,0.1,0.4,0.1c0.5,0.1,0.9,0.3,1.1,0.5c0.2,0.3,0.4,0.6,0.4,1c0,0.3-0.1,0.6-0.2,0.8
			c-0.1,0.2-0.3,0.4-0.5,0.6c-0.2,0.2-0.5,0.3-0.8,0.4c-0.3,0.1-0.6,0.1-1,0.1c-0.7,0-1.4-0.2-2-0.6l0.7-1.3c0.5,0.3,1,0.5,1.4,0.5
			c0.2,0,0.3,0,0.4-0.1s0.2-0.2,0.2-0.3c0-0.1,0-0.1,0-0.2s-0.1-0.1-0.1-0.1c-0.1,0-0.1-0.1-0.2-0.1s-0.2-0.1-0.4-0.1
			c-0.6-0.1-1-0.3-1.2-0.5s-0.3-0.5-0.3-0.9c0-0.3,0.1-0.5,0.2-0.8c0.1-0.2,0.3-0.4,0.5-0.6s0.4-0.3,0.7-0.4
			c0.3-0.1,0.6-0.1,0.9-0.1c0.6,0,1.1,0.1,1.6,0.3L268.4,108.4z"/>
	</g>
	<g class="st8">
		<path class="st9" d="M299.9,106.6c-0.2-0.2-0.4-0.3-0.6-0.4c-0.2-0.1-0.4-0.1-0.6-0.1c-0.3,0-0.5,0.1-0.6,0.2
			c-0.2,0.1-0.2,0.3-0.2,0.5c0,0.1,0,0.2,0.1,0.3c0.1,0.1,0.2,0.2,0.3,0.2s0.3,0.1,0.4,0.2c0.1,0.1,0.3,0.1,0.5,0.2
			c0.6,0.2,1.1,0.5,1.4,0.9s0.4,0.8,0.4,1.4c0,0.4-0.1,0.7-0.2,1s-0.3,0.6-0.6,0.8c-0.3,0.2-0.6,0.4-0.9,0.5
			c-0.4,0.1-0.8,0.2-1.2,0.2c-1,0-1.8-0.3-2.6-0.8l0.8-1.6c0.3,0.3,0.6,0.5,0.9,0.6c0.3,0.1,0.6,0.2,0.8,0.2c0.3,0,0.6-0.1,0.7-0.2
			c0.1-0.1,0.2-0.3,0.2-0.5c0-0.1,0-0.2-0.1-0.3s-0.1-0.2-0.2-0.2c-0.1-0.1-0.2-0.1-0.4-0.2c-0.2-0.1-0.3-0.1-0.5-0.2
			c-0.3-0.1-0.5-0.2-0.7-0.3s-0.5-0.2-0.7-0.4s-0.3-0.4-0.5-0.6c-0.1-0.2-0.2-0.6-0.2-0.9c0-0.4,0.1-0.7,0.2-1s0.3-0.6,0.5-0.8
			c0.2-0.2,0.5-0.4,0.8-0.5c0.3-0.1,0.7-0.2,1.1-0.2s0.8,0.1,1.2,0.2c0.4,0.1,0.8,0.3,1.2,0.5L299.9,106.6z"/>
		<path class="st9" d="M302.1,103.9h1.8v3.8c0.2-0.3,0.5-0.5,0.8-0.6c0.3-0.1,0.5-0.2,0.9-0.2c0.6,0,1.1,0.2,1.5,0.5
			s0.5,0.8,0.5,1.4v3.3h-1.8v-2.6c0-0.3,0-0.5-0.1-0.6c-0.1-0.1-0.1-0.3-0.2-0.4c-0.2-0.1-0.4-0.2-0.6-0.2c-0.3,0-0.5,0.1-0.7,0.3
			c-0.2,0.2-0.2,0.4-0.2,0.8v2.7h-1.8L302.1,103.9L302.1,103.9z"/>
		<path class="st9" d="M308.6,105.1c0-0.1,0-0.3,0.1-0.4c0.1-0.1,0.1-0.2,0.2-0.3s0.2-0.2,0.3-0.2c0.1-0.1,0.3-0.1,0.4-0.1
			s0.3,0,0.4,0.1c0.1,0.1,0.2,0.1,0.3,0.2c0.1,0.1,0.2,0.2,0.2,0.3c0.1,0.1,0.1,0.3,0.1,0.4c0,0.1,0,0.3-0.1,0.4
			c-0.1,0.1-0.1,0.2-0.2,0.3s-0.2,0.2-0.3,0.2c-0.1,0.1-0.3,0.1-0.4,0.1s-0.3,0-0.4-0.1c-0.1-0.1-0.2-0.1-0.3-0.2
			c-0.1-0.1-0.2-0.2-0.2-0.3C308.6,105.4,308.6,105.3,308.6,105.1z M310.5,107.1v5.1h-1.8v-5.1H310.5z"/>
		<path class="st9" d="M313.4,110c0,0.8,0.4,1.2,1.1,1.2c0.4,0,0.7-0.2,0.9-0.5h1.8c-0.4,1.2-1.2,1.8-2.7,1.8
			c-0.4,0-0.8-0.1-1.2-0.2c-0.4-0.1-0.7-0.3-0.9-0.6c-0.3-0.2-0.5-0.5-0.6-0.9c-0.1-0.3-0.2-0.7-0.2-1.1c0-0.4,0.1-0.8,0.2-1.2
			c0.1-0.3,0.3-0.6,0.6-0.9c0.2-0.2,0.5-0.4,0.9-0.6c0.4-0.1,0.7-0.2,1.2-0.2c0.4,0,0.8,0.1,1.2,0.2s0.6,0.3,0.9,0.6
			c0.2,0.2,0.4,0.5,0.5,0.9s0.2,0.8,0.2,1.2v0.2L313.4,110L313.4,110z M315.5,108.9c-0.1-0.3-0.2-0.5-0.4-0.6s-0.4-0.2-0.7-0.2
			c-0.3,0-0.5,0.1-0.7,0.2c-0.2,0.1-0.3,0.4-0.3,0.6H315.5z"/>
		<path class="st9" d="M320.1,103.9v8.3h-1.8v-8.3H320.1z"/>
		<path class="st9" d="M325.3,103.9h1.8v8.3h-1.8v-0.6c-0.4,0.5-0.9,0.7-1.6,0.7c-0.4,0-0.7-0.1-1-0.2c-0.3-0.1-0.6-0.3-0.8-0.6
			c-0.2-0.3-0.4-0.5-0.5-0.9c-0.1-0.4-0.2-0.7-0.2-1.1c0-0.4,0.1-0.7,0.2-1c0.1-0.3,0.3-0.6,0.5-0.9c0.2-0.2,0.5-0.4,0.8-0.6
			c0.3-0.1,0.7-0.2,1-0.2c0.6,0,1.2,0.2,1.6,0.7V103.9z M323,109.7c0,0.2,0,0.3,0.1,0.5c0.1,0.1,0.1,0.3,0.2,0.4
			c0.1,0.1,0.2,0.2,0.4,0.2c0.1,0.1,0.3,0.1,0.5,0.1s0.3,0,0.5-0.1c0.1-0.1,0.3-0.1,0.4-0.2c0.1-0.1,0.2-0.2,0.2-0.4
			c0.1-0.1,0.1-0.3,0.1-0.4c0-0.2,0-0.3-0.1-0.5c-0.1-0.2-0.1-0.3-0.2-0.4c-0.1-0.1-0.2-0.2-0.4-0.2c-0.1-0.1-0.3-0.1-0.5-0.1
			s-0.3,0-0.5,0.1c-0.1,0.1-0.3,0.1-0.4,0.2c-0.1,0.1-0.2,0.2-0.2,0.4C323,109.3,323,109.5,323,109.7z"/>
		<path class="st9" d="M331.7,108.4c-0.3-0.2-0.7-0.3-1-0.3c-0.2,0-0.3,0-0.4,0.1c-0.1,0.1-0.2,0.2-0.2,0.3s0,0.1,0,0.1l0.1,0.1
			c0,0,0.1,0.1,0.2,0.1s0.3,0.1,0.4,0.1c0.5,0.1,0.9,0.3,1.1,0.5c0.2,0.3,0.4,0.6,0.4,1c0,0.3-0.1,0.6-0.2,0.8
			c-0.1,0.2-0.3,0.4-0.5,0.6c-0.2,0.2-0.5,0.3-0.8,0.4c-0.3,0.1-0.6,0.1-1,0.1c-0.7,0-1.4-0.2-2-0.6l0.7-1.3c0.5,0.3,1,0.5,1.4,0.5
			c0.2,0,0.3,0,0.4-0.1s0.2-0.2,0.2-0.3c0-0.1,0-0.1,0-0.2s-0.1-0.1-0.1-0.1c-0.1,0-0.1-0.1-0.2-0.1s-0.2-0.1-0.4-0.1
			c-0.6-0.1-1-0.3-1.2-0.5s-0.3-0.5-0.3-0.9c0-0.3,0.1-0.5,0.2-0.8c0.1-0.2,0.3-0.4,0.5-0.6s0.4-0.3,0.7-0.4
			c0.3-0.1,0.6-0.1,0.9-0.1c0.6,0,1.1,0.1,1.6,0.3L331.7,108.4z"/>
	</g>
</g>
<g id="Expanded_Text">
	<g id="Text_00000037661929123549871870000011356614697002408599_">
		<g class="st10">
			<path class="st9" d="M185.2,267.5c0.4,0.3,0.9,0.7,1.5,0.7c0.4,0,0.6-0.1,0.7-0.2c0.1-0.1,0.2-0.2,0.2-0.4c0-0.1-0.1-0.3-0.2-0.4
				c-0.2-0.1-0.4-0.2-0.9-0.3l-0.4-0.1c-0.3-0.1-0.7-0.2-1-0.5c-0.3-0.4-0.4-0.8-0.4-1.2c0-0.8,0.3-1.3,0.6-1.6
				c0.3-0.3,0.9-0.6,1.7-0.6c0.7,0,1.4,0.2,2.1,0.5l-0.7,1.3c-0.5-0.4-0.9-0.4-1.1-0.4c-0.2,0-0.4,0-0.6,0.2
				c-0.1,0.1-0.2,0.2-0.2,0.4c0,0.1,0,0.2,0.1,0.3c0.1,0.1,0.2,0.2,0.6,0.3l0.5,0.2c0.4,0.1,0.9,0.3,1.2,0.7
				c0.3,0.4,0.4,0.7,0.4,1.2c0,0.6-0.1,1.2-0.6,1.7c-0.6,0.6-1.3,0.7-2,0.7c-0.4,0-0.8,0-1.3-0.2c-0.1,0-0.5-0.2-1-0.5L185.2,267.5z
				"/>
			<path class="st9" d="M192.2,267.3v2.2h-1.7v-6.7h2.8c0.6,0,1.2,0.1,1.7,0.6c0.5,0.5,0.6,1.1,0.6,1.6c0,0.5-0.1,1.1-0.6,1.7
				c-0.5,0.5-1.1,0.6-1.7,0.6H192.2z M192.2,265.9h0.6c0.2,0,0.5,0,0.7-0.2c0.2-0.2,0.2-0.4,0.2-0.6c0-0.2,0-0.4-0.2-0.6
				c-0.2-0.2-0.5-0.2-0.7-0.2h-0.6V265.9z"/>
			<path class="st9" d="M202.4,268.7c-0.7,0.7-1.6,1-2.6,1c-1,0-1.9-0.3-2.6-1c-0.7-0.7-1-1.6-1-2.5c0-0.9,0.3-1.8,1-2.5
				c0.7-0.6,1.6-1,2.6-1c1,0,1.9,0.3,2.6,1c0.7,0.7,1,1.6,1,2.5C203.5,267,203.2,268,202.4,268.7z M198.5,264.9
				c-0.4,0.3-0.5,0.8-0.5,1.3c0,0.6,0.3,1,0.5,1.2c0.3,0.3,0.8,0.5,1.3,0.5c0.6,0,1-0.2,1.3-0.5c0.3-0.3,0.5-0.8,0.5-1.3
				c0-0.5-0.2-1-0.5-1.3c-0.4-0.3-0.9-0.5-1.3-0.5C199.3,264.4,198.8,264.5,198.5,264.9z"/>
			<path class="st9" d="M210.6,268.7c-0.7,0.7-1.6,1-2.6,1c-1,0-1.9-0.3-2.6-1c-0.7-0.7-1-1.6-1-2.5c0-0.9,0.3-1.8,1-2.5
				c0.7-0.6,1.6-1,2.6-1c1,0,1.9,0.3,2.6,1c0.7,0.7,1,1.6,1,2.5C211.7,267,211.3,268,210.6,268.7z M206.6,264.9
				c-0.4,0.3-0.5,0.8-0.5,1.3c0,0.6,0.3,1,0.5,1.2c0.3,0.3,0.8,0.5,1.3,0.5c0.6,0,1-0.2,1.3-0.5c0.3-0.3,0.5-0.8,0.5-1.3
				c0-0.5-0.2-1-0.5-1.3c-0.4-0.3-0.9-0.5-1.3-0.5C207.5,264.4,207,264.5,206.6,264.9z"/>
			<path class="st9" d="M214.5,262.8v5.2h2.1v1.5h-3.8v-6.7H214.5z"/>
		</g>
		<g class="st10">
			<path class="st9" d="M355.4,152.4v2.2h-1.7V148h2.8c0.6,0,1.2,0.1,1.7,0.6c0.5,0.5,0.6,1.1,0.6,1.6c0,0.5-0.1,1.1-0.6,1.7
				c-0.5,0.5-1.1,0.6-1.7,0.6H355.4z M355.4,151h0.6c0.2,0,0.5,0,0.7-0.2c0.2-0.2,0.2-0.4,0.2-0.6c0-0.2,0-0.4-0.2-0.6
				c-0.2-0.2-0.5-0.2-0.7-0.2h-0.6V151z"/>
			<path class="st9" d="M360.8,148l1.2,4.3l1.4-4.3h1.4l1.3,4.3l1.3-4.3h1.8l-2.1,6.7h-1.8l-1.2-3.9l-1.3,3.9h-1.8l-2-6.7H360.8z"/>
			<path class="st9" d="M372.5,148c0.5,0,1.1,0.1,1.6,0.6c0.4,0.4,0.6,1,0.6,1.5c0,0.6-0.2,1.1-0.5,1.4c-0.3,0.2-0.6,0.4-0.9,0.5
				l2.1,2.7h-2.1l-1.7-2.6v2.6h-1.7V148H372.5z M371.5,150.9h0.3c0.3,0,0.6-0.1,0.8-0.3c0.1-0.1,0.2-0.3,0.2-0.6
				c0-0.2-0.1-0.4-0.2-0.6c-0.2-0.2-0.4-0.3-0.8-0.3h-0.3V150.9z"/>
			<path class="st9" d="M378.8,152.6c0.4,0.3,0.9,0.7,1.5,0.7c0.4,0,0.6-0.1,0.7-0.2c0.1-0.1,0.2-0.2,0.2-0.4c0-0.1,0-0.3-0.2-0.4
				c-0.2-0.1-0.4-0.2-0.9-0.3l-0.4-0.1c-0.3-0.1-0.7-0.2-1-0.5c-0.3-0.4-0.4-0.8-0.4-1.2c0-0.8,0.3-1.3,0.6-1.6
				c0.3-0.3,0.9-0.6,1.7-0.6c0.7,0,1.4,0.2,2.1,0.5l-0.7,1.3c-0.5-0.4-0.9-0.4-1.1-0.4c-0.2,0-0.4,0-0.6,0.2
				c-0.1,0.1-0.2,0.2-0.2,0.4c0,0.1,0,0.2,0.1,0.3c0,0.1,0.2,0.2,0.6,0.3l0.5,0.2c0.4,0.1,0.9,0.3,1.2,0.7c0.3,0.4,0.4,0.7,0.4,1.2
				c0,0.6-0.1,1.2-0.6,1.7c-0.6,0.6-1.3,0.7-2,0.7c-0.4,0-0.8,0-1.3-0.2c-0.1,0-0.5-0.2-1-0.5L378.8,152.6z"/>
			<path class="st9" d="M385.8,150.4h2.5V148h1.7v6.7h-1.7v-2.7h-2.5v2.7h-1.7V148h1.7V150.4z"/>
			<path class="st9" d="M393.2,148v5.2h2.1v1.5h-3.8V148H393.2z"/>
			<path class="st9" d="M396.2,154.6V148h2.3c0.7,0,1.8,0.1,2.6,0.9c0.8,0.8,0.9,1.7,0.9,2.4c0,0.9-0.2,1.7-0.9,2.3
				c-0.5,0.5-1.4,1-2.6,1H396.2z M397.9,153.2h0.3c0.4,0,1,0,1.5-0.5c0.2-0.2,0.5-0.6,0.5-1.4c0-0.6-0.2-1.1-0.5-1.5
				c-0.4-0.4-0.9-0.4-1.4-0.4h-0.4V153.2z"/>
		</g>
		<g class="st10">
			<path class="st9" d="M103.2,227.9c0.4,0.3,0.9,0.7,1.5,0.7c0.4,0,0.6-0.1,0.7-0.2c0.1-0.1,0.2-0.2,0.2-0.4c0-0.1-0.1-0.3-0.2-0.4
				c-0.2-0.1-0.4-0.2-0.9-0.3l-0.4-0.1c-0.3-0.1-0.7-0.2-1-0.5c-0.3-0.4-0.4-0.8-0.4-1.2c0-0.8,0.3-1.3,0.6-1.6
				c0.3-0.3,0.9-0.6,1.7-0.6c0.7,0,1.4,0.2,2.1,0.5l-0.7,1.3c-0.5-0.4-0.9-0.4-1.1-0.4c-0.2,0-0.4,0-0.6,0.2
				c-0.1,0.1-0.2,0.2-0.2,0.4c0,0.1,0,0.2,0.1,0.3c0.1,0.1,0.2,0.2,0.6,0.3l0.5,0.2c0.4,0.1,0.9,0.3,1.2,0.7
				c0.3,0.4,0.4,0.7,0.4,1.2c0,0.6-0.1,1.2-0.6,1.7c-0.6,0.6-1.3,0.7-2,0.7c-0.4,0-0.8,0-1.3-0.2c-0.1,0-0.5-0.2-1-0.5L103.2,227.9z
				"/>
			<path class="st9" d="M110.2,225.8h2.5v-2.5h1.7v6.7h-1.7v-2.7h-2.5v2.7h-1.7v-6.7h1.7V225.8z"/>
			<path class="st9" d="M117.6,223.3v5.2h2.1v1.5h-3.8v-6.7H117.6z"/>
			<path class="st9" d="M120.5,229.9v-6.7h2.3c0.7,0,1.8,0.1,2.6,0.9c0.8,0.8,0.9,1.7,0.9,2.4c0,0.9-0.2,1.7-0.9,2.3
				c-0.5,0.5-1.4,1-2.6,1H120.5z M122.3,228.5h0.3c0.4,0,1,0,1.5-0.5c0.2-0.2,0.5-0.6,0.5-1.4c0-0.6-0.2-1.1-0.5-1.5
				c-0.4-0.4-0.9-0.4-1.4-0.4h-0.4V228.5z"/>
			<path class="st9" d="M133.6,224.7h-2.1v1.1h1.9v1.5h-1.9v2.6h-1.7v-6.7h3.8V224.7z"/>
			<path class="st9" d="M137.4,223.3c0.5,0,1.1,0.1,1.6,0.6c0.4,0.4,0.6,1,0.6,1.5c0,0.6-0.2,1.1-0.5,1.4c-0.3,0.2-0.6,0.4-0.9,0.5
				l2.1,2.7H138l-1.7-2.6v2.6h-1.7v-6.7H137.4z M136.4,226.3h0.3c0.3,0,0.6-0.1,0.8-0.3c0.1-0.1,0.2-0.3,0.2-0.6
				c0-0.2-0.1-0.4-0.2-0.6c-0.2-0.2-0.4-0.3-0.8-0.3h-0.3V226.3z"/>
			<path class="st9" d="M146.9,229.1c-0.7,0.7-1.6,1-2.6,1c-1,0-1.9-0.3-2.6-1c-0.7-0.7-1-1.6-1-2.5c0-0.9,0.3-1.8,1-2.5
				c0.7-0.6,1.6-1,2.6-1c1,0,1.9,0.3,2.6,1c0.7,0.7,1,1.6,1,2.5C148,227.5,147.6,228.4,146.9,229.1z M143,225.3
				c-0.4,0.3-0.5,0.8-0.5,1.3c0,0.6,0.3,1,0.5,1.2c0.3,0.3,0.8,0.5,1.3,0.5c0.6,0,1-0.2,1.3-0.5c0.3-0.3,0.5-0.8,0.5-1.3
				c0-0.5-0.2-1-0.5-1.3c-0.4-0.3-0.9-0.5-1.3-0.5C143.8,224.8,143.3,225,143,225.3z"/>
			<path class="st9" d="M149.1,229.9v-6.7h1.7l3.2,4.1v-4.1h1.7v6.7H154l-3.2-4.1v4.1H149.1z"/>
			<path class="st9" d="M159.7,224.7v5.2h-1.7v-5.2h-1.4v-1.5h4.6v1.5H159.7z"/>
		</g>
		<g class="st10">
			<path class="st9" d="M106.2,270.6c0.4,0.3,0.9,0.7,1.5,0.7c0.4,0,0.6-0.1,0.7-0.2c0.1-0.1,0.2-0.2,0.2-0.4c0-0.1-0.1-0.3-0.2-0.4
				c-0.2-0.1-0.4-0.2-0.9-0.3l-0.4-0.1c-0.3-0.1-0.7-0.2-1-0.5c-0.3-0.4-0.4-0.8-0.4-1.2c0-0.8,0.3-1.3,0.6-1.6
				c0.3-0.3,0.9-0.6,1.7-0.6c0.7,0,1.4,0.2,2.1,0.5l-0.7,1.3c-0.5-0.4-0.9-0.4-1.1-0.4c-0.2,0-0.4,0-0.6,0.2
				c-0.1,0.1-0.2,0.2-0.2,0.4c0,0.1,0,0.2,0.1,0.3c0.1,0.1,0.2,0.2,0.6,0.3l0.5,0.2c0.4,0.1,0.9,0.3,1.2,0.7
				c0.3,0.4,0.4,0.7,0.4,1.2c0,0.6-0.1,1.2-0.6,1.7c-0.6,0.6-1.3,0.7-2,0.7c-0.4,0-0.8,0-1.3-0.2c-0.1,0-0.5-0.2-1-0.5L106.2,270.6z
				"/>
			<path class="st9" d="M113.2,268.4h2.5v-2.5h1.7v6.7h-1.7v-2.7h-2.5v2.7h-1.7v-6.7h1.7V268.4z"/>
			<path class="st9" d="M120.6,265.9v5.2h2.1v1.5h-3.8v-6.7H120.6z"/>
			<path class="st9" d="M123.6,272.6v-6.7h2.3c0.7,0,1.8,0.1,2.6,0.9c0.8,0.8,0.9,1.7,0.9,2.4c0,0.9-0.2,1.7-0.9,2.3
				c-0.5,0.5-1.4,1-2.6,1H123.6z M125.3,271.1h0.3c0.4,0,1,0,1.5-0.5c0.2-0.2,0.5-0.6,0.5-1.4c0-0.6-0.2-1.1-0.5-1.5
				c-0.4-0.4-0.9-0.4-1.4-0.4h-0.4V271.1z"/>
			<path class="st9" d="M132.9,272.6v-6.7h2.6c0.5,0,1,0.1,1.5,0.5c0.2,0.2,0.4,0.7,0.4,1.2c0,0.3,0,0.5-0.2,0.8
				c-0.1,0.3-0.3,0.4-0.5,0.5c0.4,0,0.7,0.2,0.9,0.4c0.3,0.3,0.4,0.7,0.4,1.2c0,0.6-0.2,1.1-0.5,1.3c-0.4,0.4-1,0.6-1.8,0.6H132.9z
				 M134.6,268.6h0.3c0.2,0,0.5,0,0.7-0.2c0.1-0.1,0.2-0.3,0.2-0.4c0-0.2-0.1-0.3-0.2-0.4c-0.1-0.1-0.3-0.2-0.7-0.2h-0.3V268.6z
				 M134.6,271.3h0.4c0.5,0,0.9,0,1.1-0.3c0.1-0.1,0.1-0.2,0.1-0.4c0-0.2-0.1-0.4-0.2-0.5c-0.2-0.2-0.6-0.2-1.1-0.2h-0.4V271.3z"/>
			<path class="st9" d="M143.1,271.5h-2.4l-0.4,1.1h-1.8l2.6-6.7h1.9l2.5,6.7h-1.8L143.1,271.5z M142.7,270.2l-0.7-2.2l-0.7,2.2
				H142.7z"/>
			<path class="st9" d="M150.7,272.4c-0.7,0.2-1.1,0.3-1.5,0.3c-1.2,0-2-0.5-2.6-1c-0.6-0.6-1-1.6-1-2.4c0-0.9,0.4-1.8,1-2.5
				c0.6-0.6,1.5-1,2.5-1c0.3,0,0.8,0,1.6,0.3v2.1c-0.6-0.7-1.2-0.7-1.5-0.7c-0.5,0-0.9,0.2-1.2,0.4c-0.4,0.4-0.6,0.9-0.6,1.4
				c0,0.5,0.2,1,0.5,1.3c0.3,0.3,0.8,0.5,1.2,0.5c0.3,0,0.9,0,1.5-0.7V272.4z"/>
			<path class="st9" d="M153.5,268.7l2.1-2.7h2.1l-2.6,3.2l2.9,3.5h-2.2l-2.3-2.9v2.9h-1.7v-6.7h1.7V268.7z"/>
		</g>
		<g class="st10">
			<path class="st9" d="M355.4,104.1l1.2,4.3l1.4-4.3h1.4l1.3,4.3l1.3-4.3h1.8l-2.1,6.7h-1.8l-1.2-3.9l-1.3,3.9h-1.8l-2-6.7H355.4z"
				/>
			<path class="st9" d="M368.2,105.5h-2.1v1.1h1.9v1.5h-1.9v1.1h2.1v1.5h-3.8v-6.7h3.8V105.5z"/>
			<path class="st9" d="M373.4,109.6H371l-0.4,1.1h-1.8l2.6-6.7h1.9l2.5,6.7h-1.8L373.4,109.6z M372.9,108.3l-0.7-2.2l-0.7,2.2
				H372.9z"/>
			<path class="st9" d="M378.1,108.5v2.2h-1.7v-6.7h2.8c0.6,0,1.2,0.1,1.7,0.6c0.5,0.5,0.6,1.1,0.6,1.6c0,0.5-0.1,1.1-0.6,1.7
				s-1.1,0.6-1.7,0.6H378.1z M378.1,107.1h0.6c0.2,0,0.5,0,0.7-0.2c0.2-0.2,0.2-0.4,0.2-0.6c0-0.2,0-0.4-0.2-0.6
				c-0.2-0.2-0.5-0.2-0.7-0.2h-0.6V107.1z"/>
			<path class="st9" d="M388.4,109.9c-0.7,0.7-1.6,1-2.6,1s-1.9-0.3-2.6-1c-0.7-0.7-1-1.6-1-2.5c0-0.9,0.3-1.8,1-2.5
				c0.7-0.6,1.6-1,2.6-1s1.9,0.3,2.6,1c0.7,0.7,1,1.6,1,2.5C389.5,108.3,389.1,109.2,388.4,109.9z M384.4,106.1
				c-0.4,0.3-0.5,0.8-0.5,1.3c0,0.6,0.3,1,0.5,1.2c0.3,0.3,0.8,0.5,1.3,0.5c0.6,0,1-0.2,1.3-0.5c0.3-0.3,0.5-0.8,0.5-1.3
				c0-0.5-0.2-1-0.5-1.3c-0.4-0.3-0.9-0.5-1.3-0.5C385.3,105.6,384.8,105.8,384.4,106.1z"/>
			<path class="st9" d="M390.6,110.7v-6.7h1.7l3.2,4.1v-4.1h1.7v6.7h-1.7l-3.2-4.1v4.1H390.6z"/>
			<path class="st9" d="M399,108.7c0.4,0.3,0.9,0.7,1.5,0.7c0.3,0,0.6-0.1,0.7-0.2c0.1-0.1,0.2-0.2,0.2-0.4c0-0.1-0.1-0.3-0.2-0.4
				c-0.2-0.1-0.4-0.2-0.9-0.3l-0.5-0.1c-0.3-0.1-0.7-0.2-1-0.5c-0.3-0.4-0.4-0.8-0.4-1.2c0-0.8,0.3-1.3,0.6-1.6
				c0.3-0.3,0.9-0.6,1.7-0.6c0.7,0,1.4,0.2,2.1,0.5l-0.7,1.3c-0.5-0.4-0.9-0.4-1.1-0.4c-0.2,0-0.4,0-0.6,0.2
				c-0.1,0.1-0.2,0.2-0.2,0.4c0,0.1,0,0.2,0.1,0.3c0.1,0.1,0.2,0.2,0.6,0.3l0.5,0.2c0.4,0.1,0.9,0.3,1.2,0.7
				c0.3,0.4,0.4,0.7,0.4,1.2c0,0.6-0.2,1.2-0.6,1.7c-0.6,0.6-1.3,0.7-2,0.7c-0.4,0-0.8,0-1.3-0.2c-0.1,0-0.5-0.2-1-0.5L399,108.7z"
				/>
		</g>
		<g class="st10">
			<path class="st9" d="M101.6,26.3v5.2h2.1V33h-3.8v-6.7H101.6z"/>
			<path class="st9" d="M106.3,26.3V33h-1.7v-6.7H106.3z"/>
			<path class="st9" d="M110.9,29.2h3.4c0,1.3-0.3,2.3-1.1,3c-0.7,0.6-1.5,0.8-2.3,0.8c-1.2,0-2-0.4-2.6-1c-0.5-0.5-1-1.3-1-2.4
				c0-1.1,0.4-1.9,1-2.5c0.5-0.5,1.4-1,2.6-1c0.6,0,1.3,0.1,1.8,0.5c0.5,0.3,0.9,0.8,1.2,1.4l-1.6,0.7c-0.1-0.3-0.3-0.5-0.5-0.7
				c-0.3-0.2-0.6-0.3-0.9-0.3c-0.4,0-0.8,0.2-1.1,0.5c-0.4,0.4-0.6,1-0.6,1.5c0,0.6,0.2,1.1,0.5,1.4c0.3,0.3,0.7,0.5,1.2,0.5
				c0.3,0,0.6-0.1,1-0.3c0.2-0.1,0.4-0.4,0.4-0.7h-1.4V29.2z"/>
			<path class="st9" d="M117.2,28.8h2.5v-2.5h1.7V33h-1.7v-2.7h-2.5V33h-1.7v-6.7h1.7V28.8z"/>
			<path class="st9" d="M125.4,27.8V33h-1.7v-5.2h-1.4v-1.5h4.6v1.5H125.4z"/>
			<path class="st9" d="M128,31c0.4,0.3,0.9,0.7,1.5,0.7c0.4,0,0.6-0.1,0.7-0.2c0.1-0.1,0.2-0.2,0.2-0.4c0-0.1-0.1-0.3-0.2-0.4
				c-0.2-0.1-0.4-0.2-0.9-0.3l-0.4-0.1c-0.3-0.1-0.7-0.2-1-0.5c-0.3-0.4-0.4-0.8-0.4-1.2c0-0.8,0.3-1.3,0.6-1.6
				c0.3-0.3,0.9-0.6,1.7-0.6c0.7,0,1.4,0.2,2.1,0.5l-0.7,1.3c-0.5-0.4-0.9-0.4-1.1-0.4c-0.2,0-0.4,0-0.6,0.2
				c-0.1,0.1-0.2,0.2-0.2,0.4c0,0.1,0,0.2,0.1,0.3c0.1,0.1,0.2,0.2,0.6,0.3l0.5,0.2c0.4,0.1,0.9,0.3,1.2,0.7
				c0.3,0.4,0.4,0.7,0.4,1.2c0,0.6-0.1,1.2-0.6,1.7c-0.6,0.6-1.3,0.7-2,0.7c-0.4,0-0.8,0-1.3-0.2c-0.1,0-0.5-0.2-1-0.5L128,31z"/>
		</g>
		<g class="st10">
			<path class="st9" d="M47.6,77.3v-6.7h2.3c0.7,0,1.8,0.1,2.6,0.9c0.8,0.8,0.9,1.7,0.9,2.4c0,0.9-0.2,1.7-0.9,2.3
				c-0.5,0.5-1.4,1-2.6,1H47.6z M49.3,75.8h0.3c0.4,0,1,0,1.5-0.5c0.2-0.2,0.5-0.6,0.5-1.4c0-0.6-0.2-1.1-0.5-1.5
				c-0.4-0.4-0.9-0.4-1.4-0.4h-0.4V75.8z"/>
			<path class="st9" d="M60.5,76.5c-0.7,0.7-1.6,1-2.6,1c-1,0-1.9-0.3-2.6-1c-0.7-0.7-1-1.6-1-2.5c0-0.9,0.3-1.8,1-2.5
				c0.7-0.6,1.6-1,2.6-1c1,0,1.9,0.3,2.6,1c0.7,0.7,1,1.6,1,2.5C61.6,74.9,61.2,75.8,60.5,76.5z M56.6,72.7C56.2,73,56,73.5,56,74
				c0,0.6,0.3,1,0.5,1.2c0.3,0.3,0.8,0.5,1.3,0.5c0.6,0,1-0.2,1.3-0.5c0.3-0.3,0.5-0.8,0.5-1.3c0-0.5-0.2-1-0.5-1.3
				c-0.4-0.3-0.9-0.5-1.3-0.5C57.4,72.2,56.9,72.3,56.6,72.7z"/>
			<path class="st9" d="M68.7,76.5c-0.7,0.7-1.6,1-2.6,1c-1,0-1.9-0.3-2.6-1c-0.7-0.7-1-1.6-1-2.5c0-0.9,0.3-1.8,1-2.5
				c0.7-0.6,1.6-1,2.6-1c1,0,1.9,0.3,2.6,1c0.7,0.7,1,1.6,1,2.5C69.7,74.9,69.4,75.8,68.7,76.5z M64.7,72.7
				c-0.4,0.3-0.5,0.8-0.5,1.3c0,0.6,0.3,1,0.5,1.2c0.3,0.3,0.8,0.5,1.3,0.5c0.6,0,1-0.2,1.3-0.5c0.3-0.3,0.5-0.8,0.5-1.3
				c0-0.5-0.2-1-0.5-1.3c-0.4-0.3-0.9-0.5-1.3-0.5C65.6,72.2,65.1,72.3,64.7,72.7z"/>
			<path class="st9" d="M73.5,70.6c0.5,0,1.1,0.1,1.6,0.6c0.4,0.4,0.6,1,0.6,1.5c0,0.6-0.2,1.1-0.5,1.4c-0.3,0.2-0.6,0.4-0.9,0.5
				l2.1,2.7h-2.1l-1.7-2.6v2.6h-1.7v-6.7H73.5z M72.6,73.6h0.3c0.3,0,0.6-0.1,0.8-0.3c0.1-0.1,0.2-0.3,0.2-0.6
				c0-0.2-0.1-0.4-0.2-0.6c-0.2-0.2-0.4-0.3-0.8-0.3h-0.3V73.6z"/>
			<path class="st9" d="M77.6,75.3c0.4,0.3,0.9,0.7,1.5,0.7c0.4,0,0.6-0.1,0.7-0.2c0.1-0.1,0.2-0.2,0.2-0.4c0-0.1-0.1-0.3-0.2-0.4
				c-0.2-0.1-0.4-0.2-0.9-0.3l-0.4-0.1c-0.3-0.1-0.7-0.2-1-0.5c-0.3-0.4-0.4-0.8-0.4-1.2c0-0.8,0.3-1.3,0.6-1.6
				c0.3-0.3,0.9-0.6,1.7-0.6c0.7,0,1.4,0.2,2.1,0.5l-0.7,1.3c-0.5-0.4-0.9-0.4-1.1-0.4c-0.2,0-0.4,0-0.6,0.2
				c-0.1,0.1-0.2,0.2-0.2,0.4c0,0.1,0,0.2,0.1,0.3c0.1,0.1,0.2,0.2,0.6,0.3l0.5,0.2c0.4,0.1,0.9,0.3,1.2,0.7
				c0.3,0.4,0.4,0.7,0.4,1.2c0,0.6-0.1,1.2-0.6,1.7c-0.6,0.6-1.3,0.7-2,0.7c-0.4,0-0.8,0-1.3-0.2c-0.1,0-0.5-0.2-1-0.5L77.6,75.3z"
				/>
		</g>
		<g class="st10">
			<path class="st9" d="M112,76.2h-2.4l-0.4,1.1h-1.8l2.6-6.7h1.9l2.5,6.7h-1.8L112,76.2z M111.5,74.9l-0.7-2.2l-0.7,2.2H111.5z"/>
			<path class="st9" d="M117.2,72.1v5.2h-1.7v-5.2h-1.4v-1.5h4.6v1.5H117.2z"/>
			<path class="st9" d="M124.2,77.1c-0.7,0.2-1.1,0.3-1.5,0.3c-1.2,0-2-0.5-2.6-1c-0.6-0.6-1-1.6-1-2.4c0-0.9,0.4-1.8,1-2.5
				c0.6-0.6,1.5-1,2.5-1c0.3,0,0.8,0,1.6,0.3v2.1c-0.6-0.7-1.2-0.7-1.5-0.7c-0.5,0-0.9,0.2-1.2,0.4c-0.4,0.4-0.6,0.9-0.6,1.4
				c0,0.5,0.2,1,0.5,1.3c0.3,0.3,0.8,0.5,1.2,0.5c0.3,0,0.9,0,1.5-0.7V77.1z"/>
		</g>
		<g class="st10">
			<path class="st9" d="M261.9,152.4v2.2h-1.7V148h2.8c0.6,0,1.2,0.1,1.7,0.6c0.5,0.5,0.6,1.1,0.6,1.6c0,0.5-0.1,1.1-0.6,1.7
				s-1.1,0.6-1.7,0.6H261.9z M261.9,151h0.6c0.2,0,0.5,0,0.7-0.2c0.2-0.2,0.2-0.4,0.2-0.6c0-0.2,0-0.4-0.2-0.6
				c-0.2-0.2-0.5-0.2-0.7-0.2h-0.6V151z"/>
			<path class="st9" d="M267.3,148l1.2,4.3l1.4-4.3h1.4l1.3,4.3l1.3-4.3h1.8l-2.1,6.7h-1.8l-1.2-3.9l-1.3,3.9h-1.8l-2-6.7H267.3z"/>
			<path class="st9" d="M279,148c0.5,0,1.1,0.1,1.6,0.6c0.4,0.4,0.6,1,0.6,1.5c0,0.6-0.2,1.1-0.5,1.4c-0.3,0.2-0.6,0.4-0.9,0.5
				l2.1,2.7h-2.1l-1.7-2.6v2.6h-1.7V148H279z M278,150.9h0.3c0.3,0,0.6-0.1,0.8-0.3c0.1-0.1,0.2-0.3,0.2-0.6c0-0.2-0.1-0.4-0.2-0.6
				c-0.2-0.2-0.5-0.3-0.8-0.3H278V150.9z"/>
			<path class="st9" d="M286,148l1.2,4.3l1.4-4.3h1.4l1.3,4.3l1.3-4.3h1.8l-2.1,6.7h-1.8l-1.2-3.9l-1.3,3.9h-1.8l-2-6.7H286z"/>
			<path class="st9" d="M298.8,149.4h-2.1v1.1h1.9v1.5h-1.9v1.1h2.1v1.5H295V148h3.8V149.4z"/>
			<path class="st9" d="M304,153.5h-2.4l-0.5,1.1h-1.8l2.6-6.7h1.9l2.5,6.7h-1.8L304,153.5z M303.5,152.2l-0.8-2.2l-0.7,2.2H303.5z"
				/>
			<path class="st9" d="M308.8,152.4v2.2H307V148h2.8c0.6,0,1.2,0.1,1.7,0.6c0.5,0.5,0.6,1.1,0.6,1.6c0,0.5-0.1,1.1-0.6,1.7
				s-1.1,0.6-1.7,0.6H308.8z M308.8,151h0.6c0.2,0,0.5,0,0.7-0.2c0.2-0.2,0.2-0.4,0.2-0.6c0-0.2,0-0.4-0.2-0.6
				c-0.2-0.2-0.5-0.2-0.7-0.2h-0.6V151z"/>
		</g>
		<g class="st10">
			<path class="st9" d="M311.5,248.4v2.2h-1.7v-6.7h2.8c0.6,0,1.2,0.1,1.7,0.6c0.5,0.5,0.6,1.1,0.6,1.6c0,0.5-0.1,1.1-0.6,1.7
				c-0.5,0.5-1.1,0.6-1.7,0.6H311.5z M311.5,247h0.6c0.2,0,0.5,0,0.7-0.2c0.2-0.2,0.2-0.4,0.2-0.6c0-0.2,0-0.4-0.2-0.6
				c-0.2-0.2-0.5-0.2-0.7-0.2h-0.6V247z"/>
			<path class="st9" d="M316.9,243.9l1.2,4.3l1.4-4.3h1.4l1.3,4.3l1.3-4.3h1.8l-2.1,6.7h-1.8l-1.2-3.9l-1.3,3.9h-1.8l-2-6.7H316.9z"
				/>
			<path class="st9" d="M328.6,243.9c0.5,0,1.1,0.1,1.6,0.6c0.4,0.4,0.6,1,0.6,1.5c0,0.6-0.2,1.1-0.5,1.4c-0.3,0.2-0.6,0.4-0.9,0.5
				l2.1,2.7h-2.1l-1.7-2.6v2.6h-1.7v-6.7H328.6z M327.7,246.9h0.3c0.3,0,0.6-0.1,0.8-0.3c0.1-0.1,0.2-0.3,0.2-0.6
				c0-0.2-0.1-0.4-0.2-0.6c-0.2-0.2-0.4-0.3-0.8-0.3h-0.3V246.9z"/>
			<path class="st9" d="M338.3,245.4h-2.1v1.1h1.9v1.5h-1.9v1.1h2.1v1.5h-3.8v-6.7h3.8V245.4z"/>
			<path class="st9" d="M339.4,250.6v-6.7h1.7l3.2,4.1v-4.1h1.7v6.7h-1.7l-3.2-4.1v4.1H339.4z"/>
			<path class="st9" d="M350.7,246.8h3.4c0,1.3-0.3,2.3-1.1,3c-0.7,0.6-1.5,0.8-2.3,0.8c-1.2,0-2-0.4-2.6-1c-0.5-0.5-1-1.3-1-2.4
				c0-1.1,0.4-1.9,1-2.5c0.5-0.5,1.4-1,2.6-1c0.6,0,1.3,0.1,1.8,0.5c0.5,0.3,1,0.8,1.2,1.4l-1.6,0.7c-0.1-0.3-0.3-0.5-0.5-0.7
				c-0.3-0.2-0.6-0.3-0.9-0.3c-0.4,0-0.8,0.2-1.1,0.5c-0.4,0.4-0.6,1-0.6,1.5c0,0.6,0.2,1.1,0.5,1.4c0.3,0.3,0.7,0.5,1.2,0.5
				c0.3,0,0.7-0.1,1-0.3c0.2-0.1,0.3-0.4,0.4-0.7h-1.4V246.8z"/>
		</g>
		<g class="st10">
			<path class="st9" d="M317.3,208.2v1.8h-1.4v-5.3h2.2c0.5,0,0.9,0.1,1.4,0.5c0.4,0.4,0.5,0.8,0.5,1.3c0,0.4-0.1,0.9-0.5,1.3
				c-0.4,0.4-0.9,0.5-1.3,0.5H317.3z M317.3,207.1h0.5c0.1,0,0.4,0,0.6-0.2c0.2-0.1,0.2-0.4,0.2-0.5c0-0.1,0-0.3-0.2-0.5
				c-0.2-0.2-0.4-0.2-0.6-0.2h-0.5V207.1z"/>
			<path class="st9" d="M321.6,204.6l0.9,3.4l1.1-3.4h1.1l1,3.4l1-3.4h1.4l-1.7,5.3h-1.4l-1-3.1l-1,3.1h-1.4l-1.6-5.3H321.6z"/>
			<path class="st9" d="M331,204.6c0.4,0,0.9,0.1,1.3,0.5c0.3,0.3,0.5,0.8,0.5,1.2c0,0.5-0.2,0.9-0.4,1.1c-0.2,0.2-0.5,0.3-0.7,0.4
				l1.7,2.2h-1.7l-1.3-2v2h-1.4v-5.3H331z M330.2,207h0.3c0.2,0,0.5-0.1,0.7-0.2c0.1-0.1,0.2-0.3,0.2-0.4c0-0.2-0.1-0.3-0.2-0.4
				c-0.1-0.1-0.4-0.2-0.7-0.2h-0.3V207z"/>
			<path class="st9" d="M337.8,204.6c0.4,0,0.9,0.1,1.3,0.5c0.3,0.3,0.5,0.8,0.5,1.2c0,0.5-0.2,0.9-0.4,1.1
				c-0.2,0.2-0.5,0.3-0.7,0.4l1.7,2.2h-1.7l-1.3-2v2h-1.4v-5.3H337.8z M337.1,207h0.3c0.2,0,0.5-0.1,0.7-0.2
				c0.1-0.1,0.2-0.3,0.2-0.4c0-0.2-0.1-0.3-0.2-0.4c-0.1-0.1-0.4-0.2-0.7-0.2h-0.3V207z"/>
			<path class="st9" d="M341,208.4c0.3,0.3,0.7,0.5,1.2,0.5c0.3,0,0.4-0.1,0.5-0.2c0.1-0.1,0.1-0.2,0.1-0.3c0-0.1,0-0.2-0.2-0.3
				c-0.1-0.1-0.3-0.2-0.7-0.3l-0.4-0.1c-0.2-0.1-0.6-0.2-0.8-0.4c-0.3-0.3-0.3-0.7-0.3-0.9c0-0.7,0.3-1.1,0.5-1.3
				c0.3-0.3,0.7-0.5,1.4-0.5c0.5,0,1.1,0.2,1.6,0.4l-0.6,1.1c-0.4-0.3-0.7-0.4-0.9-0.4c-0.1,0-0.3,0-0.5,0.2
				c-0.1,0.1-0.1,0.2-0.1,0.3c0,0.1,0,0.2,0.1,0.2c0,0,0.1,0.1,0.5,0.2l0.4,0.1c0.3,0.1,0.7,0.2,1,0.5c0.3,0.3,0.3,0.6,0.3,1
				c0,0.5-0.1,1-0.5,1.3c-0.5,0.5-1,0.5-1.6,0.5c-0.3,0-0.7,0-1-0.2c-0.1,0-0.4-0.2-0.8-0.4L341,208.4z"/>
			<path class="st9" d="M347.3,205.8v4.2h-1.4v-4.2h-1.1v-1.2h3.7v1.2H347.3z"/>
		</g>
		<g class="st10">
			<path class="st9" d="M111,177.4l-1.6,0.2l-0.6-0.6c-0.6,0.3-1.1,0.4-1.7,0.4c-1.4,0-2.3-0.5-2.8-1.1c-0.6-0.7-0.9-1.6-0.9-2.4
				c0-0.9,0.4-1.8,1-2.4c0.7-0.6,1.6-1,2.6-1c0.9,0,1.9,0.3,2.6,1c0.6,0.5,1,1.4,1,2.5c0,0.5-0.1,0.9-0.3,1.3
				c-0.1,0.3-0.3,0.6-0.6,0.9L111,177.4z M108.2,174.4l0.5,0.5c0.2-0.3,0.3-0.7,0.3-1c0-0.4-0.2-0.9-0.5-1.2
				c-0.4-0.4-0.9-0.5-1.3-0.5c-0.5,0-1,0.2-1.3,0.5c-0.3,0.4-0.5,0.8-0.5,1.3c0,0.5,0.2,0.9,0.5,1.2c0.3,0.3,0.8,0.5,1.3,0.5
				c0.2,0,0.4,0,0.5-0.1l-1.1-1.1L108.2,174.4z"/>
			<path class="st9" d="M113.6,170.6v3.9c0,0.3,0,0.7,0.3,1c0.2,0.2,0.5,0.3,0.8,0.3s0.6-0.1,0.8-0.3c0.4-0.3,0.4-0.8,0.4-1.2v-3.8
				h1.7v3.8c0,0.7,0,1.4-0.7,2.2c-0.6,0.6-1.3,0.8-2.2,0.8c-1,0-1.8-0.4-2.2-0.8c-0.6-0.6-0.6-1.5-0.6-2.2v-3.8H113.6z"/>
			<path class="st9" d="M123.1,176.2h-2.4l-0.4,1.1h-1.8l2.6-6.7h1.9l2.5,6.7h-1.8L123.1,176.2z M122.7,174.9l-0.7-2.2l-0.7,2.2
				H122.7z"/>
			<path class="st9" d="M126.2,177.3v-6.7h1.7l3.2,4.1v-4.1h1.7v6.7h-1.7l-3.2-4.1v4.1H126.2z"/>
			<path class="st9" d="M136.7,172.1v5.2H135v-5.2h-1.4v-1.5h4.6v1.5H136.7z"/>
			<path class="st9" d="M140.7,170.6v3.9c0,0.3,0,0.7,0.3,1c0.2,0.2,0.5,0.3,0.8,0.3s0.6-0.1,0.8-0.3c0.4-0.3,0.4-0.8,0.4-1.2v-3.8
				h1.7v3.8c0,0.7,0,1.4-0.7,2.2c-0.6,0.6-1.3,0.8-2.2,0.8c-1,0-1.8-0.4-2.2-0.8c-0.6-0.6-0.6-1.5-0.6-2.2v-3.8H140.7z"/>
			<path class="st9" d="M145.8,177.3l1.1-6.7h1.7l1.3,3.6l1.4-3.6h1.7l1,6.7h-1.7l-0.5-3.8l-1.6,3.8h-0.7l-1.5-3.8l-0.6,3.8H145.8z"
				/>
		</g>
		<g class="st10">
			<path class="st9" d="M115.4,189.3v-6.7h2.3c0.7,0,1.8,0.1,2.6,0.9c0.8,0.8,0.9,1.7,0.9,2.4c0,0.9-0.2,1.7-0.9,2.3
				c-0.5,0.5-1.4,1-2.6,1H115.4z M117.1,187.8h0.3c0.4,0,1,0,1.5-0.5c0.2-0.2,0.5-0.6,0.5-1.4c0-0.6-0.2-1.1-0.5-1.5
				c-0.4-0.4-0.9-0.4-1.4-0.4h-0.4V187.8z"/>
			<path class="st9" d="M125,182.6c0.5,0,1.1,0.1,1.6,0.6c0.4,0.4,0.6,1,0.6,1.5c0,0.6-0.2,1.1-0.5,1.4c-0.3,0.2-0.6,0.4-0.9,0.5
				l2.1,2.7h-2.1l-1.7-2.6v2.6h-1.7v-6.7H125z M124.1,185.6h0.3c0.3,0,0.6-0.1,0.8-0.3c0.1-0.1,0.2-0.3,0.2-0.6
				c0-0.2-0.1-0.4-0.2-0.6c-0.2-0.2-0.4-0.3-0.8-0.3h-0.3V185.6z"/>
			<path class="st9" d="M130.3,182.6v6.7h-1.7v-6.7H130.3z"/>
			<path class="st9" d="M132.9,182.6l1.6,4.1l1.6-4.1h1.9l-2.8,6.7h-1.3l-2.8-6.7H132.9z"/>
			<path class="st9" d="M142.5,184.1h-2.1v1.1h1.9v1.5h-1.9v1.1h2.1v1.5h-3.8v-6.7h3.8V184.1z"/>
		</g>
		<g class="st10">
			<path d="M44.1,26.3v5.2h2.1V33h-3.8v-6.7H44.1z"/>
			<path d="M51.1,31.8h-2.4L48.2,33h-1.8l2.6-6.7h1.9l2.5,6.7h-1.8L51.1,31.8z M50.6,30.5l-0.7-2.2l-0.7,2.2H50.6z"/>
			<path d="M54.1,33v-6.7h1.7l3.2,4.1v-4.1h1.7V33h-1.7l-3.2-4.1V33H54.1z"/>
			<path d="M62.2,33v-6.7h2.3c0.7,0,1.8,0.1,2.6,0.9c0.8,0.8,0.9,1.7,0.9,2.4c0,0.9-0.2,1.7-0.9,2.3c-0.5,0.5-1.4,1-2.6,1H62.2z
				 M63.9,31.5h0.3c0.4,0,1,0,1.5-0.5c0.2-0.2,0.5-0.6,0.5-1.4c0-0.6-0.2-1.1-0.5-1.5c-0.4-0.4-0.9-0.4-1.4-0.4h-0.4V31.5z"/>
			<path d="M70.9,26.3V33h-1.7v-6.7H70.9z"/>
			<path d="M72.3,33v-6.7H74l3.2,4.1v-4.1h1.7V33h-1.7L74,28.9V33H72.3z"/>
			<path d="M83.5,29.2H87c0,1.3-0.3,2.3-1.1,3c-0.7,0.6-1.5,0.8-2.3,0.8c-1.2,0-2-0.4-2.6-1c-0.5-0.5-1-1.3-1-2.4
				c0-1.1,0.4-1.9,1-2.5c0.5-0.5,1.4-1,2.6-1c0.6,0,1.3,0.1,1.8,0.5c0.5,0.3,1,0.8,1.2,1.4l-1.6,0.7c-0.1-0.3-0.3-0.5-0.5-0.7
				c-0.3-0.2-0.6-0.3-0.9-0.3c-0.4,0-0.8,0.2-1.1,0.5c-0.4,0.4-0.6,1-0.6,1.5c0,0.6,0.2,1.1,0.5,1.4c0.3,0.3,0.7,0.5,1.2,0.5
				c0.3,0,0.7-0.1,1-0.3c0.2-0.1,0.3-0.4,0.4-0.7h-1.4V29.2z"/>
		</g>
		<g class="st10">
			<path class="st9" d="M169.2,108.5v2.2h-1.7v-6.7h2.8c0.6,0,1.2,0.1,1.7,0.6c0.5,0.5,0.6,1.1,0.6,1.6c0,0.5-0.1,1.1-0.6,1.7
				c-0.5,0.5-1.1,0.6-1.7,0.6H169.2z M169.2,107.1h0.6c0.2,0,0.5,0,0.7-0.2c0.2-0.2,0.2-0.4,0.2-0.6c0-0.2,0-0.4-0.2-0.6
				c-0.2-0.2-0.5-0.2-0.7-0.2h-0.6V107.1z"/>
			<path class="st9" d="M179.5,109.9c-0.7,0.7-1.6,1-2.6,1c-1,0-1.9-0.3-2.6-1c-0.7-0.7-1-1.6-1-2.5c0-0.9,0.3-1.8,1-2.5
				c0.7-0.6,1.6-1,2.6-1c1,0,1.9,0.3,2.6,1c0.7,0.7,1,1.6,1,2.5C180.5,108.3,180.2,109.2,179.5,109.9z M175.5,106.1
				c-0.4,0.3-0.5,0.8-0.5,1.3c0,0.6,0.3,1,0.5,1.2c0.3,0.3,0.8,0.5,1.3,0.5c0.6,0,1-0.2,1.3-0.5c0.3-0.3,0.5-0.8,0.5-1.3
				c0-0.5-0.2-1-0.5-1.3c-0.4-0.3-0.9-0.5-1.3-0.5C176.4,105.6,175.9,105.8,175.5,106.1z"/>
			<path class="st9" d="M182.7,104.1l1.2,4.3l1.4-4.3h1.4l1.3,4.3l1.3-4.3h1.8l-2.1,6.7h-1.8l-1.2-3.9l-1.3,3.9h-1.8l-2-6.7H182.7z"
				/>
			<path class="st9" d="M195.6,105.5h-2.1v1.1h1.9v1.5h-1.9v1.1h2.1v1.5h-3.8v-6.7h3.8V105.5z"/>
			<path class="st9" d="M199.4,104.1c0.5,0,1.1,0.1,1.6,0.6c0.4,0.4,0.6,1,0.6,1.5c0,0.6-0.2,1.1-0.5,1.4c-0.3,0.2-0.6,0.4-0.9,0.5
				l2.1,2.7H200l-1.7-2.6v2.6h-1.7v-6.7H199.4z M198.4,107.1h0.3c0.3,0,0.6-0.1,0.8-0.3c0.1-0.1,0.2-0.3,0.2-0.6
				c0-0.2-0.1-0.4-0.2-0.6c-0.2-0.2-0.4-0.3-0.8-0.3h-0.3V107.1z"/>
		</g>
		<g class="st10">
			<path class="st9" d="M232.5,105.5h-2.1v1.1h1.9v1.5h-1.9v1.1h2.1v1.5h-3.8v-6.7h3.8V105.5z"/>
			<path class="st9" d="M233.6,110.7v-6.7h1.7l3.2,4.1v-4.1h1.7v6.7h-1.7l-3.2-4.1v4.1H233.6z"/>
			<path class="st9" d="M244.8,107h3.4c0,1.3-0.3,2.3-1.1,3c-0.7,0.6-1.5,0.8-2.3,0.8c-1.2,0-2-0.4-2.6-1c-0.5-0.5-1-1.3-1-2.4
				c0-1.1,0.4-1.9,1-2.5c0.5-0.5,1.4-1,2.6-1c0.6,0,1.3,0.1,1.8,0.5c0.5,0.3,0.9,0.8,1.2,1.4l-1.6,0.7c-0.1-0.3-0.3-0.5-0.5-0.7
				c-0.3-0.2-0.6-0.3-0.9-0.3c-0.4,0-0.8,0.2-1.1,0.5c-0.4,0.4-0.6,1-0.6,1.5c0,0.6,0.2,1.1,0.5,1.4c0.3,0.3,0.7,0.5,1.2,0.5
				c0.3,0,0.6-0.1,1-0.3c0.2-0.1,0.4-0.4,0.4-0.7h-1.4V107z"/>
			<path class="st9" d="M251.1,104.1v6.7h-1.7v-6.7H251.1z"/>
			<path class="st9" d="M252.5,110.7v-6.7h1.7l3.2,4.1v-4.1h1.7v6.7h-1.7l-3.2-4.1v4.1H252.5z"/>
			<path class="st9" d="M264.3,105.5h-2.1v1.1h1.9v1.5h-1.9v1.1h2.1v1.5h-3.8v-6.7h3.8V105.5z"/>
			<path class="st9" d="M265.9,108.7c0.4,0.3,0.9,0.7,1.5,0.7c0.3,0,0.6-0.1,0.7-0.2c0.1-0.1,0.2-0.2,0.2-0.4c0-0.1-0.1-0.3-0.2-0.4
				c-0.2-0.1-0.4-0.2-0.9-0.3l-0.5-0.1c-0.3-0.1-0.7-0.2-1-0.5c-0.3-0.4-0.4-0.8-0.4-1.2c0-0.8,0.3-1.3,0.6-1.6
				c0.3-0.3,0.9-0.6,1.7-0.6c0.7,0,1.4,0.2,2.1,0.5l-0.7,1.3c-0.5-0.4-0.9-0.4-1.1-0.4c-0.2,0-0.4,0-0.6,0.2
				c-0.1,0.1-0.2,0.2-0.2,0.4c0,0.1,0,0.2,0.1,0.3c0.1,0.1,0.2,0.2,0.6,0.3l0.5,0.2c0.4,0.1,0.9,0.3,1.2,0.7
				c0.3,0.4,0.4,0.7,0.4,1.2c0,0.6-0.2,1.2-0.6,1.7c-0.6,0.6-1.3,0.7-2,0.7c-0.4,0-0.8,0-1.3-0.2c-0.1,0-0.5-0.2-1-0.5L265.9,108.7z
				"/>
		</g>
		<g class="st10">
			<path class="st9" d="M295.8,108.7c0.4,0.3,0.9,0.7,1.5,0.7c0.4,0,0.6-0.1,0.7-0.2c0.1-0.1,0.2-0.2,0.2-0.4c0-0.1,0-0.3-0.2-0.4
				c-0.2-0.1-0.4-0.2-0.9-0.3l-0.4-0.1c-0.3-0.1-0.7-0.2-1-0.5c-0.3-0.4-0.4-0.8-0.4-1.2c0-0.8,0.3-1.3,0.6-1.6
				c0.3-0.3,0.9-0.6,1.7-0.6c0.7,0,1.4,0.2,2.1,0.5l-0.7,1.3c-0.5-0.4-0.9-0.4-1.1-0.4c-0.2,0-0.4,0-0.6,0.2
				c-0.1,0.1-0.2,0.2-0.2,0.4c0,0.1,0,0.2,0.1,0.3c0,0.1,0.2,0.2,0.6,0.3l0.5,0.2c0.4,0.1,0.9,0.3,1.2,0.7c0.3,0.4,0.4,0.7,0.4,1.2
				c0,0.6-0.1,1.2-0.6,1.7c-0.6,0.6-1.3,0.7-2,0.7c-0.4,0-0.8,0-1.3-0.2c-0.1,0-0.5-0.2-1-0.5L295.8,108.7z"/>
			<path class="st9" d="M302.8,106.6h2.5v-2.5h1.7v6.7h-1.7V108h-2.5v2.7h-1.7v-6.7h1.7V106.6z"/>
			<path class="st9" d="M310.2,104.1v6.7h-1.7v-6.7H310.2z"/>
			<path class="st9" d="M315.4,105.5h-2.1v1.1h1.9v1.5h-1.9v1.1h2.1v1.5h-3.8v-6.7h3.8V105.5z"/>
			<path class="st9" d="M318.2,104.1v5.2h2.1v1.5h-3.8v-6.7H318.2z"/>
			<path class="st9" d="M321.2,110.7v-6.7h2.3c0.7,0,1.8,0.1,2.6,0.9c0.8,0.8,0.9,1.7,0.9,2.4c0,0.9-0.2,1.7-0.9,2.3
				c-0.5,0.5-1.4,1-2.6,1H321.2z M322.9,109.3h0.3c0.4,0,1,0,1.5-0.5c0.2-0.2,0.5-0.6,0.5-1.4c0-0.6-0.2-1.1-0.5-1.5
				c-0.4-0.4-0.9-0.4-1.4-0.4h-0.4V109.3z"/>
			<path class="st9" d="M328.6,108.7c0.4,0.3,0.9,0.7,1.5,0.7c0.3,0,0.6-0.1,0.7-0.2c0.1-0.1,0.2-0.2,0.2-0.4c0-0.1-0.1-0.3-0.2-0.4
				c-0.2-0.1-0.4-0.2-0.9-0.3l-0.5-0.1c-0.3-0.1-0.7-0.2-1-0.5c-0.3-0.4-0.4-0.8-0.4-1.2c0-0.8,0.3-1.3,0.6-1.6
				c0.3-0.3,0.9-0.6,1.7-0.6c0.7,0,1.4,0.2,2.1,0.5l-0.7,1.3c-0.5-0.4-0.9-0.4-1.1-0.4c-0.2,0-0.4,0-0.6,0.2
				c-0.1,0.1-0.2,0.2-0.2,0.4c0,0.1,0,0.2,0.1,0.3c0.1,0.1,0.2,0.2,0.6,0.3l0.5,0.2c0.4,0.1,0.9,0.3,1.2,0.7
				c0.3,0.4,0.4,0.7,0.4,1.2c0,0.6-0.2,1.2-0.6,1.7c-0.6,0.6-1.3,0.7-2,0.7c-0.4,0-0.8,0-1.3-0.2c-0.1,0-0.5-0.2-1-0.5L328.6,108.7z
				"/>
		</g>
	</g>
</g>
<g id="New_Holes">
	<g>
		<path class="st0" d="M430.8,335.5l0.1-1V5.7l-0.1-1l-0.3-1l-0.4-0.9L429.5,2l-0.7-0.7L428,0.8l-0.9-0.4l-1-0.3l-1-0.1H5.7l-1,0.1
			l-1,0.3L2.8,0.8L2,1.3L1.3,2L0.8,2.8L0.3,3.7L0,4.7v1v328.8l0.1,1l0.3,1l0.4,0.9l0.6,0.8l0.7,0.7l0.8,0.6l0.9,0.4l1,0.3l1,0.1
			h419.5l1-0.1l1-0.3l0.9-0.4l0.8-0.6l0.7-0.7l0.6-0.8l0.4-0.9L430.8,335.5z"/>
		<path class="st1" d="M210.3,285c0-5.5-4.4-9.9-9.9-9.9s-9.9,4.4-9.9,9.9l0,0c0,5.5,4.4,9.9,9.9,9.9
			C205.8,294.9,210.3,290.4,210.3,285z"/>
		<path class="st1" d="M400.4,184.3c0-12.5-10.1-22.7-22.7-22.7c-12.5,0-22.7,10.1-22.7,22.7l0,0c0,12.5,10.1,22.7,22.7,22.7
			C390.2,207,400.4,196.9,400.4,184.3C400.4,184.4,400.4,184.4,400.4,184.3z"/>
		<path class="st1" d="M125.5,94.3c0-5.3-4.3-9.6-9.6-9.6c-5.3,0-9.6,4.3-9.6,9.6c0,5.3,4.3,9.6,9.6,9.6S125.5,99.6,125.5,94.3z"/>
		<path class="st1" d="M201.7,72.2c0-9.5-7.7-17.2-17.2-17.2s-17.2,7.7-17.2,17.2s7.7,17.2,17.2,17.2S201.7,81.7,201.7,72.2z"/>
		<path class="st1" d="M395.8,72.2c0-9.5-7.7-17.2-17.2-17.2s-17.2,7.7-17.2,17.2s7.7,17.2,17.2,17.2
			C388.1,89.4,395.8,81.7,395.8,72.2z"/>
		<path class="st1" d="M125.5,50.2c0-5.3-4.3-9.6-9.6-9.6c-5.3,0-9.6,4.3-9.6,9.6l0,0c0,5.3,4.3,9.6,9.6,9.6
			C121.2,59.8,125.5,55.5,125.5,50.2z"/>
		<path class="st1" d="M238.5,184.3c0-21.1-17.1-38.2-38.2-38.2s-38.2,17.1-38.2,38.2s17.1,38.2,38.2,38.2S238.5,205.4,238.5,184.3
			C238.5,184.4,238.5,184.3,238.5,184.3z"/>
		<path class="st1" d="M341.8,224.4c0-5.5-4.4-9.9-9.9-9.9s-9.9,4.4-9.9,9.9s4.4,9.9,9.9,9.9C337.3,234.3,341.8,229.9,341.8,224.4z"
			/>
		<path class="st1" d="M141.5,288.3c0-5.5-4.4-9.9-9.9-9.9s-9.9,4.4-9.9,9.9l0,0c0,5.5,4.4,9.9,9.9,9.9
			C137,298.3,141.5,293.8,141.5,288.3L141.5,288.3z"/>
		<path class="st1" d="M211.7,240.9c0-6.3-5.1-11.3-11.3-11.3c-6.3,0-11.3,5.1-11.3,11.3l0,0c0,6.3,5.1,11.3,11.3,11.3
			C206.6,252.2,211.7,247.1,211.7,240.9L211.7,240.9z"/>
		<path class="st1" d="M343.2,184.3c0-6.3-5.1-11.3-11.3-11.3c-6.3,0-11.3,5.1-11.3,11.3l0,0c0,6.3,5.1,11.3,11.3,11.3
			C338.1,195.7,343.2,190.6,343.2,184.3C343.2,184.4,343.2,184.3,343.2,184.3z"/>
		<path class="st1" d="M74.1,94.9c0-5.3-4.3-9.6-9.6-9.6s-9.6,4.3-9.6,9.6c0,5.3,4.3,9.6,9.6,9.6S74.1,100.2,74.1,94.9z"/>
		<path class="st1" d="M266.4,72.2c0-9.5-7.7-17.2-17.2-17.2c-9.5,0-17.2,7.7-17.2,17.2l0,0c0,9.5,7.7,17.2,17.2,17.2
			C258.7,89.4,266.4,81.7,266.4,72.2L266.4,72.2z"/>
		<path class="st1" d="M331.1,72.2c0-9.5-7.7-17.2-17.2-17.2s-17.2,7.7-17.2,17.2l0,0c0,9.5,7.7,17.2,17.2,17.2
			C323.4,89.4,331.1,81.7,331.1,72.2L331.1,72.2z"/>
		<path class="st1" d="M74.1,50.3c0-5.3-4.3-9.6-9.6-9.6s-9.6,4.3-9.6,9.6s4.3,9.6,9.6,9.6S74.1,55.6,74.1,50.3z"/>
		<path class="st1" d="M308.6,184.3c0-12.5-10.1-22.7-22.7-22.7c-12.5,0-22.7,10.1-22.7,22.7l0,0c0,12.5,10.1,22.7,22.7,22.7
			S308.6,196.9,308.6,184.3L308.6,184.3z"/>
		<path class="st1" d="M354.5,281.3c0-12.5-10.1-22.7-22.7-22.7s-22.7,10.1-22.7,22.7l0,0c0,12.5,10.1,22.7,22.7,22.7
			S354.5,293.8,354.5,281.3L354.5,281.3z"/>
		<path class="st1" d="M141.5,246.6c0-5.5-4.4-9.9-9.9-9.9s-9.9,4.4-9.9,9.9l0,0c0,5.5,4.4,9.9,9.9,9.9
			C137,256.5,141.5,252.1,141.5,246.6L141.5,246.6z"/>
		<path class="st1" d="M18.6,13.4l0.1,0.8L18.6,15l-0.2,0.8l-0.3,0.7l-0.5,0.6L17,17.7l-0.6,0.5l-0.7,0.3L15,18.6l-0.8,0.1l-0.8-0.1
			l-0.8-0.2l-0.7-0.3l-0.6-0.5L10.7,17l-0.5-0.6l-0.3-0.7L9.7,15l-0.1-0.8l0.1-0.8l0.2-0.8l0.3-0.7l0.5-0.6l0.6-0.6l0.6-0.5l0.7-0.3
			l0.8-0.2l0.8-0.1L15,9.7l0.8,0.2l0.7,0.3l0.6,0.5l0.6,0.6l0.5,0.6l0.3,0.7L18.6,13.4z"/>
		<path class="st1" d="M18.6,325.2l0.1,0.8l-0.1,0.8l-0.2,0.8l-0.3,0.7l-0.5,0.6l-0.6,0.6l-0.6,0.5l-0.7,0.3l-0.8,0.2l-0.8,0.1
			l-0.8-0.1l-0.8-0.2l-0.7-0.3l-0.6-0.5l-0.6-0.6l-0.5-0.6l-0.3-0.7l-0.2-0.8l0-0.8l0.1-0.8l0.2-0.8l0.3-0.7l0.5-0.6l0.6-0.6
			l0.6-0.5l0.7-0.3l0.8-0.2l0.8-0.1l0.8,0.1l0.8,0.2l0.7,0.3l0.6,0.5l0.6,0.6l0.5,0.6l0.3,0.7L18.6,325.2z"/>
		<path class="st1" d="M421.2,13.4l0.1,0.8l-0.1,0.8l-0.2,0.8l-0.3,0.7l-0.5,0.6l-0.6,0.6l-0.6,0.5l-0.7,0.3l-0.8,0.2l-0.8,0.1
			l-0.8-0.1l-0.8-0.2l-0.7-0.3l-0.6-0.5l-0.6-0.6l-0.5-0.6l-0.3-0.7l-0.2-0.8l-0.1-0.8l0.1-0.8l0.2-0.8l0.3-0.7l0.5-0.6l0.6-0.6
			l0.6-0.5l0.7-0.3l0.8-0.2l0.8-0.1l0.8,0.1l0.8,0.2l0.7,0.3l0.6,0.5l0.6,0.6l0.5,0.6l0.3,0.7L421.2,13.4z"/>
		<path class="st1" d="M421.2,325.2l0.1,0.8l-0.1,0.8l-0.2,0.8l-0.3,0.7l-0.5,0.6l-0.6,0.6L419,330l-0.7,0.3l-0.8,0.2l-0.8,0.1
			l-0.8-0.1l-0.8-0.2l-0.7-0.3l-0.6-0.5l-0.6-0.6l-0.5-0.6l-0.3-0.7l-0.2-0.8l-0.1-0.8l0.1-0.8l0.2-0.8l0.3-0.7l0.5-0.6l0.6-0.6
			l0.6-0.5l0.7-0.3l0.8-0.2l0.8-0.1l0.8,0.1l0.8,0.2l0.7,0.3l0.6,0.5l0.6,0.6l0.5,0.6l0.3,0.7L421.2,325.2z"/>
	</g>
</g>
<g id="Logo">
	<g>
		<path class="st9" d="M61.1,262.1c-1.1,0-2.2,0.1-3.3,0.4v19.9c1.9,1.2,4.3,1.3,6.2,0.2v-20.2C63,262.2,62,262.1,61.1,262.1"/>
		<path class="st9" d="M71.6,256.5h-9v-9.9c1.1-1,1.1-2.6,0.2-3.7c-0.5-0.5-1.2-0.8-1.9-0.9c-1.4,0-2.6,1.2-2.6,2.6
			c0,0.7,0.3,1.4,0.9,1.9v9.9h-9l4.3,2.7h3.3v1.2c1.1-0.2,2.2-0.3,3.3-0.3c1,0,1.9,0.1,2.9,0.3v-1.1h3.3L71.6,256.5z"/>
		<path class="st9" d="M68.6,273.5h6.7c-1.1-4.9-4.7-8.8-9.4-10.5v7.2C67,271,68,272.2,68.6,273.5"/>
		<path class="st9" d="M65.9,283.7v0.1l-0.8,0.4l-0.3,0.1h-0.1c-0.2,0.1-0.3,0.2-0.5,0.2c0,0-0.1,0-0.1,0.1
			c-0.2,0.1-0.4,0.1-0.6,0.2c-0.1,0-0.1,0-0.2,0c-0.2,0.1-0.4,0.1-0.5,0.1c-0.2,0.1-0.5,0.1-0.7,0.1H62c-0.3,0-0.6,0.1-0.9,0.1
			c-0.2,0-0.5,0-0.7,0c-0.1,0-0.2,0-0.2,0c-0.2,0-0.3,0-0.5-0.1c-0.1,0-0.3-0.1-0.4-0.1c-0.1,0-0.3-0.1-0.4-0.1
			c-0.1,0-0.3-0.1-0.4-0.1c-0.1,0-0.1,0-0.2-0.1c-0.3-0.1-0.5-0.2-0.8-0.4c-0.1-0.1-0.3-0.2-0.4-0.2c-0.1,0-0.2-0.1-0.2-0.1
			l-0.3-0.2l-0.6-0.4v-0.1c-3.6-3-4-8.3-1-11.9c0.3-0.4,0.6-0.7,1-1v-7.4c-5.7,2.2-9.4,7.7-9.3,13.8c0,8.2,6.5,14.8,14.6,14.8
			c6.9,0,12.7-4.8,14.2-11.4h-6.7C68,281.7,67,282.8,65.9,283.7"/>
		<path class="st9" d="M58.2,284.7c-0.3-0.1-0.5-0.2-0.8-0.4C57.6,284.5,57.9,284.6,58.2,284.7"/>
		<path class="st9" d="M56.7,284c0.1,0,0.2,0.1,0.2,0.1c-0.2-0.1-0.4-0.2-0.5-0.3L56.7,284z"/>
		<path class="st9" d="M62,285.2c-0.3,0-0.6,0.1-0.9,0.1C61.4,285.3,61.7,285.3,62,285.2"/>
		<path class="st9" d="M64.8,284.3l0.3-0.1c-0.1,0.1-0.2,0.1-0.4,0.2C64.8,284.4,64.8,284.4,64.8,284.3"/>
		<path class="st9" d="M64.2,284.6c0,0-0.1,0-0.1,0.1C64.1,284.7,64.2,284.7,64.2,284.6"/>
		<path class="st9" d="M63.5,284.9c-0.1,0-0.1,0-0.2,0C63.4,284.9,63.5,284.9,63.5,284.9"/>
		<path class="st9" d="M62.8,285.1c-0.2,0.1-0.5,0.1-0.7,0.1C62.3,285.2,62.6,285.1,62.8,285.1"/>
		<path class="st9" d="M65.9,283.8v-0.1c-0.2,0.2-0.5,0.4-0.8,0.5L65.9,283.8z"/>
		<path class="st9" d="M55.8,283.4l0.6,0.4C56.2,283.7,56,283.5,55.8,283.4L55.8,283.4z"/>
	</g>
</g>
</svg>
