<?xml version="1.0" encoding="utf-8"?>
<!-- Generator: Adobe Illustrator 26.3.1, SVG Export Plug-In . SVG Version: 6.00 Build 0)  -->
<svg version="1.1" xmlns="http://www.w3.org/2000/svg" xmlns:xlink="http://www.w3.org/1999/xlink" x="0px" y="0px"
	 viewBox="0 0 430.9 340.2" style="enable-background:new 0 0 430.9 340.2;" xml:space="preserve">
<style type="text/css">
	.st0{fill:none;stroke:#000000;stroke-miterlimit:10;}
	.st1{fill:#FFFFFF;stroke:#000000;stroke-width:0.8035;stroke-linecap:round;stroke-linejoin:round;stroke-miterlimit:113.3858;}
	.st2{fill:#231F20;}
	.st3{display:none;}
	.st4{display:inline;fill:#231F20;}
	.st5{font-family:'Futura-Bold';}
	.st6{font-size:10px;}
	.st7{font-size:8px;}
	.st8{display:inline;}
	.st9{enable-background:new    ;}
</style>
<g id="Layer_1" xmlns:shaper="http://www.shapertools.com/namespaces/shaper">
	<path shaper:cutDepth="0.011" class="st0" d="M430.8,335.5l0.1-1V5.7l-0.1-1l-0.3-1l-0.4-0.9L429.5,2l-0.7-0.7L428,0.8l-0.9-0.4
		l-1-0.3l-1-0.1H5.7l-1,0.1l-1,0.3L2.8,0.8L2,1.3L1.3,2L0.8,2.8L0.3,3.7L0,4.7v1v328.8l0.1,1l0.3,1l0.4,0.9l0.6,0.8l0.7,0.7l0.8,0.6
		l0.9,0.4l1,0.3l1,0.1h419.5l1-0.1l1-0.3l0.9-0.4l0.8-0.6l0.7-0.7l0.6-0.8l0.4-0.9L430.8,335.5z"/>
	<path shaper:cutDepth="0.011" class="st1" d="M208.6,285c0-4.6-3.7-8.3-8.3-8.3s-8.3,3.7-8.3,8.3l0,0c0,4.6,3.7,8.3,8.3,8.3
		S208.6,289.6,208.6,285z"/>
	<path shaper:cutDepth="0.011" class="st1" d="M400.4,184.3c0-12.5-10.1-22.7-22.7-22.7c-12.5,0-22.7,10.1-22.7,22.7l0,0
		c0,12.5,10.1,22.7,22.7,22.7C390.2,207,400.4,196.9,400.4,184.3C400.4,184.4,400.4,184.4,400.4,184.3z"/>
	<path shaper:cutDepth="0.011" class="st1" d="M125.5,94.3c0-5.3-4.3-9.6-9.6-9.6c-5.3,0-9.6,4.3-9.6,9.6c0,5.3,4.3,9.6,9.6,9.6
		S125.5,99.6,125.5,94.3z"/>
	<path shaper:cutDepth="0.011" class="st1" d="M201.7,72.2c0-9.5-7.7-17.2-17.2-17.2s-17.2,7.7-17.2,17.2s7.7,17.2,17.2,17.2
		S201.7,81.7,201.7,72.2z"/>
	<path shaper:cutDepth="0.011" class="st1" d="M395.8,72.2c0-9.5-7.7-17.2-17.2-17.2s-17.2,7.7-17.2,17.2s7.7,17.2,17.2,17.2
		C388.1,89.4,395.8,81.7,395.8,72.2z"/>
	<path shaper:cutDepth="0.011" class="st1" d="M125.5,50.2c0-5.3-4.3-9.6-9.6-9.6c-5.3,0-9.6,4.3-9.6,9.6l0,0c0,5.3,4.3,9.6,9.6,9.6
		C121.2,59.8,125.5,55.5,125.5,50.2z"/>
	<path shaper:cutDepth="0.011" class="st1" d="M238.5,184.3c0-21.1-17.1-38.2-38.2-38.2s-38.2,17.1-38.2,38.2s17.1,38.2,38.2,38.2
		S238.5,205.4,238.5,184.3C238.5,184.4,238.5,184.3,238.5,184.3z"/>
	<path shaper:cutDepth="0.011" class="st1" d="M340.2,224.4c0-4.6-3.7-8.3-8.3-8.3s-8.3,3.7-8.3,8.3l0,0c0,4.6,3.7,8.3,8.3,8.3
		S340.2,229,340.2,224.4L340.2,224.4z"/>
	<path shaper:cutDepth="0.011" class="st1" d="M139.9,288.3c0-4.6-3.7-8.3-8.3-8.3s-8.3,3.7-8.3,8.3s3.7,8.3,8.3,8.3
		C136.1,296.6,139.9,292.9,139.9,288.3L139.9,288.3z"/>
	<path shaper:cutDepth="0.011" class="st1" d="M211.7,240.9c0-6.3-5.1-11.3-11.3-11.3c-6.3,0-11.3,5.1-11.3,11.3l0,0
		c0,6.3,5.1,11.3,11.3,11.3C206.6,252.2,211.7,247.1,211.7,240.9L211.7,240.9z"/>
	<path shaper:cutDepth="0.011" class="st1" d="M343.2,184.3c0-6.3-5.1-11.3-11.3-11.3c-6.3,0-11.3,5.1-11.3,11.3l0,0
		c0,6.3,5.1,11.3,11.3,11.3C338.1,195.7,343.2,190.6,343.2,184.3C343.2,184.4,343.2,184.3,343.2,184.3z"/>
	<path shaper:cutDepth="0.011" class="st1" d="M74.1,94.9c0-5.3-4.3-9.6-9.6-9.6s-9.6,4.3-9.6,9.6c0,5.3,4.3,9.6,9.6,9.6
		S74.1,100.2,74.1,94.9z"/>
	<path shaper:cutDepth="0.011" class="st1" d="M266.4,72.2c0-9.5-7.7-17.2-17.2-17.2c-9.5,0-17.2,7.7-17.2,17.2l0,0
		c0,9.5,7.7,17.2,17.2,17.2C258.7,89.4,266.4,81.7,266.4,72.2L266.4,72.2z"/>
	<path shaper:cutDepth="0.011" class="st1" d="M331.1,72.2c0-9.5-7.7-17.2-17.2-17.2s-17.2,7.7-17.2,17.2l0,0
		c0,9.5,7.7,17.2,17.2,17.2C323.4,89.4,331.1,81.7,331.1,72.2L331.1,72.2z"/>
	<path shaper:cutDepth="0.011" class="st1" d="M74.1,50.3c0-5.3-4.3-9.6-9.6-9.6s-9.6,4.3-9.6,9.6s4.3,9.6,9.6,9.6
		S74.1,55.6,74.1,50.3z"/>
	<path shaper:cutDepth="0.011" class="st1" d="M308.6,184.3c0-12.5-10.1-22.7-22.7-22.7c-12.5,0-22.7,10.1-22.7,22.7l0,0
		c0,12.5,10.1,22.7,22.7,22.7S308.6,196.9,308.6,184.3L308.6,184.3z"/>
	<path shaper:cutDepth="0.011" class="st1" d="M354.5,281.3c0-12.5-10.1-22.7-22.7-22.7s-22.7,10.1-22.7,22.7l0,0
		c0,12.5,10.1,22.7,22.7,22.7S354.5,293.8,354.5,281.3L354.5,281.3z"/>
	<path shaper:cutDepth="0.011" class="st1" d="M139.9,246.6c0-4.6-3.7-8.3-8.3-8.3s-8.3,3.7-8.3,8.3l0,0c0,4.6,3.7,8.3,8.3,8.3
		S139.9,251.2,139.9,246.6z"/>
	<path shaper:cutDepth="0.011" class="st1" d="M18.6,13.4l0.1,0.8L18.6,15l-0.2,0.8l-0.3,0.7l-0.5,0.6L17,17.7l-0.6,0.5l-0.7,0.3
		L15,18.6l-0.8,0.1l-0.8-0.1l-0.8-0.2l-0.7-0.3l-0.6-0.5L10.7,17l-0.5-0.6l-0.3-0.7L9.7,15l-0.1-0.8l0.1-0.8l0.2-0.8l0.3-0.7
		l0.5-0.6l0.6-0.6l0.6-0.5l0.7-0.3l0.8-0.2l0.8-0.1L15,9.7l0.8,0.2l0.7,0.3l0.6,0.5l0.6,0.6l0.5,0.6l0.3,0.7L18.6,13.4z"/>
	<path shaper:cutDepth="0.011" class="st1" d="M18.6,325.2l0.1,0.8l-0.1,0.8l-0.2,0.8l-0.3,0.7l-0.5,0.6l-0.6,0.6l-0.6,0.5l-0.7,0.3
		l-0.8,0.2l-0.8,0.1l-0.8-0.1l-0.8-0.2l-0.7-0.3l-0.6-0.5l-0.6-0.6l-0.5-0.6l-0.3-0.7l-0.2-0.8V326l0.1-0.8l0.2-0.8l0.3-0.7l0.5-0.6
		l0.6-0.6l0.6-0.5l0.7-0.3l0.8-0.2l0.8-0.1l0.8,0.1l0.8,0.2l0.7,0.3l0.6,0.5l0.6,0.6l0.5,0.6l0.3,0.7L18.6,325.2z"/>
	<path shaper:cutDepth="0.011" class="st1" d="M421.2,13.4l0.1,0.8l-0.1,0.8l-0.2,0.8l-0.3,0.7l-0.5,0.6l-0.6,0.6l-0.6,0.5l-0.7,0.3
		l-0.8,0.2l-0.8,0.1l-0.8-0.1l-0.8-0.2l-0.7-0.3l-0.6-0.5l-0.6-0.6l-0.5-0.6l-0.3-0.7l-0.2-0.8l-0.1-0.8l0.1-0.8l0.2-0.8l0.3-0.7
		l0.5-0.6l0.6-0.6l0.6-0.5l0.7-0.3l0.8-0.2l0.8-0.1l0.8,0.1l0.8,0.2l0.7,0.3l0.6,0.5l0.6,0.6l0.5,0.6l0.3,0.7L421.2,13.4z"/>
	<path shaper:cutDepth="0.011" class="st1" d="M421.2,325.2l0.1,0.8l-0.1,0.8l-0.2,0.8l-0.3,0.7l-0.5,0.6l-0.6,0.6L419,330l-0.7,0.3
		l-0.8,0.2l-0.8,0.1l-0.8-0.1l-0.8-0.2l-0.7-0.3l-0.6-0.5l-0.6-0.6l-0.5-0.6l-0.3-0.7l-0.2-0.8l-0.1-0.8l0.1-0.8l0.2-0.8l0.3-0.7
		l0.5-0.6l0.6-0.6l0.6-0.5l0.7-0.3l0.8-0.2l0.8-0.1l0.8,0.1l0.8,0.2l0.7,0.3l0.6,0.5l0.6,0.6l0.5,0.6l0.3,0.7L421.2,325.2z"/>
	<g>
		<path class="st2" d="M61.1,262.1c-1.1,0-2.2,0.1-3.3,0.4v19.9c1.9,1.2,4.3,1.3,6.2,0.2v-20.2C63,262.2,62,262.1,61.1,262.1"/>
		<path class="st2" d="M71.6,256.5h-9v-9.9c1.1-1,1.1-2.6,0.2-3.7c-0.5-0.5-1.2-0.8-1.9-0.9c-1.4,0-2.6,1.2-2.6,2.6
			c0,0.7,0.3,1.4,0.9,1.9v9.9h-9l4.3,2.7h3.3v1.2c1.1-0.2,2.2-0.3,3.3-0.3c1,0,1.9,0.1,2.9,0.3v-1.1h3.3L71.6,256.5z"/>
		<path class="st2" d="M68.6,273.5h6.7c-1.1-4.9-4.7-8.8-9.4-10.5v7.2C67,271,68,272.2,68.6,273.5"/>
		<path class="st2" d="M65.9,283.7v0.1l-0.8,0.4l-0.3,0.1h-0.1c-0.2,0.1-0.3,0.2-0.5,0.2c0,0-0.1,0-0.1,0.1
			c-0.2,0.1-0.4,0.1-0.6,0.2c-0.1,0-0.1,0-0.2,0c-0.2,0.1-0.4,0.1-0.5,0.1c-0.2,0.1-0.5,0.1-0.7,0.1H62c-0.3,0-0.6,0.1-0.9,0.1
			c-0.2,0-0.5,0-0.7,0c-0.1,0-0.2,0-0.2,0c-0.2,0-0.3,0-0.5-0.1c-0.1,0-0.3-0.1-0.4-0.1c-0.1,0-0.3-0.1-0.4-0.1
			c-0.1,0-0.3-0.1-0.4-0.1c-0.1,0-0.1,0-0.2-0.1c-0.3-0.1-0.5-0.2-0.8-0.4c-0.1-0.1-0.3-0.2-0.4-0.2c-0.1,0-0.2-0.1-0.2-0.1
			l-0.3-0.2l-0.6-0.4v-0.1c-3.6-3-4-8.3-1-11.9c0.3-0.4,0.6-0.7,1-1v-7.4c-5.7,2.2-9.4,7.7-9.3,13.8c0,8.2,6.5,14.8,14.6,14.8
			c6.9,0,12.7-4.8,14.2-11.4h-6.7C68,281.7,67,282.8,65.9,283.7"/>
		<path class="st2" d="M58.2,284.7c-0.3-0.1-0.5-0.2-0.8-0.4C57.6,284.5,57.9,284.6,58.2,284.7"/>
		<path class="st2" d="M56.7,284c0.1,0,0.2,0.1,0.2,0.1c-0.2-0.1-0.4-0.2-0.5-0.3L56.7,284z"/>
		<path class="st2" d="M62,285.2c-0.3,0-0.6,0.1-0.9,0.1C61.4,285.3,61.7,285.3,62,285.2"/>
		<path class="st2" d="M64.8,284.3l0.3-0.1c-0.1,0.1-0.2,0.1-0.4,0.2C64.8,284.4,64.8,284.4,64.8,284.3"/>
		<path class="st2" d="M64.2,284.6c0,0-0.1,0-0.1,0.1C64.1,284.7,64.2,284.7,64.2,284.6"/>
		<path class="st2" d="M63.5,284.9c-0.1,0-0.1,0-0.2,0C63.4,284.9,63.5,284.9,63.5,284.9"/>
		<path class="st2" d="M62.8,285.1c-0.2,0.1-0.5,0.1-0.7,0.1C62.3,285.2,62.6,285.1,62.8,285.1"/>
		<path class="st2" d="M65.9,283.8v-0.1c-0.2,0.2-0.5,0.4-0.8,0.5L65.9,283.8z"/>
		<path class="st2" d="M55.8,283.4l0.6,0.4C56.2,283.7,56,283.5,55.8,283.4L55.8,283.4z"/>
	</g>
</g>
<g id="Text" class="st3">
	<text transform="matrix(1 0 0 1 185.0401 269.4944)" class="st4 st5 st6">Spool</text>
	<text transform="matrix(1 0 0 1 351.7548 154.6245)" class="st4 st5 st6">PWR Shld</text>
	<text transform="matrix(1 0 0 1 101.9655 230.2645)" class="st4 st5 st6">SHLD Front</text>
	<text transform="matrix(1 0 0 1 102.7955 272.6002)" class="st4 st5 st6">SHLD Back</text>
	<text transform="matrix(1 0 0 1 353.2598 43.3359)" class="st4 st5 st6">Weapons</text>
	<text transform="matrix(1 0 0 1 100.5003 32.9614)" class="st4 st5 st6">Lights</text>
	<text transform="matrix(1 0 0 1 48.1622 77.5729)" class="st4 st5 st6">Doors</text>
	<text transform="matrix(1 0 0 1 105.1197 77.5729)" class="st4 st5 st6">ATC</text>
	<text transform="matrix(1 0 0 1 255.5598 154.6246)" class="st4 st5 st6">PWR Weap</text>
	<text transform="matrix(1 0 0 1 307.6901 250.5959)" class="st4 st5 st6">PWR Eng</text>
	<text transform="matrix(1 0 0 1 312.5682 209.9738)" class="st4 st5 st7">PWR RST</text>
	<text transform="matrix(1 0 0 1 175.3351 125.5217)" class="st4 st5 st6">Quantum</text>
	<text transform="matrix(1 0 0 1 186.0351 137.5217)" class="st4 st5 st6">Drive</text>
	<text transform="matrix(1 0 0 1 43.0541 32.9615)" class="st8 st5 st6">Landing</text>
	<text transform="matrix(1 0 0 1 166.9252 43.3359)" class="st4 st5 st6">Power</text>
	<text transform="matrix(1 0 0 1 228.9202 43.3359)" class="st4 st5 st6">Engines</text>
	<text transform="matrix(1 0 0 1 295.0154 43.3359)" class="st4 st5 st6">Shields</text>
</g>
<g id="Layer_3">
	<g class="st9">
		<path class="st2" d="M190,263.9c-0.2-0.2-0.4-0.3-0.6-0.4c-0.2-0.1-0.4-0.1-0.6-0.1c-0.3,0-0.5,0.1-0.6,0.2
			c-0.2,0.1-0.2,0.3-0.2,0.5c0,0.1,0,0.2,0.1,0.3c0.1,0.1,0.2,0.2,0.3,0.2s0.3,0.1,0.4,0.2c0.2,0,0.3,0.1,0.5,0.2
			c0.6,0.2,1.1,0.5,1.4,0.9c0.3,0.4,0.4,0.8,0.4,1.4c0,0.4-0.1,0.7-0.2,1c-0.1,0.3-0.3,0.6-0.6,0.8s-0.6,0.4-0.9,0.5
			c-0.4,0.1-0.8,0.2-1.2,0.2c-1,0-1.8-0.3-2.6-0.8l0.8-1.6c0.3,0.3,0.6,0.5,0.9,0.6c0.3,0.1,0.6,0.2,0.8,0.2c0.3,0,0.6-0.1,0.7-0.2
			c0.2-0.1,0.2-0.3,0.2-0.5c0-0.1,0-0.2-0.1-0.3s-0.1-0.2-0.2-0.2c-0.1-0.1-0.2-0.1-0.4-0.2c-0.1-0.1-0.3-0.1-0.5-0.2
			c-0.3-0.1-0.5-0.2-0.7-0.3c-0.2-0.1-0.5-0.2-0.6-0.4s-0.3-0.4-0.5-0.6s-0.2-0.6-0.2-0.9c0-0.4,0.1-0.7,0.2-1
			c0.1-0.3,0.3-0.6,0.5-0.8c0.2-0.2,0.5-0.4,0.8-0.5c0.3-0.1,0.7-0.2,1.1-0.2c0.4,0,0.8,0.1,1.2,0.2s0.8,0.3,1.2,0.5L190,263.9z"/>
		<path class="st2" d="M193.9,272.1h-1.8v-7.7h1.8v0.6c0.4-0.5,0.9-0.7,1.6-0.7c0.4,0,0.7,0.1,1,0.2c0.3,0.1,0.6,0.3,0.8,0.6
			c0.2,0.2,0.4,0.5,0.5,0.9c0.1,0.3,0.2,0.7,0.2,1.1s-0.1,0.7-0.2,1.1c-0.1,0.3-0.3,0.6-0.5,0.9c-0.2,0.2-0.5,0.4-0.8,0.6
			c-0.3,0.1-0.7,0.2-1,0.2c-0.6,0-1.2-0.2-1.6-0.7V272.1z M196.2,266.9c0-0.2,0-0.3-0.1-0.5s-0.1-0.3-0.2-0.4s-0.2-0.2-0.4-0.3
			s-0.3-0.1-0.5-0.1c-0.2,0-0.3,0-0.5,0.1c-0.1,0.1-0.3,0.1-0.4,0.2c-0.1,0.1-0.2,0.2-0.2,0.4c-0.1,0.1-0.1,0.3-0.1,0.5
			c0,0.2,0,0.3,0.1,0.4c0.1,0.1,0.1,0.3,0.2,0.4c0.1,0.1,0.2,0.2,0.4,0.2c0.1,0.1,0.3,0.1,0.5,0.1c0.2,0,0.3,0,0.5-0.1
			c0.1-0.1,0.3-0.1,0.4-0.2c0.1-0.1,0.2-0.2,0.2-0.4C196.2,267.2,196.2,267.1,196.2,266.9z"/>
		<path class="st2" d="M198.9,266.9c0-0.4,0.1-0.7,0.2-1.1s0.4-0.6,0.6-0.9s0.6-0.4,1-0.6c0.4-0.1,0.8-0.2,1.2-0.2
			c0.4,0,0.8,0.1,1.2,0.2c0.4,0.1,0.7,0.3,1,0.6c0.3,0.2,0.5,0.5,0.6,0.9s0.2,0.7,0.2,1.1c0,0.4-0.1,0.8-0.2,1.1
			c-0.2,0.3-0.4,0.6-0.6,0.9c-0.3,0.2-0.6,0.4-1,0.6c-0.4,0.1-0.8,0.2-1.2,0.2c-0.4,0-0.8-0.1-1.2-0.2c-0.4-0.1-0.7-0.3-1-0.6
			c-0.3-0.2-0.5-0.5-0.6-0.9S198.9,267.3,198.9,266.9z M200.8,266.9c0,0.2,0,0.3,0.1,0.5c0.1,0.1,0.1,0.3,0.2,0.4
			c0.1,0.1,0.2,0.2,0.4,0.2c0.1,0.1,0.3,0.1,0.5,0.1s0.3,0,0.5-0.1c0.1-0.1,0.3-0.1,0.4-0.2c0.1-0.1,0.2-0.2,0.2-0.4
			c0.1-0.1,0.1-0.3,0.1-0.5c0-0.2,0-0.3-0.1-0.5c-0.1-0.1-0.1-0.3-0.2-0.4c-0.1-0.1-0.2-0.2-0.4-0.2c-0.1-0.1-0.3-0.1-0.5-0.1
			s-0.3,0-0.5,0.1c-0.1,0.1-0.3,0.1-0.4,0.2c-0.1,0.1-0.2,0.2-0.2,0.4S200.8,266.7,200.8,266.9z"/>
		<path class="st2" d="M205.9,266.9c0-0.4,0.1-0.7,0.2-1.1s0.4-0.6,0.6-0.9s0.6-0.4,1-0.6c0.4-0.1,0.8-0.2,1.2-0.2
			c0.4,0,0.8,0.1,1.2,0.2c0.4,0.1,0.7,0.3,1,0.6s0.5,0.5,0.6,0.9s0.2,0.7,0.2,1.1c0,0.4-0.1,0.8-0.2,1.1c-0.2,0.3-0.4,0.6-0.6,0.9
			s-0.6,0.4-1,0.6c-0.4,0.1-0.8,0.2-1.2,0.2c-0.4,0-0.8-0.1-1.2-0.2c-0.4-0.1-0.7-0.3-1-0.6c-0.3-0.2-0.5-0.5-0.6-0.9
			S205.9,267.3,205.9,266.9z M207.8,266.9c0,0.2,0,0.3,0.1,0.5c0.1,0.1,0.1,0.3,0.2,0.4c0.1,0.1,0.2,0.2,0.4,0.2
			c0.1,0.1,0.3,0.1,0.5,0.1s0.3,0,0.5-0.1c0.1-0.1,0.3-0.1,0.4-0.2c0.1-0.1,0.2-0.2,0.2-0.4c0.1-0.1,0.1-0.3,0.1-0.5
			c0-0.2,0-0.3-0.1-0.5s-0.1-0.3-0.2-0.4s-0.2-0.2-0.4-0.2c-0.1-0.1-0.3-0.1-0.5-0.1s-0.3,0-0.5,0.1c-0.1,0.1-0.3,0.1-0.4,0.2
			c-0.1,0.1-0.2,0.2-0.2,0.4S207.8,266.7,207.8,266.9z"/>
		<path class="st2" d="M214.9,261.2v8.3h-1.8v-8.3H214.9z"/>
	</g>
	<g class="st9">
		<path class="st2" d="M354.5,154.6h-2v-7.5h3.1c0.8,0,1.5,0.2,1.9,0.7c0.5,0.4,0.7,1.1,0.7,1.9c0,0.8-0.2,1.4-0.7,1.9
			c-0.5,0.4-1.1,0.7-1.9,0.7h-1.2V154.6z M354.5,150.5h0.6c0.7,0,1.1-0.3,1.1-0.9c0-0.6-0.4-0.9-1.1-0.9h-0.6V150.5z"/>
		<path class="st2" d="M360.6,147.1l1.3,4.9l1.6-4.9h1.6l1.6,4.9l1.3-4.9h2l-2.2,7.5h-2l-1.5-4.4l-1.5,4.4h-2l-2.2-7.5H360.6z"/>
		<path class="st2" d="M377.1,154.6h-2.4l-1.9-2.9v2.9h-2v-7.5h3c0.4,0,0.8,0.1,1.1,0.2c0.3,0.1,0.6,0.3,0.8,0.5
			c0.2,0.2,0.4,0.5,0.5,0.7c0.1,0.3,0.2,0.6,0.2,0.9c0,0.6-0.1,1-0.4,1.4c-0.3,0.4-0.7,0.6-1.2,0.7L377.1,154.6z M372.7,150.5h0.4
			c0.4,0,0.7-0.1,0.9-0.2c0.2-0.2,0.3-0.4,0.3-0.7c0-0.3-0.1-0.5-0.3-0.7c-0.2-0.2-0.5-0.2-0.9-0.2h-0.4V150.5z"/>
		<path class="st2" d="M385.4,149c-0.2-0.2-0.4-0.3-0.6-0.4c-0.2-0.1-0.4-0.1-0.6-0.1c-0.3,0-0.5,0.1-0.6,0.2
			c-0.2,0.1-0.2,0.3-0.2,0.5c0,0.1,0,0.2,0.1,0.3c0.1,0.1,0.2,0.2,0.3,0.2s0.3,0.1,0.4,0.2c0.2,0,0.3,0.1,0.5,0.2
			c0.6,0.2,1.1,0.5,1.4,0.9c0.3,0.4,0.4,0.8,0.4,1.4c0,0.4-0.1,0.7-0.2,1s-0.3,0.6-0.6,0.8s-0.6,0.4-0.9,0.5
			c-0.4,0.1-0.8,0.2-1.2,0.2c-1,0-1.8-0.3-2.6-0.8l0.8-1.6c0.3,0.3,0.6,0.5,0.9,0.6c0.3,0.1,0.6,0.2,0.8,0.2c0.3,0,0.6-0.1,0.7-0.2
			c0.2-0.1,0.2-0.3,0.2-0.5c0-0.1,0-0.2-0.1-0.3s-0.1-0.2-0.2-0.2c-0.1-0.1-0.2-0.1-0.4-0.2c-0.2-0.1-0.3-0.1-0.5-0.2
			c-0.3-0.1-0.5-0.2-0.7-0.3c-0.2-0.1-0.5-0.2-0.7-0.4c-0.2-0.2-0.3-0.4-0.5-0.6c-0.1-0.2-0.2-0.6-0.2-0.9c0-0.4,0.1-0.7,0.2-1
			c0.1-0.3,0.3-0.6,0.5-0.8c0.2-0.2,0.5-0.4,0.8-0.5s0.7-0.2,1.1-0.2c0.4,0,0.8,0.1,1.2,0.2c0.4,0.1,0.8,0.3,1.2,0.5L385.4,149z"/>
		<path class="st2" d="M387.6,146.3h1.8v3.8c0.2-0.3,0.5-0.5,0.8-0.6c0.3-0.1,0.6-0.2,0.9-0.2c0.6,0,1.1,0.2,1.5,0.5
			s0.5,0.8,0.5,1.4v3.3h-1.8V152c0-0.3,0-0.5-0.1-0.6s-0.1-0.3-0.2-0.4c-0.2-0.1-0.4-0.2-0.6-0.2c-0.3,0-0.5,0.1-0.7,0.3
			c-0.2,0.2-0.2,0.4-0.2,0.8v2.7h-1.8V146.3z"/>
		<path class="st2" d="M396,146.3v8.3h-1.8v-8.3H396z"/>
		<path class="st2" d="M401.2,146.3h1.8v8.3h-1.8v-0.6c-0.4,0.5-0.9,0.7-1.6,0.7c-0.4,0-0.7-0.1-1-0.2c-0.3-0.1-0.6-0.3-0.8-0.6
			s-0.4-0.5-0.5-0.9s-0.2-0.7-0.2-1.1c0-0.4,0.1-0.7,0.2-1c0.1-0.3,0.3-0.6,0.5-0.9c0.2-0.2,0.5-0.4,0.8-0.6c0.3-0.1,0.7-0.2,1-0.2
			c0.6,0,1.2,0.2,1.6,0.7V146.3z M398.9,152c0,0.2,0,0.3,0.1,0.5c0.1,0.1,0.1,0.3,0.2,0.4c0.1,0.1,0.2,0.2,0.4,0.2
			c0.1,0.1,0.3,0.1,0.5,0.1c0.2,0,0.3,0,0.5-0.1c0.1-0.1,0.3-0.1,0.4-0.2c0.1-0.1,0.2-0.2,0.2-0.4c0.1-0.1,0.1-0.3,0.1-0.4
			c0-0.2,0-0.3-0.1-0.5s-0.1-0.3-0.2-0.4s-0.2-0.2-0.4-0.2c-0.1-0.1-0.3-0.1-0.5-0.1s-0.3,0-0.5,0.1c-0.1,0.1-0.3,0.1-0.4,0.2
			c-0.1,0.1-0.2,0.2-0.2,0.4C399,151.7,398.9,151.9,398.9,152z"/>
	</g>
	<g class="st9">
		<path class="st2" d="M106.9,224.7c-0.2-0.2-0.4-0.3-0.6-0.4c-0.2-0.1-0.4-0.1-0.6-0.1c-0.3,0-0.5,0.1-0.6,0.2
			c-0.2,0.1-0.2,0.3-0.2,0.5c0,0.1,0,0.2,0.1,0.3c0.1,0.1,0.2,0.2,0.3,0.2s0.3,0.1,0.4,0.2c0.2,0,0.3,0.1,0.5,0.2
			c0.6,0.2,1.1,0.5,1.4,0.9c0.3,0.4,0.4,0.8,0.4,1.4c0,0.4-0.1,0.7-0.2,1c-0.1,0.3-0.3,0.6-0.6,0.8s-0.6,0.4-0.9,0.5
			c-0.4,0.1-0.8,0.2-1.2,0.2c-1,0-1.8-0.3-2.6-0.8l0.8-1.6c0.3,0.3,0.6,0.5,0.9,0.6c0.3,0.1,0.6,0.2,0.8,0.2c0.3,0,0.6-0.1,0.7-0.2
			c0.2-0.1,0.2-0.3,0.2-0.5c0-0.1,0-0.2-0.1-0.3s-0.1-0.2-0.2-0.2c-0.1-0.1-0.2-0.1-0.4-0.2c-0.1-0.1-0.3-0.1-0.5-0.2
			c-0.3-0.1-0.5-0.2-0.7-0.3c-0.2-0.1-0.5-0.2-0.6-0.4s-0.3-0.4-0.5-0.6s-0.2-0.6-0.2-0.9c0-0.4,0.1-0.7,0.2-1
			c0.1-0.3,0.3-0.6,0.5-0.8c0.2-0.2,0.5-0.4,0.8-0.5c0.3-0.1,0.7-0.2,1.1-0.2c0.4,0,0.8,0.1,1.2,0.2s0.8,0.3,1.2,0.5L106.9,224.7z"
			/>
		<path class="st2" d="M111.2,225.6h2.8v-2.9h2v7.5h-2v-3.1h-2.8v3.1h-2v-7.5h2V225.6z"/>
		<path class="st2" d="M119.5,222.7v5.9h2.4v1.7h-4.3v-7.5H119.5z"/>
		<path class="st2" d="M122.9,222.7h2.9c0.5,0,1,0.1,1.4,0.3c0.5,0.2,0.8,0.5,1.2,0.8c0.3,0.3,0.6,0.7,0.8,1.2
			c0.2,0.5,0.3,0.9,0.3,1.4c0,0.5-0.1,1-0.3,1.4c-0.2,0.5-0.5,0.9-0.8,1.2c-0.3,0.3-0.7,0.6-1.2,0.8c-0.4,0.2-0.9,0.3-1.5,0.3h-2.9
			V222.7z M124.8,228.6h0.5c0.3,0,0.6-0.1,0.9-0.2c0.3-0.1,0.5-0.3,0.7-0.4s0.3-0.4,0.4-0.7c0.1-0.3,0.1-0.5,0.1-0.8
			c0-0.3,0-0.6-0.1-0.8c-0.1-0.3-0.2-0.5-0.4-0.7s-0.4-0.3-0.7-0.4c-0.3-0.1-0.6-0.2-0.9-0.2h-0.5V228.6z"/>
		<path class="st2" d="M138.4,224.4h-2.4v1.3h2.2v1.7h-2.2v3h-2v-7.5h4.3V224.4z"/>
		<path class="st2" d="M139.4,225.1h1.8v0.8c0.2-0.3,0.4-0.5,0.7-0.7c0.3-0.2,0.6-0.2,1-0.2c0,0,0.1,0,0.2,0s0.1,0,0.2,0v1.7
			c-0.2-0.1-0.5-0.2-0.8-0.2c-0.4,0-0.7,0.1-0.9,0.4s-0.3,0.6-0.3,1.1v2.2h-1.8V225.1z"/>
		<path class="st2" d="M143.9,227.7c0-0.4,0.1-0.7,0.2-1.1c0.2-0.3,0.4-0.6,0.6-0.9s0.6-0.4,1-0.6c0.4-0.1,0.8-0.2,1.2-0.2
			c0.4,0,0.8,0.1,1.2,0.2c0.4,0.1,0.7,0.3,1,0.6s0.5,0.5,0.6,0.9s0.2,0.7,0.2,1.1c0,0.4-0.1,0.8-0.2,1.1c-0.2,0.3-0.4,0.6-0.6,0.9
			s-0.6,0.4-1,0.6c-0.4,0.1-0.8,0.2-1.2,0.2c-0.4,0-0.8-0.1-1.2-0.2c-0.4-0.1-0.7-0.3-1-0.6c-0.3-0.2-0.5-0.5-0.6-0.9
			C144,228.5,143.9,228.1,143.9,227.7z M145.8,227.7c0,0.2,0,0.3,0.1,0.5c0.1,0.1,0.1,0.3,0.2,0.4c0.1,0.1,0.2,0.2,0.4,0.2
			c0.1,0.1,0.3,0.1,0.5,0.1s0.3,0,0.5-0.1c0.1-0.1,0.3-0.1,0.4-0.2c0.1-0.1,0.2-0.2,0.2-0.4c0.1-0.1,0.1-0.3,0.1-0.5
			c0-0.2,0-0.3-0.1-0.5s-0.1-0.3-0.2-0.4s-0.2-0.2-0.4-0.2c-0.1-0.1-0.3-0.1-0.5-0.1s-0.3,0-0.5,0.1c-0.1,0.1-0.3,0.1-0.4,0.2
			s-0.2,0.2-0.2,0.4S145.8,227.5,145.8,227.7z"/>
		<path class="st2" d="M151.1,225.1h1.8v0.6c0.2-0.3,0.5-0.5,0.8-0.6c0.3-0.1,0.6-0.2,0.9-0.2c0.4,0,0.7,0.1,0.9,0.2
			c0.3,0.1,0.5,0.3,0.7,0.5c0.1,0.2,0.2,0.4,0.3,0.6c0.1,0.2,0.1,0.5,0.1,0.7v3.3h-1.8v-2.6c0-0.3,0-0.5-0.1-0.6
			c0-0.2-0.1-0.3-0.2-0.4c-0.1-0.1-0.2-0.1-0.3-0.2c-0.1,0-0.2,0-0.3,0c-0.3,0-0.5,0.1-0.7,0.3c-0.2,0.2-0.2,0.4-0.2,0.8v2.7h-1.8
			V225.1z"/>
		<path class="st2" d="M159.8,226.6v3.6H158v-3.6h-0.6v-1.5h0.6v-1.5h1.8v1.5h1v1.5H159.8z"/>
	</g>
	<g class="st9">
		<path class="st2" d="M107.7,267c-0.2-0.2-0.4-0.3-0.6-0.4c-0.2-0.1-0.4-0.1-0.6-0.1c-0.3,0-0.5,0.1-0.6,0.2
			c-0.2,0.1-0.2,0.3-0.2,0.5c0,0.1,0,0.2,0.1,0.3c0.1,0.1,0.2,0.2,0.3,0.2s0.3,0.1,0.4,0.2c0.2,0,0.3,0.1,0.5,0.2
			c0.6,0.2,1.1,0.5,1.4,0.9c0.3,0.4,0.4,0.8,0.4,1.4c0,0.4-0.1,0.7-0.2,1c-0.1,0.3-0.3,0.6-0.6,0.8s-0.6,0.4-0.9,0.5
			c-0.4,0.1-0.8,0.2-1.2,0.2c-1,0-1.8-0.3-2.6-0.8l0.8-1.6c0.3,0.3,0.6,0.5,0.9,0.6c0.3,0.1,0.6,0.2,0.8,0.2c0.3,0,0.6-0.1,0.7-0.2
			c0.2-0.1,0.2-0.3,0.2-0.5c0-0.1,0-0.2-0.1-0.3s-0.1-0.2-0.2-0.2c-0.1-0.1-0.2-0.1-0.4-0.2c-0.1-0.1-0.3-0.1-0.5-0.2
			c-0.3-0.1-0.5-0.2-0.7-0.3c-0.2-0.1-0.5-0.2-0.6-0.4s-0.3-0.4-0.5-0.6s-0.2-0.6-0.2-0.9c0-0.4,0.1-0.7,0.2-1
			c0.1-0.3,0.3-0.6,0.5-0.8c0.2-0.2,0.5-0.4,0.8-0.5c0.3-0.1,0.7-0.2,1.1-0.2c0.4,0,0.8,0.1,1.2,0.2s0.8,0.3,1.2,0.5L107.7,267z"/>
		<path class="st2" d="M112,268h2.8v-2.9h2v7.5h-2v-3.1H112v3.1h-2v-7.5h2V268z"/>
		<path class="st2" d="M120.3,265.1v5.9h2.4v1.7h-4.3v-7.5H120.3z"/>
		<path class="st2" d="M123.7,265.1h2.9c0.5,0,1,0.1,1.4,0.3c0.5,0.2,0.8,0.5,1.2,0.8c0.3,0.3,0.6,0.7,0.8,1.2
			c0.2,0.5,0.3,0.9,0.3,1.4c0,0.5-0.1,1-0.3,1.4c-0.2,0.5-0.5,0.9-0.8,1.2c-0.3,0.3-0.7,0.6-1.2,0.8c-0.4,0.2-0.9,0.3-1.5,0.3h-2.9
			V265.1z M125.7,270.9h0.5c0.3,0,0.6-0.1,0.9-0.2c0.3-0.1,0.5-0.3,0.7-0.4s0.3-0.4,0.4-0.7c0.1-0.3,0.1-0.5,0.1-0.8
			c0-0.3,0-0.6-0.1-0.8c-0.1-0.3-0.2-0.5-0.4-0.7s-0.4-0.3-0.7-0.4c-0.3-0.1-0.6-0.2-0.9-0.2h-0.5V270.9z"/>
		<path class="st2" d="M135,265.1h2.9c0.7,0,1.2,0.2,1.6,0.5s0.5,0.8,0.5,1.4c0,0.4-0.1,0.7-0.2,0.9s-0.3,0.5-0.6,0.6
			c0.3,0.1,0.5,0.1,0.7,0.2c0.2,0.1,0.4,0.2,0.5,0.4c0.1,0.2,0.2,0.3,0.3,0.5s0.1,0.4,0.1,0.6c0,0.4-0.1,0.7-0.2,0.9
			c-0.1,0.3-0.3,0.5-0.5,0.7s-0.5,0.3-0.8,0.4c-0.3,0.1-0.7,0.1-1.1,0.1H135V265.1z M136.9,268h0.4c0.6,0,0.9-0.2,0.9-0.7
			c0-0.5-0.3-0.7-0.9-0.7h-0.4V268z M136.9,271.1h0.4c0.5,0,0.8-0.1,1.1-0.2c0.2-0.1,0.3-0.3,0.3-0.6c0-0.3-0.1-0.5-0.3-0.6
			c-0.2-0.1-0.6-0.2-1.1-0.2h-0.4V271.1z"/>
		<path class="st2" d="M145.7,267.5h1.8v5.1h-1.8V272c-0.4,0.5-0.9,0.7-1.6,0.7c-0.4,0-0.7-0.1-1-0.2c-0.3-0.1-0.6-0.3-0.8-0.6
			c-0.2-0.2-0.4-0.5-0.5-0.9c-0.1-0.3-0.2-0.7-0.2-1.1c0-0.4,0.1-0.7,0.2-1c0.1-0.3,0.3-0.6,0.5-0.9c0.2-0.2,0.5-0.4,0.8-0.6
			s0.7-0.2,1-0.2c0.6,0,1.2,0.2,1.6,0.7V267.5z M143.4,270c0,0.2,0,0.3,0.1,0.5c0.1,0.1,0.1,0.3,0.2,0.4c0.1,0.1,0.2,0.2,0.4,0.2
			c0.1,0.1,0.3,0.1,0.5,0.1c0.2,0,0.3,0,0.5-0.1c0.1-0.1,0.3-0.1,0.4-0.2c0.1-0.1,0.2-0.2,0.2-0.4c0.1-0.1,0.1-0.3,0.1-0.4
			c0-0.2,0-0.3-0.1-0.5s-0.1-0.3-0.2-0.4s-0.2-0.2-0.4-0.2c-0.1-0.1-0.3-0.1-0.5-0.1c-0.2,0-0.3,0-0.5,0.1c-0.1,0.1-0.3,0.1-0.4,0.2
			s-0.2,0.2-0.2,0.4C143.4,269.7,143.4,269.9,143.4,270z"/>
		<path class="st2" d="M152.6,269.1c-0.3-0.2-0.6-0.3-1-0.3c-0.2,0-0.3,0-0.5,0.1c-0.1,0.1-0.3,0.1-0.4,0.3
			c-0.1,0.1-0.2,0.2-0.3,0.4c-0.1,0.1-0.1,0.3-0.1,0.5c0,0.2,0,0.3,0.1,0.5c0.1,0.1,0.2,0.3,0.3,0.4c0.1,0.1,0.2,0.2,0.4,0.3
			c0.2,0.1,0.3,0.1,0.5,0.1c0.3,0,0.7-0.1,1-0.3v1.5c-0.4,0.2-0.9,0.3-1.3,0.3c-0.4,0-0.7-0.1-1.1-0.2c-0.3-0.1-0.6-0.3-0.9-0.5
			c-0.3-0.2-0.5-0.5-0.6-0.8c-0.2-0.3-0.2-0.7-0.2-1.1c0-0.4,0.1-0.8,0.2-1.1c0.1-0.3,0.3-0.6,0.6-0.9c0.3-0.2,0.6-0.4,0.9-0.6
			c0.4-0.1,0.7-0.2,1.1-0.2c0.4,0,0.8,0.1,1.2,0.3V269.1z"/>
		<path class="st2" d="M155.7,264.3v5l1.9-1.8h2.5l-2.6,2.4l2.7,2.8h-2.5l-2-2.1v2.1h-1.8v-8.3H155.7z"/>
	</g>
	<g class="st9">
		<path class="st2" d="M355.3,35.8l1.3,4.9l1.6-4.9h1.6l1.6,4.9l1.3-4.9h2l-2.2,7.5h-2L359,39l-1.5,4.4h-2l-2.2-7.5H355.3z"/>
		<path class="st2" d="M366.6,41.1c0,0.8,0.4,1.2,1.1,1.2c0.4,0,0.7-0.2,0.9-0.5h1.8c-0.4,1.2-1.2,1.8-2.7,1.8
			c-0.4,0-0.8-0.1-1.2-0.2c-0.4-0.1-0.7-0.3-0.9-0.6c-0.3-0.2-0.5-0.5-0.6-0.9c-0.1-0.3-0.2-0.7-0.2-1.1c0-0.4,0.1-0.8,0.2-1.2
			c0.1-0.3,0.3-0.6,0.6-0.9c0.2-0.2,0.5-0.4,0.9-0.6c0.4-0.1,0.7-0.2,1.2-0.2c0.4,0,0.8,0.1,1.2,0.2s0.6,0.3,0.9,0.6
			c0.2,0.2,0.4,0.5,0.5,0.9c0.1,0.4,0.2,0.8,0.2,1.2v0.2H366.6z M368.8,40c-0.1-0.3-0.2-0.5-0.4-0.6s-0.4-0.2-0.7-0.2
			c-0.3,0-0.5,0.1-0.7,0.2c-0.2,0.1-0.3,0.4-0.3,0.6H368.8z"/>
		<path class="st2" d="M375.4,38.2h1.8v5.1h-1.8v-0.6c-0.4,0.5-0.9,0.7-1.6,0.7c-0.4,0-0.7-0.1-1-0.2s-0.6-0.3-0.8-0.6
			c-0.2-0.2-0.4-0.5-0.5-0.9c-0.1-0.3-0.2-0.7-0.2-1.1c0-0.4,0.1-0.7,0.2-1c0.1-0.3,0.3-0.6,0.5-0.9c0.2-0.2,0.5-0.4,0.8-0.6
			s0.7-0.2,1-0.2c0.6,0,1.2,0.2,1.6,0.7V38.2z M373.1,40.8c0,0.2,0,0.3,0.1,0.5c0.1,0.1,0.1,0.3,0.2,0.4c0.1,0.1,0.2,0.2,0.4,0.2
			c0.1,0.1,0.3,0.1,0.5,0.1c0.2,0,0.3,0,0.5-0.1c0.1-0.1,0.3-0.1,0.4-0.2c0.1-0.1,0.2-0.2,0.2-0.4c0.1-0.1,0.1-0.3,0.1-0.4
			c0-0.2,0-0.3-0.1-0.5s-0.1-0.3-0.2-0.4s-0.2-0.2-0.4-0.2c-0.1-0.1-0.3-0.1-0.5-0.1c-0.2,0-0.3,0-0.5,0.1c-0.1,0.1-0.3,0.1-0.4,0.2
			c-0.1,0.1-0.2,0.2-0.2,0.4C373.2,40.4,373.1,40.6,373.1,40.8z"/>
		<path class="st2" d="M380.3,45.9h-1.8v-7.7h1.8v0.6c0.4-0.5,0.9-0.7,1.6-0.7c0.4,0,0.7,0.1,1,0.2s0.6,0.3,0.8,0.6
			c0.2,0.2,0.4,0.5,0.5,0.9c0.1,0.3,0.2,0.7,0.2,1.1s-0.1,0.7-0.2,1.1c-0.1,0.3-0.3,0.6-0.5,0.9c-0.2,0.2-0.5,0.4-0.8,0.6
			c-0.3,0.1-0.7,0.2-1,0.2c-0.6,0-1.2-0.2-1.6-0.7V45.9z M382.6,40.8c0-0.2,0-0.3-0.1-0.5s-0.1-0.3-0.2-0.4s-0.2-0.2-0.4-0.3
			s-0.3-0.1-0.5-0.1c-0.2,0-0.3,0-0.5,0.1c-0.1,0.1-0.3,0.1-0.4,0.2s-0.2,0.2-0.2,0.4s-0.1,0.3-0.1,0.5c0,0.2,0,0.3,0.1,0.4
			c0.1,0.1,0.1,0.3,0.2,0.4s0.2,0.2,0.4,0.2s0.3,0.1,0.5,0.1s0.3,0,0.5-0.1c0.1-0.1,0.3-0.1,0.4-0.2c0.1-0.1,0.2-0.2,0.2-0.4
			C382.5,41.1,382.6,40.9,382.6,40.8z"/>
		<path class="st2" d="M385.3,40.7c0-0.4,0.1-0.7,0.2-1.1c0.2-0.3,0.4-0.6,0.6-0.9s0.6-0.4,1-0.6c0.4-0.1,0.8-0.2,1.2-0.2
			c0.4,0,0.8,0.1,1.2,0.2c0.4,0.1,0.7,0.3,1,0.6s0.5,0.5,0.6,0.9s0.2,0.7,0.2,1.1c0,0.4-0.1,0.8-0.2,1.1c-0.2,0.3-0.4,0.6-0.6,0.9
			s-0.6,0.4-1,0.6c-0.4,0.1-0.8,0.2-1.2,0.2c-0.4,0-0.8-0.1-1.2-0.2c-0.4-0.1-0.7-0.3-1-0.6c-0.3-0.2-0.5-0.5-0.6-0.9
			C385.4,41.5,385.3,41.1,385.3,40.7z M387.2,40.7c0,0.2,0,0.3,0.1,0.5c0.1,0.1,0.1,0.3,0.2,0.4c0.1,0.1,0.2,0.2,0.4,0.2
			c0.1,0.1,0.3,0.1,0.5,0.1s0.3,0,0.5-0.1c0.1-0.1,0.3-0.1,0.4-0.2c0.1-0.1,0.2-0.2,0.2-0.4c0.1-0.1,0.1-0.3,0.1-0.5
			c0-0.2,0-0.3-0.1-0.5s-0.1-0.3-0.2-0.4s-0.2-0.2-0.4-0.2c-0.1-0.1-0.3-0.1-0.5-0.1s-0.3,0-0.5,0.1c-0.1,0.1-0.3,0.1-0.4,0.2
			s-0.2,0.2-0.2,0.4S387.2,40.6,387.2,40.7z"/>
		<path class="st2" d="M392.5,38.2h1.8v0.6c0.2-0.3,0.5-0.5,0.8-0.6c0.3-0.1,0.6-0.2,0.9-0.2c0.4,0,0.7,0.1,0.9,0.2
			c0.3,0.1,0.5,0.3,0.7,0.5c0.1,0.2,0.2,0.4,0.3,0.6c0.1,0.2,0.1,0.5,0.1,0.7v3.3h-1.8v-2.6c0-0.3,0-0.5-0.1-0.6
			c0-0.2-0.1-0.3-0.2-0.4c-0.1-0.1-0.2-0.1-0.3-0.2c-0.1,0-0.2,0-0.3,0c-0.3,0-0.5,0.1-0.7,0.3c-0.2,0.2-0.2,0.4-0.2,0.8v2.7h-1.8
			V38.2z"/>
		<path class="st2" d="M402.5,39.5c-0.3-0.2-0.7-0.3-1-0.3c-0.2,0-0.3,0-0.4,0.1s-0.2,0.2-0.2,0.3c0,0.1,0,0.1,0,0.1
			c0,0,0.1,0.1,0.1,0.1s0.1,0.1,0.2,0.1c0.1,0,0.3,0.1,0.4,0.1c0.5,0.1,0.9,0.3,1.1,0.5c0.2,0.3,0.4,0.6,0.4,1
			c0,0.3-0.1,0.6-0.2,0.8c-0.1,0.2-0.3,0.4-0.5,0.6c-0.2,0.2-0.5,0.3-0.8,0.4s-0.6,0.1-1,0.1c-0.7,0-1.4-0.2-2-0.6l0.7-1.3
			c0.5,0.3,1,0.5,1.4,0.5c0.2,0,0.3,0,0.4-0.1c0.1-0.1,0.2-0.2,0.2-0.3c0-0.1,0-0.1,0-0.2s-0.1-0.1-0.1-0.1c-0.1,0-0.1-0.1-0.2-0.1
			c-0.1,0-0.2-0.1-0.4-0.1c-0.6-0.1-1-0.3-1.2-0.5c-0.2-0.2-0.3-0.5-0.3-0.9c0-0.3,0.1-0.5,0.2-0.8c0.1-0.2,0.3-0.4,0.5-0.6
			c0.2-0.2,0.4-0.3,0.7-0.4c0.3-0.1,0.6-0.1,0.9-0.1c0.6,0,1.1,0.1,1.6,0.3L402.5,39.5z"/>
	</g>
	<g class="st9">
		<path class="st2" d="M103.3,25.4v5.9h2.4V33h-4.3v-7.5H103.3z"/>
		<path class="st2" d="M106.3,25.9c0-0.1,0-0.3,0.1-0.4c0.1-0.1,0.1-0.2,0.2-0.3c0.1-0.1,0.2-0.2,0.3-0.2c0.1-0.1,0.3-0.1,0.4-0.1
			s0.3,0,0.4,0.1c0.1,0.1,0.2,0.1,0.3,0.2c0.1,0.1,0.2,0.2,0.2,0.3c0.1,0.1,0.1,0.3,0.1,0.4c0,0.1,0,0.3-0.1,0.4s-0.1,0.2-0.2,0.3
			c-0.1,0.1-0.2,0.2-0.3,0.2c-0.1,0.1-0.3,0.1-0.4,0.1s-0.3,0-0.4-0.1c-0.1-0.1-0.2-0.1-0.3-0.2s-0.2-0.2-0.2-0.3
			C106.3,26.1,106.3,26,106.3,25.9z M108.3,27.8V33h-1.8v-5.1H108.3z"/>
		<path class="st2" d="M115.2,27.8v4.8c0,0.3,0,0.5,0,0.8c0,0.2-0.1,0.4-0.1,0.6c-0.1,0.2-0.2,0.4-0.4,0.6c-0.2,0.2-0.4,0.4-0.6,0.5
			c-0.2,0.1-0.5,0.2-0.8,0.3c-0.3,0.1-0.6,0.1-1,0.1c-0.4,0-0.8,0-1.1-0.2c-0.3-0.1-0.6-0.2-0.9-0.4s-0.5-0.4-0.6-0.6
			c-0.2-0.2-0.3-0.5-0.3-0.8h2c0.1,0.3,0.4,0.5,0.9,0.5c0.4,0,0.7-0.1,0.9-0.3c0.2-0.2,0.3-0.5,0.3-0.9v-0.5
			c-0.1,0.1-0.3,0.2-0.4,0.3c-0.1,0.1-0.2,0.2-0.4,0.2c-0.1,0.1-0.3,0.1-0.4,0.1c-0.1,0-0.3,0-0.5,0c-0.4,0-0.7-0.1-1-0.2
			c-0.3-0.1-0.6-0.3-0.8-0.5c-0.2-0.2-0.4-0.5-0.5-0.8c-0.1-0.3-0.2-0.7-0.2-1.1c0-0.4,0.1-0.8,0.2-1.1c0.1-0.3,0.3-0.6,0.5-0.9
			s0.5-0.4,0.8-0.6c0.3-0.1,0.7-0.2,1-0.2c0.6,0,1.1,0.2,1.5,0.7v-0.5H115.2z M111.2,30.4c0,0.2,0,0.3,0.1,0.5s0.1,0.3,0.2,0.4
			c0.1,0.1,0.2,0.2,0.4,0.2s0.3,0.1,0.5,0.1c0.2,0,0.3,0,0.5-0.1c0.1-0.1,0.3-0.1,0.4-0.2s0.2-0.2,0.2-0.4s0.1-0.3,0.1-0.5
			c0-0.2,0-0.3-0.1-0.5s-0.1-0.3-0.3-0.4c-0.1-0.1-0.2-0.2-0.4-0.2c-0.1-0.1-0.3-0.1-0.4-0.1c-0.2,0-0.3,0-0.5,0.1s-0.3,0.1-0.4,0.2
			c-0.1,0.1-0.2,0.2-0.3,0.4S111.2,30.2,111.2,30.4z"/>
		<path class="st2" d="M116.5,24.7h1.8v3.8c0.2-0.3,0.5-0.5,0.8-0.6c0.3-0.1,0.5-0.2,0.9-0.2c0.6,0,1.1,0.2,1.5,0.5s0.5,0.8,0.5,1.4
			V33h-1.8v-2.6c0-0.3,0-0.5-0.1-0.6s-0.1-0.3-0.2-0.4c-0.2-0.1-0.4-0.2-0.6-0.2c-0.3,0-0.5,0.1-0.7,0.3c-0.2,0.2-0.2,0.4-0.2,0.8
			V33h-1.8V24.7z"/>
		<path class="st2" d="M125.1,29.3V33h-1.8v-3.6h-0.6v-1.5h0.6v-1.5h1.8v1.5h1v1.5H125.1z"/>
		<path class="st2" d="M130.3,29.2c-0.3-0.2-0.7-0.3-1-0.3c-0.2,0-0.3,0-0.4,0.1s-0.2,0.2-0.2,0.3c0,0.1,0,0.1,0,0.1
			c0,0,0.1,0.1,0.1,0.1s0.1,0.1,0.2,0.1c0.1,0,0.3,0.1,0.4,0.1c0.5,0.1,0.9,0.3,1.1,0.5c0.2,0.3,0.4,0.6,0.4,1
			c0,0.3-0.1,0.6-0.2,0.8c-0.1,0.2-0.3,0.4-0.5,0.6c-0.2,0.2-0.5,0.3-0.8,0.4s-0.6,0.1-1,0.1c-0.7,0-1.4-0.2-2-0.6l0.7-1.3
			c0.5,0.3,1,0.5,1.4,0.5c0.2,0,0.3,0,0.4-0.1c0.1-0.1,0.2-0.2,0.2-0.3c0-0.1,0-0.1,0-0.2s-0.1-0.1-0.1-0.1c-0.1,0-0.1-0.1-0.2-0.1
			c-0.1,0-0.2-0.1-0.4-0.1c-0.6-0.1-1-0.3-1.2-0.5c-0.2-0.2-0.3-0.5-0.3-0.9c0-0.3,0.1-0.5,0.2-0.8c0.1-0.2,0.3-0.4,0.5-0.6
			c0.2-0.2,0.4-0.3,0.7-0.4c0.3-0.1,0.6-0.1,0.9-0.1c0.6,0,1.1,0.1,1.6,0.3L130.3,29.2z"/>
	</g>
	<g class="st9">
		<path class="st2" d="M49,70h2.9c0.5,0,1,0.1,1.4,0.3c0.5,0.2,0.8,0.5,1.2,0.8c0.3,0.3,0.6,0.7,0.8,1.2c0.2,0.5,0.3,0.9,0.3,1.4
			c0,0.5-0.1,1-0.3,1.4c-0.2,0.5-0.5,0.9-0.8,1.2c-0.3,0.3-0.7,0.6-1.2,0.8c-0.5,0.2-0.9,0.3-1.5,0.3H49V70z M50.9,75.9h0.5
			c0.3,0,0.6-0.1,0.9-0.2c0.3-0.1,0.5-0.3,0.7-0.4c0.2-0.2,0.3-0.4,0.4-0.7s0.1-0.5,0.1-0.8c0-0.3-0.1-0.6-0.1-0.8
			c-0.1-0.3-0.2-0.5-0.4-0.7c-0.2-0.2-0.4-0.3-0.7-0.4s-0.6-0.2-0.9-0.2h-0.5V75.9z"/>
		<path class="st2" d="M56.4,75c0-0.4,0.1-0.7,0.2-1.1s0.4-0.6,0.6-0.9s0.6-0.4,1-0.6c0.4-0.1,0.8-0.2,1.2-0.2
			c0.4,0,0.8,0.1,1.2,0.2c0.4,0.1,0.7,0.3,1,0.6c0.3,0.2,0.5,0.5,0.6,0.9s0.2,0.7,0.2,1.1c0,0.4-0.1,0.8-0.2,1.1
			c-0.2,0.3-0.4,0.6-0.6,0.9c-0.3,0.2-0.6,0.4-1,0.6c-0.4,0.1-0.8,0.2-1.2,0.2c-0.4,0-0.8-0.1-1.2-0.2c-0.4-0.1-0.7-0.3-1-0.6
			c-0.3-0.2-0.5-0.5-0.6-0.9S56.4,75.4,56.4,75z M58.4,75c0,0.2,0,0.3,0.1,0.5c0.1,0.1,0.1,0.3,0.2,0.4c0.1,0.1,0.2,0.2,0.4,0.2
			c0.1,0.1,0.3,0.1,0.5,0.1s0.3,0,0.5-0.1c0.1-0.1,0.3-0.1,0.4-0.2c0.1-0.1,0.2-0.2,0.2-0.4c0.1-0.1,0.1-0.3,0.1-0.5
			c0-0.2,0-0.3-0.1-0.5c-0.1-0.1-0.1-0.3-0.2-0.4c-0.1-0.1-0.2-0.2-0.4-0.2c-0.1-0.1-0.3-0.1-0.5-0.1s-0.3,0-0.5,0.1
			c-0.1,0.1-0.3,0.1-0.4,0.2c-0.1,0.1-0.2,0.2-0.2,0.4S58.4,74.8,58.4,75z"/>
		<path class="st2" d="M63.4,75c0-0.4,0.1-0.7,0.2-1.1s0.4-0.6,0.6-0.9s0.6-0.4,1-0.6c0.4-0.1,0.8-0.2,1.2-0.2
			c0.4,0,0.8,0.1,1.2,0.2c0.4,0.1,0.7,0.3,1,0.6c0.3,0.2,0.5,0.5,0.6,0.9s0.2,0.7,0.2,1.1c0,0.4-0.1,0.8-0.2,1.1
			c-0.2,0.3-0.4,0.6-0.6,0.9c-0.3,0.2-0.6,0.4-1,0.6c-0.4,0.1-0.8,0.2-1.2,0.2c-0.4,0-0.8-0.1-1.2-0.2c-0.4-0.1-0.7-0.3-1-0.6
			c-0.3-0.2-0.5-0.5-0.6-0.9S63.4,75.4,63.4,75z M65.4,75c0,0.2,0,0.3,0.1,0.5c0.1,0.1,0.1,0.3,0.2,0.4c0.1,0.1,0.2,0.2,0.4,0.2
			c0.1,0.1,0.3,0.1,0.5,0.1s0.3,0,0.5-0.1c0.1-0.1,0.3-0.1,0.4-0.2c0.1-0.1,0.2-0.2,0.2-0.4c0.1-0.1,0.1-0.3,0.1-0.5
			c0-0.2,0-0.3-0.1-0.5c-0.1-0.1-0.1-0.3-0.2-0.4c-0.1-0.1-0.2-0.2-0.4-0.2c-0.1-0.1-0.3-0.1-0.5-0.1s-0.3,0-0.5,0.1
			c-0.1,0.1-0.3,0.1-0.4,0.2c-0.1,0.1-0.2,0.2-0.2,0.4S65.4,74.8,65.4,75z"/>
		<path class="st2" d="M70.6,72.4h1.8v0.8c0.2-0.3,0.4-0.5,0.7-0.7c0.3-0.2,0.6-0.2,1-0.2c0,0,0.1,0,0.2,0s0.1,0,0.2,0v1.7
			c-0.2-0.1-0.5-0.2-0.8-0.2c-0.4,0-0.7,0.1-0.9,0.4c-0.2,0.2-0.3,0.6-0.3,1.1v2.2h-1.8V72.4z"/>
		<path class="st2" d="M78.7,73.8c-0.3-0.2-0.7-0.3-1-0.3c-0.2,0-0.3,0-0.4,0.1s-0.2,0.2-0.2,0.3c0,0.1,0,0.1,0,0.1
			c0,0,0.1,0.1,0.1,0.1s0.1,0.1,0.2,0.1c0.1,0,0.3,0.1,0.4,0.1c0.5,0.1,0.9,0.3,1.1,0.5c0.2,0.3,0.4,0.6,0.4,1
			c0,0.3-0.1,0.6-0.2,0.8c-0.1,0.2-0.3,0.4-0.5,0.6c-0.2,0.2-0.5,0.3-0.8,0.4s-0.6,0.1-1,0.1c-0.7,0-1.4-0.2-2-0.6l0.7-1.3
			c0.5,0.3,1,0.5,1.4,0.5c0.2,0,0.3,0,0.4-0.1c0.1-0.1,0.2-0.2,0.2-0.3c0-0.1,0-0.1,0-0.2s-0.1-0.1-0.1-0.1c-0.1,0-0.1-0.1-0.2-0.1
			c-0.1,0-0.2-0.1-0.4-0.1c-0.6-0.1-1-0.3-1.2-0.5c-0.2-0.2-0.3-0.5-0.3-0.9c0-0.3,0.1-0.5,0.2-0.8c0.1-0.2,0.3-0.4,0.5-0.6
			c0.2-0.2,0.4-0.3,0.7-0.4c0.3-0.1,0.6-0.1,0.9-0.1c0.6,0,1.1,0.1,1.6,0.3L78.7,73.8z"/>
	</g>
	<g class="st9">
		<path class="st2" d="M110.5,76.3h-2.8l-0.4,1.3h-2.1l2.9-7.5h2.1l2.9,7.5H111L110.5,76.3z M110,74.8l-0.9-2.5l-0.9,2.5H110z"/>
		<path class="st2" d="M116.5,71.7v5.9h-2v-5.9h-1.6V70h5.2v1.7H116.5z"/>
		<path class="st2" d="M124.3,72.6c-0.5-0.6-1-0.8-1.7-0.8c-0.3,0-0.6,0.1-0.8,0.2c-0.2,0.1-0.5,0.3-0.6,0.4
			c-0.2,0.2-0.3,0.4-0.4,0.7c-0.1,0.3-0.2,0.5-0.2,0.8c0,0.3,0.1,0.6,0.2,0.8c0.1,0.3,0.2,0.5,0.4,0.7c0.2,0.2,0.4,0.3,0.6,0.4
			c0.2,0.1,0.5,0.2,0.8,0.2c0.6,0,1.2-0.3,1.7-0.8v2.3l-0.2,0.1c-0.3,0.1-0.6,0.2-0.8,0.2c-0.3,0-0.5,0.1-0.8,0.1
			c-0.5,0-1-0.1-1.5-0.3s-0.9-0.5-1.3-0.8s-0.7-0.8-0.9-1.3c-0.2-0.5-0.3-1-0.3-1.6s0.1-1.1,0.3-1.6s0.5-0.9,0.9-1.2
			c0.4-0.4,0.8-0.6,1.3-0.8c0.5-0.2,1-0.3,1.5-0.3c0.3,0,0.6,0,0.9,0.1s0.6,0.2,0.9,0.3V72.6z"/>
	</g>
	<g class="st9">
		<path class="st2" d="M258.3,154.6h-2v-7.5h3.1c0.8,0,1.5,0.2,1.9,0.7c0.5,0.4,0.7,1.1,0.7,1.9c0,0.8-0.2,1.4-0.7,1.9
			c-0.5,0.4-1.1,0.7-1.9,0.7h-1.2V154.6z M258.3,150.5h0.7c0.7,0,1.1-0.3,1.1-0.9c0-0.6-0.4-0.9-1.1-0.9h-0.7V150.5z"/>
		<path class="st2" d="M264.4,147.1l1.3,4.9l1.6-4.9h1.6l1.6,4.9l1.3-4.9h2l-2.2,7.5h-2l-1.5-4.4l-1.5,4.4h-2l-2.2-7.5H264.4z"/>
		<path class="st2" d="M280.9,154.6h-2.4l-1.9-2.9v2.9h-2v-7.5h3c0.4,0,0.8,0.1,1.1,0.2c0.3,0.1,0.6,0.3,0.8,0.5
			c0.2,0.2,0.4,0.5,0.5,0.7c0.1,0.3,0.2,0.6,0.2,0.9c0,0.6-0.1,1-0.4,1.4c-0.3,0.4-0.7,0.6-1.2,0.7L280.9,154.6z M276.5,150.5h0.4
			c0.4,0,0.7-0.1,0.9-0.2s0.3-0.4,0.3-0.7c0-0.3-0.1-0.5-0.3-0.7s-0.5-0.2-0.9-0.2h-0.4V150.5z"/>
		<path class="st2" d="M286.3,147.1l1.3,4.9l1.6-4.9h1.6l1.6,4.9l1.3-4.9h2l-2.2,7.5h-2l-1.5-4.4l-1.5,4.4h-2l-2.2-7.5H286.3z"/>
		<path class="st2" d="M297.7,152.4c0,0.8,0.4,1.2,1.1,1.2c0.4,0,0.7-0.2,0.9-0.5h1.8c-0.4,1.2-1.2,1.8-2.7,1.8
			c-0.4,0-0.8-0.1-1.2-0.2c-0.4-0.1-0.7-0.3-0.9-0.6c-0.3-0.2-0.5-0.5-0.6-0.9s-0.2-0.7-0.2-1.1c0-0.4,0.1-0.8,0.2-1.2
			c0.1-0.3,0.3-0.6,0.6-0.9c0.2-0.2,0.5-0.4,0.9-0.6s0.7-0.2,1.2-0.2c0.4,0,0.8,0.1,1.2,0.2c0.3,0.1,0.6,0.3,0.9,0.6
			c0.2,0.2,0.4,0.5,0.5,0.9c0.1,0.4,0.2,0.8,0.2,1.2v0.2H297.7z M299.8,151.3c-0.1-0.3-0.2-0.5-0.4-0.6s-0.4-0.2-0.7-0.2
			c-0.3,0-0.5,0.1-0.7,0.2s-0.3,0.4-0.3,0.6H299.8z"/>
		<path class="st2" d="M306.5,149.5h1.8v5.1h-1.8v-0.6c-0.4,0.5-0.9,0.7-1.6,0.7c-0.4,0-0.7-0.1-1-0.2c-0.3-0.1-0.6-0.3-0.8-0.6
			c-0.2-0.2-0.4-0.5-0.5-0.9c-0.1-0.3-0.2-0.7-0.2-1.1c0-0.4,0.1-0.7,0.2-1c0.1-0.3,0.3-0.6,0.5-0.9c0.2-0.2,0.5-0.4,0.8-0.6
			s0.7-0.2,1-0.2c0.6,0,1.2,0.2,1.6,0.7V149.5z M304.2,152c0,0.2,0,0.3,0.1,0.5c0.1,0.1,0.1,0.3,0.2,0.4c0.1,0.1,0.2,0.2,0.4,0.2
			c0.1,0.1,0.3,0.1,0.5,0.1c0.2,0,0.3,0,0.5-0.1c0.1-0.1,0.3-0.1,0.4-0.2c0.1-0.1,0.2-0.2,0.2-0.4c0.1-0.1,0.1-0.3,0.1-0.4
			c0-0.2,0-0.3-0.1-0.5s-0.1-0.3-0.2-0.4s-0.2-0.2-0.4-0.2c-0.1-0.1-0.3-0.1-0.5-0.1c-0.2,0-0.3,0-0.5,0.1c-0.1,0.1-0.3,0.1-0.4,0.2
			s-0.2,0.2-0.2,0.4C304.2,151.7,304.2,151.9,304.2,152z"/>
		<path class="st2" d="M311.3,157.2h-1.8v-7.7h1.8v0.6c0.4-0.5,0.9-0.7,1.6-0.7c0.4,0,0.7,0.1,1,0.2s0.6,0.3,0.8,0.6
			c0.2,0.2,0.4,0.5,0.5,0.9c0.1,0.3,0.2,0.7,0.2,1.1s-0.1,0.7-0.2,1.1c-0.1,0.3-0.3,0.6-0.5,0.9c-0.2,0.2-0.5,0.4-0.8,0.6
			c-0.3,0.1-0.7,0.2-1,0.2c-0.6,0-1.2-0.2-1.6-0.7V157.2z M313.6,152.1c0-0.2,0-0.3-0.1-0.5s-0.1-0.3-0.2-0.4s-0.2-0.2-0.4-0.3
			s-0.3-0.1-0.5-0.1c-0.2,0-0.3,0-0.5,0.1c-0.1,0.1-0.3,0.1-0.4,0.2s-0.2,0.2-0.2,0.4s-0.1,0.3-0.1,0.5c0,0.2,0,0.3,0.1,0.4
			c0.1,0.1,0.1,0.3,0.2,0.4s0.2,0.2,0.4,0.2s0.3,0.1,0.5,0.1s0.3,0,0.5-0.1c0.1-0.1,0.3-0.1,0.4-0.2c0.1-0.1,0.2-0.2,0.2-0.4
			C313.6,152.4,313.6,152.2,313.6,152.1z"/>
	</g>
	<g class="st9">
		<path class="st2" d="M310.4,250.6h-2v-7.5h3.1c0.8,0,1.5,0.2,1.9,0.7c0.5,0.4,0.7,1.1,0.7,1.9c0,0.8-0.2,1.4-0.7,1.9
			c-0.5,0.4-1.1,0.7-1.9,0.7h-1.2V250.6z M310.4,246.5h0.6c0.7,0,1.1-0.3,1.1-0.9c0-0.6-0.4-0.9-1.1-0.9h-0.6V246.5z"/>
		<path class="st2" d="M316.5,243.1l1.3,4.9l1.6-4.9h1.6l1.6,4.9l1.3-4.9h2l-2.2,7.5h-2l-1.5-4.4l-1.5,4.4h-2l-2.2-7.5H316.5z"/>
		<path class="st2" d="M333,250.6h-2.4l-1.9-2.9v2.9h-2v-7.5h3c0.4,0,0.8,0.1,1.1,0.2c0.3,0.1,0.6,0.3,0.8,0.5
			c0.2,0.2,0.4,0.5,0.5,0.7c0.1,0.3,0.2,0.6,0.2,0.9c0,0.6-0.1,1-0.4,1.4c-0.3,0.4-0.7,0.6-1.2,0.7L333,250.6z M328.7,246.4h0.4
			c0.4,0,0.7-0.1,0.9-0.2c0.2-0.2,0.3-0.4,0.3-0.7c0-0.3-0.1-0.5-0.3-0.7c-0.2-0.2-0.5-0.2-0.9-0.2h-0.4V246.4z"/>
		<path class="st2" d="M341.5,244.7h-2.3v1.3h2.2v1.7h-2.2v1.3h2.3v1.7h-4.3v-7.5h4.3V244.7z"/>
		<path class="st2" d="M342.7,245.5h1.8v0.6c0.2-0.3,0.5-0.5,0.8-0.6c0.3-0.1,0.6-0.2,0.9-0.2c0.4,0,0.7,0.1,0.9,0.2
			c0.3,0.1,0.5,0.3,0.7,0.5c0.1,0.2,0.2,0.4,0.3,0.6c0.1,0.2,0.1,0.5,0.1,0.7v3.3h-1.8V248c0-0.3,0-0.5-0.1-0.6
			c0-0.2-0.1-0.3-0.2-0.4c-0.1-0.1-0.2-0.1-0.3-0.2c-0.1,0-0.2,0-0.3,0c-0.3,0-0.5,0.1-0.7,0.3c-0.2,0.2-0.2,0.4-0.2,0.8v2.7h-1.8
			V245.5z"/>
		<path class="st2" d="M355.1,245.5v4.8c0,0.3,0,0.5-0.1,0.8c0,0.2-0.1,0.4-0.1,0.6c-0.1,0.2-0.2,0.4-0.4,0.6
			c-0.2,0.2-0.4,0.4-0.6,0.5c-0.2,0.1-0.5,0.2-0.8,0.3c-0.3,0.1-0.6,0.1-1,0.1c-0.4,0-0.8,0-1.1-0.2c-0.3-0.1-0.6-0.2-0.9-0.4
			s-0.5-0.4-0.6-0.6c-0.2-0.2-0.3-0.5-0.3-0.8h2c0.1,0.3,0.4,0.5,0.9,0.5c0.4,0,0.7-0.1,0.9-0.3c0.2-0.2,0.3-0.5,0.3-0.9V250
			c-0.1,0.1-0.3,0.2-0.4,0.3s-0.2,0.2-0.4,0.2c-0.1,0.1-0.3,0.1-0.4,0.1c-0.1,0-0.3,0-0.5,0c-0.4,0-0.7-0.1-1-0.2
			c-0.3-0.1-0.6-0.3-0.8-0.5s-0.4-0.5-0.5-0.8c-0.1-0.3-0.2-0.7-0.2-1.1c0-0.4,0.1-0.8,0.2-1.1c0.1-0.3,0.3-0.6,0.5-0.9
			c0.2-0.2,0.5-0.4,0.8-0.6c0.3-0.1,0.7-0.2,1-0.2c0.6,0,1.1,0.2,1.5,0.7v-0.5H355.1z M351.1,248c0,0.2,0,0.3,0.1,0.5
			c0.1,0.1,0.1,0.3,0.2,0.4s0.2,0.2,0.4,0.2s0.3,0.1,0.5,0.1c0.2,0,0.3,0,0.5-0.1s0.3-0.1,0.4-0.2s0.2-0.2,0.2-0.4s0.1-0.3,0.1-0.5
			c0-0.2,0-0.3-0.1-0.5s-0.1-0.3-0.3-0.4s-0.2-0.2-0.4-0.2c-0.1-0.1-0.3-0.1-0.4-0.1c-0.2,0-0.3,0-0.5,0.1c-0.1,0.1-0.3,0.1-0.4,0.2
			c-0.1,0.1-0.2,0.2-0.3,0.4C351.1,247.7,351.1,247.8,351.1,248z"/>
	</g>
	<g class="st9">
		<path class="st2" d="M314.8,210h-1.6v-6h2.5c0.7,0,1.2,0.2,1.6,0.5c0.4,0.4,0.5,0.8,0.5,1.5c0,0.6-0.2,1.1-0.5,1.5
			c-0.4,0.4-0.9,0.5-1.6,0.5h-0.9V210z M314.8,206.7h0.5c0.6,0,0.9-0.3,0.9-0.8c0-0.5-0.3-0.8-0.9-0.8h-0.5V206.7z"/>
		<path class="st2" d="M319.6,203.9l1,3.9l1.3-3.9h1.2l1.3,3.9l1-3.9h1.6l-1.8,6h-1.6l-1.2-3.5l-1.2,3.5h-1.6l-1.8-6H319.6z"/>
		<path class="st2" d="M332.8,210h-2l-1.5-2.3v2.3h-1.6v-6h2.4c0.3,0,0.6,0,0.9,0.1c0.2,0.1,0.5,0.2,0.6,0.4
			c0.2,0.2,0.3,0.4,0.4,0.6c0.1,0.2,0.1,0.5,0.1,0.7c0,0.5-0.1,0.8-0.3,1.1c-0.2,0.3-0.5,0.5-1,0.6L332.8,210z M329.4,206.6h0.3
			c0.3,0,0.5-0.1,0.7-0.2c0.2-0.1,0.2-0.3,0.2-0.6s-0.1-0.4-0.2-0.6c-0.2-0.1-0.4-0.2-0.7-0.2h-0.3V206.6z"/>
		<path class="st2" d="M341.2,210h-2l-1.5-2.3v2.3h-1.6v-6h2.4c0.3,0,0.6,0,0.9,0.1s0.5,0.2,0.6,0.4c0.2,0.2,0.3,0.4,0.4,0.6
			c0.1,0.2,0.1,0.5,0.1,0.7c0,0.5-0.1,0.8-0.3,1.1c-0.2,0.3-0.5,0.5-1,0.6L341.2,210z M337.8,206.6h0.3c0.3,0,0.5-0.1,0.7-0.2
			c0.2-0.1,0.2-0.3,0.2-0.6s-0.1-0.4-0.2-0.6c-0.2-0.1-0.4-0.2-0.7-0.2h-0.3V206.6z"/>
		<path class="st2" d="M345.2,205.5c-0.2-0.1-0.3-0.2-0.5-0.3c-0.2-0.1-0.3-0.1-0.5-0.1c-0.2,0-0.4,0-0.5,0.1
			c-0.1,0.1-0.2,0.2-0.2,0.4c0,0.1,0,0.2,0.1,0.3c0.1,0.1,0.1,0.1,0.3,0.2c0.1,0.1,0.2,0.1,0.4,0.1s0.3,0.1,0.4,0.1
			c0.5,0.2,0.9,0.4,1.1,0.7s0.4,0.7,0.4,1.1c0,0.3-0.1,0.6-0.2,0.8c-0.1,0.3-0.3,0.5-0.5,0.6c-0.2,0.2-0.4,0.3-0.7,0.4
			c-0.3,0.1-0.6,0.1-1,0.1c-0.8,0-1.5-0.2-2.1-0.7l0.7-1.3c0.2,0.2,0.5,0.4,0.7,0.5c0.2,0.1,0.5,0.2,0.7,0.2c0.3,0,0.4-0.1,0.6-0.2
			c0.1-0.1,0.2-0.3,0.2-0.4c0-0.1,0-0.2,0-0.2c0-0.1-0.1-0.1-0.2-0.2c-0.1-0.1-0.2-0.1-0.3-0.2c-0.1,0-0.3-0.1-0.4-0.2
			c-0.2-0.1-0.4-0.1-0.6-0.2c-0.2-0.1-0.4-0.2-0.5-0.3c-0.2-0.1-0.3-0.3-0.4-0.5c-0.1-0.2-0.1-0.4-0.1-0.7s0-0.6,0.1-0.8
			c0.1-0.2,0.2-0.5,0.4-0.6c0.2-0.2,0.4-0.3,0.7-0.4c0.3-0.1,0.5-0.1,0.9-0.1c0.3,0,0.6,0,0.9,0.1c0.3,0.1,0.6,0.2,0.9,0.4
			L345.2,205.5z"/>
		<path class="st2" d="M349.4,205.3v4.7h-1.6v-4.7h-1.3v-1.3h4.1v1.3H349.4z"/>
	</g>
	<g class="st9">
		<path class="st2" d="M175.8,121.8c0-0.6,0.1-1.1,0.3-1.6c0.2-0.5,0.5-0.9,0.9-1.3c0.4-0.4,0.8-0.6,1.3-0.8
			c0.5-0.2,1.1-0.3,1.7-0.3c0.6,0,1.2,0.1,1.7,0.3c0.5,0.2,1,0.5,1.3,0.8c0.4,0.4,0.7,0.8,0.9,1.3c0.2,0.5,0.3,1,0.3,1.6
			c0,0.5-0.1,1-0.3,1.4c-0.2,0.4-0.4,0.8-0.7,1.2l1.3,1.3l-1.8,0.3l-0.7-0.7c-0.3,0.1-0.6,0.2-0.9,0.3c-0.3,0.1-0.7,0.1-1,0.1
			c-0.6,0-1.2-0.1-1.7-0.3c-0.5-0.2-0.9-0.5-1.3-0.8c-0.4-0.4-0.7-0.8-0.9-1.3C175.9,122.8,175.8,122.3,175.8,121.8z M177.8,121.8
			c0,0.3,0.1,0.6,0.2,0.8c0.1,0.3,0.3,0.5,0.5,0.7s0.4,0.3,0.7,0.4c0.3,0.1,0.5,0.2,0.8,0.2c0.2,0,0.3,0,0.5-0.1l-1.1-1.2l1.9-0.2
			l0.5,0.5c0.2-0.3,0.4-0.7,0.4-1.2c0-0.3-0.1-0.6-0.2-0.8c-0.1-0.3-0.3-0.5-0.5-0.7c-0.2-0.2-0.4-0.3-0.7-0.4
			c-0.3-0.1-0.5-0.2-0.8-0.2s-0.6,0.1-0.8,0.2c-0.3,0.1-0.5,0.2-0.7,0.4s-0.3,0.4-0.5,0.7C177.9,121.2,177.8,121.5,177.8,121.8z"/>
		<path class="st2" d="M187,120.4v2.9c0,0.6,0.3,1,0.9,1c0.6,0,0.9-0.3,0.9-1v-2.9h1.8v3.2c0,0.7-0.2,1.2-0.7,1.6s-1.1,0.5-2,0.5
			c-0.9,0-1.6-0.2-2-0.5c-0.5-0.3-0.7-0.9-0.7-1.6v-3.2H187z"/>
		<path class="st2" d="M195.9,120.4h1.8v5.1h-1.8V125c-0.4,0.5-0.9,0.7-1.6,0.7c-0.4,0-0.7-0.1-1-0.2s-0.6-0.3-0.8-0.6
			c-0.2-0.2-0.4-0.5-0.5-0.9c-0.1-0.3-0.2-0.7-0.2-1.1c0-0.4,0.1-0.7,0.2-1s0.3-0.6,0.5-0.9c0.2-0.2,0.5-0.4,0.8-0.6
			c0.3-0.1,0.7-0.2,1-0.2c0.6,0,1.2,0.2,1.6,0.7V120.4z M193.6,122.9c0,0.2,0,0.3,0.1,0.5c0.1,0.1,0.1,0.3,0.2,0.4
			c0.1,0.1,0.2,0.2,0.4,0.2c0.1,0.1,0.3,0.1,0.5,0.1c0.2,0,0.3,0,0.5-0.1c0.1-0.1,0.3-0.1,0.4-0.2c0.1-0.1,0.2-0.2,0.2-0.4
			c0.1-0.1,0.1-0.3,0.1-0.4c0-0.2,0-0.3-0.1-0.5s-0.1-0.3-0.2-0.4s-0.2-0.2-0.4-0.2c-0.1-0.1-0.3-0.1-0.5-0.1c-0.2,0-0.3,0-0.5,0.1
			c-0.1,0.1-0.3,0.1-0.4,0.2c-0.1,0.1-0.2,0.2-0.2,0.4C193.6,122.6,193.6,122.8,193.6,122.9z"/>
		<path class="st2" d="M198.9,120.4h1.8v0.6c0.2-0.3,0.5-0.5,0.8-0.6c0.3-0.1,0.6-0.2,0.9-0.2c0.4,0,0.7,0.1,0.9,0.2
			c0.3,0.1,0.5,0.3,0.7,0.5c0.1,0.2,0.2,0.4,0.3,0.6c0.1,0.2,0.1,0.5,0.1,0.7v3.3h-1.8v-2.6c0-0.3,0-0.5-0.1-0.6
			c0-0.2-0.1-0.3-0.2-0.4c-0.1-0.1-0.2-0.1-0.3-0.2c-0.1,0-0.2,0-0.3,0c-0.3,0-0.5,0.1-0.7,0.3c-0.2,0.2-0.2,0.4-0.2,0.8v2.7h-1.8
			V120.4z"/>
		<path class="st2" d="M207.6,121.9v3.6h-1.8v-3.6h-0.6v-1.5h0.6v-1.5h1.8v1.5h1v1.5H207.6z"/>
		<path class="st2" d="M211.1,120.4v2.9c0,0.6,0.3,1,0.9,1s0.9-0.3,0.9-1v-2.9h1.8v3.2c0,0.7-0.2,1.2-0.7,1.6
			c-0.5,0.3-1.1,0.5-2,0.5c-0.9,0-1.6-0.2-2-0.5c-0.5-0.3-0.7-0.9-0.7-1.6v-3.2H211.1z"/>
		<path class="st2" d="M216,120.4h1.8v0.6c0.5-0.5,1-0.7,1.7-0.7c0.8,0,1.3,0.3,1.7,1c0.4-0.6,1-1,1.7-1c0.2,0,0.5,0,0.7,0.1
			c0.2,0.1,0.4,0.2,0.5,0.3c0.2,0.2,0.3,0.3,0.4,0.6s0.1,0.5,0.1,0.9v3.3h-1.8V123c0-0.3,0-0.5-0.1-0.6c0-0.2-0.1-0.3-0.2-0.4
			c-0.1-0.1-0.2-0.2-0.2-0.2c-0.1,0-0.2,0-0.3,0c-0.6,0-0.9,0.4-0.9,1.3v2.5h-1.8V123c0-0.3,0-0.5,0-0.6s-0.1-0.3-0.1-0.4
			c-0.1-0.1-0.1-0.2-0.2-0.2c-0.1,0-0.2-0.1-0.4-0.1c-0.1,0-0.2,0-0.3,0c-0.1,0-0.2,0.1-0.3,0.2c-0.1,0.1-0.1,0.2-0.2,0.4
			c0,0.2-0.1,0.4-0.1,0.7v2.5H216V120.4z"/>
	</g>
	<g class="st9">
		<path class="st2" d="M186.8,130h2.9c0.5,0,1,0.1,1.4,0.3c0.5,0.2,0.8,0.5,1.2,0.8c0.3,0.3,0.6,0.7,0.8,1.2
			c0.2,0.5,0.3,0.9,0.3,1.4c0,0.5-0.1,1-0.3,1.4c-0.2,0.5-0.5,0.9-0.8,1.2c-0.3,0.3-0.7,0.6-1.2,0.8c-0.5,0.2-0.9,0.3-1.5,0.3h-2.9
			V130z M188.8,135.9h0.5c0.3,0,0.6-0.1,0.9-0.2c0.3-0.1,0.5-0.3,0.7-0.4c0.2-0.2,0.3-0.4,0.4-0.7s0.1-0.5,0.1-0.8
			c0-0.3-0.1-0.6-0.1-0.8c-0.1-0.3-0.2-0.5-0.4-0.7c-0.2-0.2-0.4-0.3-0.7-0.4s-0.6-0.2-0.9-0.2h-0.5V135.9z"/>
		<path class="st2" d="M194.5,132.4h1.8v0.8c0.2-0.3,0.4-0.5,0.7-0.7c0.3-0.2,0.6-0.2,1-0.2c0,0,0.1,0,0.2,0s0.1,0,0.2,0v1.7
			c-0.2-0.1-0.5-0.2-0.8-0.2c-0.4,0-0.7,0.1-0.9,0.4s-0.3,0.6-0.3,1.1v2.2h-1.8V132.4z"/>
		<path class="st2" d="M199.1,130.4c0-0.1,0-0.3,0.1-0.4c0.1-0.1,0.1-0.2,0.2-0.3c0.1-0.1,0.2-0.2,0.3-0.2c0.1-0.1,0.3-0.1,0.4-0.1
			s0.3,0,0.4,0.1c0.1,0.1,0.2,0.1,0.3,0.2c0.1,0.1,0.2,0.2,0.2,0.3c0.1,0.1,0.1,0.3,0.1,0.4c0,0.1,0,0.3-0.1,0.4s-0.1,0.2-0.2,0.3
			c-0.1,0.1-0.2,0.2-0.3,0.2c-0.1,0.1-0.3,0.1-0.4,0.1s-0.3,0-0.4-0.1c-0.1-0.1-0.2-0.1-0.3-0.2s-0.2-0.2-0.2-0.3
			C199.1,130.7,199.1,130.6,199.1,130.4z M201,132.4v5.1h-1.8v-5.1H201z"/>
		<path class="st2" d="M203.7,132.4l1.2,2.6l1.2-2.6h2l-2.7,5.1h-1.2l-2.6-5.1H203.7z"/>
		<path class="st2" d="M210.2,135.3c0,0.8,0.4,1.2,1.1,1.2c0.4,0,0.7-0.2,0.9-0.5h1.8c-0.4,1.2-1.2,1.8-2.7,1.8
			c-0.4,0-0.8-0.1-1.2-0.2c-0.4-0.1-0.7-0.3-0.9-0.6c-0.3-0.2-0.5-0.5-0.6-0.9c-0.1-0.3-0.2-0.7-0.2-1.1c0-0.4,0.1-0.8,0.2-1.2
			c0.1-0.3,0.3-0.6,0.6-0.9c0.2-0.2,0.5-0.4,0.9-0.6c0.3-0.1,0.7-0.2,1.2-0.2c0.4,0,0.8,0.1,1.2,0.2c0.3,0.1,0.6,0.3,0.9,0.6
			c0.2,0.2,0.4,0.5,0.6,0.9c0.1,0.4,0.2,0.8,0.2,1.2v0.2H210.2z M212.4,134.2c-0.1-0.3-0.2-0.5-0.4-0.6c-0.2-0.2-0.4-0.2-0.7-0.2
			c-0.3,0-0.5,0.1-0.7,0.2c-0.2,0.1-0.3,0.4-0.3,0.6H212.4z"/>
	</g>
	<g class="st9">
		<path d="M45.8,25.4v5.9h2.4V33h-4.3v-7.5H45.8z"/>
		<path d="M53,27.8h1.8V33H53v-0.6c-0.4,0.5-0.9,0.7-1.6,0.7c-0.4,0-0.7-0.1-1-0.2s-0.6-0.3-0.8-0.6c-0.2-0.2-0.4-0.5-0.5-0.9
			c-0.1-0.3-0.2-0.7-0.2-1.1c0-0.4,0.1-0.7,0.2-1s0.3-0.6,0.5-0.9c0.2-0.2,0.5-0.4,0.8-0.6c0.3-0.1,0.7-0.2,1-0.2
			c0.6,0,1.2,0.2,1.6,0.7V27.8z M50.7,30.4c0,0.2,0,0.3,0.1,0.5c0.1,0.1,0.1,0.3,0.2,0.4c0.1,0.1,0.2,0.2,0.4,0.2
			c0.1,0.1,0.3,0.1,0.5,0.1c0.2,0,0.3,0,0.5-0.1c0.1-0.1,0.3-0.1,0.4-0.2c0.1-0.1,0.2-0.2,0.2-0.4c0.1-0.1,0.1-0.3,0.1-0.4
			c0-0.2,0-0.3-0.1-0.5s-0.1-0.3-0.2-0.4s-0.2-0.2-0.4-0.2c-0.1-0.1-0.3-0.1-0.5-0.1c-0.2,0-0.3,0-0.5,0.1c-0.1,0.1-0.3,0.1-0.4,0.2
			c-0.1,0.1-0.2,0.2-0.2,0.4C50.7,30.1,50.7,30.2,50.7,30.4z"/>
		<path d="M56,27.8h1.8v0.6c0.2-0.3,0.5-0.5,0.8-0.6c0.3-0.1,0.5-0.2,0.9-0.2c0.4,0,0.7,0.1,0.9,0.2c0.3,0.1,0.5,0.3,0.7,0.5
			c0.1,0.2,0.2,0.4,0.3,0.6c0.1,0.2,0.1,0.5,0.1,0.7V33h-1.8v-2.6c0-0.3,0-0.5-0.1-0.6c0-0.2-0.1-0.3-0.2-0.4
			c-0.1-0.1-0.2-0.1-0.3-0.2c-0.1,0-0.2,0-0.3,0c-0.3,0-0.5,0.1-0.7,0.3c-0.2,0.2-0.2,0.4-0.2,0.8V33H56V27.8z"/>
		<path d="M66.6,24.7h1.8V33h-1.8v-0.6c-0.4,0.5-0.9,0.7-1.6,0.7c-0.4,0-0.7-0.1-1-0.2c-0.3-0.1-0.6-0.3-0.8-0.6
			c-0.2-0.2-0.4-0.5-0.5-0.9c-0.1-0.3-0.2-0.7-0.2-1.1c0-0.4,0.1-0.7,0.2-1s0.3-0.6,0.5-0.9c0.2-0.2,0.5-0.4,0.8-0.6
			c0.3-0.1,0.7-0.2,1-0.2c0.6,0,1.2,0.2,1.6,0.7V24.7z M64.3,30.4c0,0.2,0,0.3,0.1,0.5c0.1,0.1,0.1,0.3,0.2,0.4
			c0.1,0.1,0.2,0.2,0.4,0.2c0.1,0.1,0.3,0.1,0.5,0.1c0.2,0,0.3,0,0.5-0.1c0.1-0.1,0.3-0.1,0.4-0.2c0.1-0.1,0.2-0.2,0.2-0.4
			c0.1-0.1,0.1-0.3,0.1-0.4c0-0.2,0-0.3-0.1-0.5s-0.1-0.3-0.2-0.4s-0.2-0.2-0.4-0.2c-0.1-0.1-0.3-0.1-0.5-0.1c-0.2,0-0.3,0-0.5,0.1
			c-0.1,0.1-0.3,0.1-0.4,0.2c-0.1,0.1-0.2,0.2-0.2,0.4C64.4,30.1,64.3,30.2,64.3,30.4z"/>
		<path d="M69.5,25.9c0-0.1,0-0.3,0.1-0.4c0.1-0.1,0.1-0.2,0.2-0.3c0.1-0.1,0.2-0.2,0.3-0.2s0.3-0.1,0.4-0.1c0.1,0,0.3,0,0.4,0.1
			s0.2,0.1,0.3,0.2c0.1,0.1,0.2,0.2,0.2,0.3c0.1,0.1,0.1,0.3,0.1,0.4c0,0.1,0,0.3-0.1,0.4s-0.1,0.2-0.2,0.3
			c-0.1,0.1-0.2,0.2-0.3,0.2c-0.1,0.1-0.3,0.1-0.4,0.1c-0.1,0-0.3,0-0.4-0.1c-0.1-0.1-0.2-0.1-0.3-0.2c-0.1-0.1-0.2-0.2-0.2-0.3
			C69.6,26.1,69.5,26,69.5,25.9z M71.5,27.8V33h-1.8v-5.1H71.5z"/>
		<path d="M72.7,27.8h1.8v0.6c0.2-0.3,0.5-0.5,0.8-0.6c0.3-0.1,0.6-0.2,0.9-0.2c0.4,0,0.7,0.1,0.9,0.2c0.3,0.1,0.5,0.3,0.7,0.5
			c0.1,0.2,0.2,0.4,0.3,0.6c0.1,0.2,0.1,0.5,0.1,0.7V33h-1.8v-2.6c0-0.3,0-0.5-0.1-0.6c0-0.2-0.1-0.3-0.2-0.4
			c-0.1-0.1-0.2-0.1-0.3-0.2c-0.1,0-0.2,0-0.3,0c-0.3,0-0.5,0.1-0.7,0.3c-0.2,0.2-0.2,0.4-0.2,0.8V33h-1.8V27.8z"/>
		<path d="M85.1,27.8v4.8c0,0.3,0,0.5-0.1,0.8c0,0.2-0.1,0.4-0.1,0.6c-0.1,0.2-0.2,0.4-0.4,0.6c-0.2,0.2-0.4,0.4-0.6,0.5
			c-0.2,0.1-0.5,0.2-0.8,0.3c-0.3,0.1-0.6,0.1-1,0.1c-0.4,0-0.8,0-1.1-0.2c-0.3-0.1-0.6-0.2-0.9-0.4s-0.5-0.4-0.6-0.6
			c-0.2-0.2-0.3-0.5-0.3-0.8h2c0.1,0.3,0.4,0.5,0.9,0.5c0.4,0,0.7-0.1,0.9-0.3c0.2-0.2,0.3-0.5,0.3-0.9v-0.5
			c-0.1,0.1-0.3,0.2-0.4,0.3s-0.2,0.2-0.4,0.2C82.4,33,82.3,33,82.1,33c-0.1,0-0.3,0-0.5,0c-0.4,0-0.7-0.1-1-0.2
			c-0.3-0.1-0.6-0.3-0.8-0.5s-0.4-0.5-0.5-0.8c-0.1-0.3-0.2-0.7-0.2-1.1c0-0.4,0.1-0.8,0.2-1.1c0.1-0.3,0.3-0.6,0.5-0.9
			c0.2-0.2,0.5-0.4,0.8-0.6c0.3-0.1,0.7-0.2,1-0.2c0.6,0,1.1,0.2,1.5,0.7v-0.5H85.1z M81,30.4c0,0.2,0,0.3,0.1,0.5
			c0.1,0.1,0.1,0.3,0.2,0.4s0.2,0.2,0.4,0.2s0.3,0.1,0.5,0.1c0.2,0,0.3,0,0.5-0.1s0.3-0.1,0.4-0.2s0.2-0.2,0.2-0.4s0.1-0.3,0.1-0.5
			c0-0.2,0-0.3-0.1-0.5s-0.1-0.3-0.3-0.4s-0.2-0.2-0.4-0.2c-0.1-0.1-0.3-0.1-0.4-0.1c-0.2,0-0.3,0-0.5,0.1c-0.1,0.1-0.3,0.1-0.4,0.2
			c-0.1,0.1-0.2,0.2-0.3,0.4C81.1,30.1,81,30.2,81,30.4z"/>
	</g>
	<g class="st9">
		<path class="st2" d="M169.7,43.3h-2v-7.5h3.1c0.8,0,1.5,0.2,1.9,0.7c0.5,0.4,0.7,1.1,0.7,1.9c0,0.8-0.2,1.4-0.7,1.9
			c-0.5,0.4-1.1,0.7-1.9,0.7h-1.2V43.3z M169.7,39.3h0.6c0.7,0,1.1-0.3,1.1-0.9c0-0.6-0.4-0.9-1.1-0.9h-0.6V39.3z"/>
		<path class="st2" d="M174,40.7c0-0.4,0.1-0.7,0.2-1.1s0.4-0.6,0.6-0.9s0.6-0.4,1-0.6c0.4-0.1,0.8-0.2,1.2-0.2
			c0.4,0,0.8,0.1,1.2,0.2c0.4,0.1,0.7,0.3,1,0.6c0.3,0.2,0.5,0.5,0.6,0.9s0.2,0.7,0.2,1.1c0,0.4-0.1,0.8-0.2,1.1
			c-0.2,0.3-0.4,0.6-0.6,0.9c-0.3,0.2-0.6,0.4-1,0.6c-0.4,0.1-0.8,0.2-1.2,0.2c-0.4,0-0.8-0.1-1.2-0.2c-0.4-0.1-0.7-0.3-1-0.6
			c-0.3-0.2-0.5-0.5-0.6-0.9S174,41.1,174,40.7z M175.9,40.7c0,0.2,0,0.3,0.1,0.5c0.1,0.1,0.1,0.3,0.2,0.4c0.1,0.1,0.2,0.2,0.4,0.2
			c0.1,0.1,0.3,0.1,0.5,0.1s0.3,0,0.5-0.1c0.1-0.1,0.3-0.1,0.4-0.2c0.1-0.1,0.2-0.2,0.2-0.4c0.1-0.1,0.1-0.3,0.1-0.5
			c0-0.2,0-0.3-0.1-0.5c-0.1-0.1-0.1-0.3-0.2-0.4c-0.1-0.1-0.2-0.2-0.4-0.2c-0.1-0.1-0.3-0.1-0.5-0.1s-0.3,0-0.5,0.1
			c-0.1,0.1-0.3,0.1-0.4,0.2c-0.1,0.1-0.2,0.2-0.2,0.4S175.9,40.6,175.9,40.7z"/>
		<path class="st2" d="M182.3,38.2l1.2,2.7l1.3-2.7h1.1l1.3,2.8l1.3-2.8h2l-2.7,5.1h-1.2l-1.3-2.8l-1.2,2.8h-1.2l-2.6-5.1H182.3z"/>
		<path class="st2" d="M192.6,41.1c0,0.8,0.4,1.2,1.1,1.2c0.4,0,0.7-0.2,0.9-0.5h1.8c-0.4,1.2-1.2,1.8-2.7,1.8
			c-0.4,0-0.8-0.1-1.2-0.2c-0.4-0.1-0.7-0.3-0.9-0.6c-0.3-0.2-0.5-0.5-0.6-0.9c-0.1-0.3-0.2-0.7-0.2-1.1c0-0.4,0.1-0.8,0.2-1.2
			c0.1-0.3,0.3-0.6,0.6-0.9c0.2-0.2,0.5-0.4,0.9-0.6s0.7-0.2,1.2-0.2c0.4,0,0.8,0.1,1.2,0.2c0.3,0.1,0.6,0.3,0.9,0.6
			c0.2,0.2,0.4,0.5,0.5,0.9c0.1,0.4,0.2,0.8,0.2,1.2v0.2H192.6z M194.7,40c-0.1-0.3-0.2-0.5-0.4-0.6s-0.4-0.2-0.7-0.2
			c-0.3,0-0.5,0.1-0.7,0.2s-0.3,0.4-0.3,0.6H194.7z"/>
		<path class="st2" d="M197.4,38.2h1.8V39c0.2-0.3,0.4-0.5,0.7-0.7c0.3-0.2,0.6-0.2,1-0.2c0,0,0.1,0,0.2,0s0.1,0,0.2,0v1.7
			c-0.2-0.1-0.5-0.2-0.8-0.2c-0.4,0-0.7,0.1-0.9,0.4s-0.3,0.6-0.3,1.1v2.2h-1.8V38.2z"/>
	</g>
	<g class="st9">
		<path class="st2" d="M234,37.5h-2.3v1.3h2.2v1.7h-2.2v1.3h2.3v1.7h-4.3v-7.5h4.3V37.5z"/>
		<path class="st2" d="M235.2,38.2h1.8v0.6c0.2-0.3,0.5-0.5,0.8-0.6s0.5-0.2,0.9-0.2c0.4,0,0.7,0.1,0.9,0.2c0.3,0.1,0.5,0.3,0.7,0.5
			c0.1,0.2,0.2,0.4,0.3,0.6c0.1,0.2,0.1,0.5,0.1,0.7v3.3h-1.8v-2.6c0-0.3,0-0.5-0.1-0.6c0-0.2-0.1-0.3-0.2-0.4
			c-0.1-0.1-0.2-0.1-0.3-0.2c-0.1,0-0.2,0-0.3,0c-0.3,0-0.5,0.1-0.7,0.3c-0.2,0.2-0.2,0.4-0.2,0.8v2.7h-1.8V38.2z"/>
		<path class="st2" d="M247.6,38.2V43c0,0.3,0,0.5,0,0.8c0,0.2-0.1,0.4-0.1,0.6c-0.1,0.2-0.2,0.4-0.4,0.6c-0.2,0.2-0.4,0.4-0.6,0.5
			c-0.2,0.1-0.5,0.2-0.8,0.3s-0.6,0.1-1,0.1c-0.4,0-0.8,0-1.1-0.2c-0.3-0.1-0.6-0.2-0.9-0.4s-0.5-0.4-0.6-0.6
			c-0.2-0.2-0.3-0.5-0.3-0.8h2c0.1,0.3,0.4,0.5,0.9,0.5c0.4,0,0.7-0.1,0.9-0.3c0.2-0.2,0.3-0.5,0.3-0.9v-0.5
			c-0.1,0.1-0.3,0.2-0.4,0.3s-0.2,0.2-0.4,0.2c-0.1,0.1-0.3,0.1-0.4,0.1c-0.1,0-0.3,0-0.5,0c-0.4,0-0.7-0.1-1-0.2
			c-0.3-0.1-0.6-0.3-0.8-0.5s-0.4-0.5-0.5-0.8c-0.1-0.3-0.2-0.7-0.2-1.1c0-0.4,0.1-0.8,0.2-1.1s0.3-0.6,0.5-0.9
			c0.2-0.2,0.5-0.4,0.8-0.6s0.7-0.2,1-0.2c0.6,0,1.1,0.2,1.5,0.7v-0.5H247.6z M243.6,40.7c0,0.2,0,0.3,0.1,0.5
			c0.1,0.1,0.1,0.3,0.2,0.4c0.1,0.1,0.2,0.2,0.4,0.2s0.3,0.1,0.5,0.1c0.2,0,0.3,0,0.5-0.1c0.1-0.1,0.3-0.1,0.4-0.2s0.2-0.2,0.2-0.4
			s0.1-0.3,0.1-0.5c0-0.2,0-0.3-0.1-0.5s-0.1-0.3-0.3-0.4s-0.2-0.2-0.4-0.2c-0.1-0.1-0.3-0.1-0.4-0.1c-0.2,0-0.3,0-0.5,0.1
			c-0.1,0.1-0.3,0.1-0.4,0.2c-0.1,0.1-0.2,0.2-0.3,0.4S243.6,40.6,243.6,40.7z"/>
		<path class="st2" d="M248.7,36.2c0-0.1,0-0.3,0.1-0.4c0.1-0.1,0.1-0.2,0.2-0.3c0.1-0.1,0.2-0.2,0.3-0.2s0.3-0.1,0.4-0.1
			c0.1,0,0.3,0,0.4,0.1s0.2,0.1,0.3,0.2c0.1,0.1,0.2,0.2,0.2,0.3c0.1,0.1,0.1,0.3,0.1,0.4c0,0.1,0,0.3-0.1,0.4
			c-0.1,0.1-0.1,0.2-0.2,0.3s-0.2,0.2-0.3,0.2c-0.1,0.1-0.3,0.1-0.4,0.1c-0.1,0-0.3,0-0.4-0.1c-0.1-0.1-0.2-0.1-0.3-0.2
			c-0.1-0.1-0.2-0.2-0.2-0.3S248.7,36.4,248.7,36.2z M250.7,38.2v5.1h-1.8v-5.1H250.7z"/>
		<path class="st2" d="M251.9,38.2h1.8v0.6c0.2-0.3,0.5-0.5,0.8-0.6c0.3-0.1,0.6-0.2,0.9-0.2c0.4,0,0.7,0.1,0.9,0.2
			c0.3,0.1,0.5,0.3,0.7,0.5c0.1,0.2,0.2,0.4,0.3,0.6c0.1,0.2,0.1,0.5,0.1,0.7v3.3h-1.8v-2.6c0-0.3,0-0.5-0.1-0.6
			c0-0.2-0.1-0.3-0.2-0.4c-0.1-0.1-0.2-0.1-0.3-0.2c-0.1,0-0.2,0-0.3,0c-0.3,0-0.5,0.1-0.7,0.3c-0.2,0.2-0.2,0.4-0.2,0.8v2.7h-1.8
			V38.2z"/>
		<path class="st2" d="M260.2,41.1c0,0.8,0.4,1.2,1.1,1.2c0.4,0,0.7-0.2,0.9-0.5h1.8c-0.4,1.2-1.2,1.8-2.7,1.8
			c-0.4,0-0.8-0.1-1.2-0.2c-0.4-0.1-0.7-0.3-0.9-0.6c-0.3-0.2-0.5-0.5-0.6-0.9s-0.2-0.7-0.2-1.1c0-0.4,0.1-0.8,0.2-1.2
			c0.1-0.3,0.3-0.6,0.6-0.9c0.2-0.2,0.5-0.4,0.9-0.6s0.7-0.2,1.2-0.2c0.4,0,0.8,0.1,1.2,0.2c0.3,0.1,0.6,0.3,0.9,0.6
			c0.2,0.2,0.4,0.5,0.5,0.9c0.1,0.4,0.2,0.8,0.2,1.2v0.2H260.2z M262.3,40c-0.1-0.3-0.2-0.5-0.4-0.6s-0.4-0.2-0.7-0.2
			c-0.3,0-0.5,0.1-0.7,0.2s-0.3,0.4-0.3,0.6H262.3z"/>
		<path class="st2" d="M268.4,39.5c-0.3-0.2-0.7-0.3-1-0.3c-0.2,0-0.3,0-0.4,0.1s-0.2,0.2-0.2,0.3c0,0.1,0,0.1,0,0.1
			c0,0,0.1,0.1,0.1,0.1s0.1,0.1,0.2,0.1c0.1,0,0.3,0.1,0.4,0.1c0.5,0.1,0.9,0.3,1.1,0.5c0.2,0.3,0.4,0.6,0.4,1
			c0,0.3-0.1,0.6-0.2,0.8c-0.1,0.2-0.3,0.4-0.5,0.6c-0.2,0.2-0.5,0.3-0.8,0.4s-0.6,0.1-1,0.1c-0.7,0-1.4-0.2-2-0.6l0.7-1.3
			c0.5,0.3,1,0.5,1.4,0.5c0.2,0,0.3,0,0.4-0.1c0.1-0.1,0.2-0.2,0.2-0.3c0-0.1,0-0.1,0-0.2s-0.1-0.1-0.1-0.1c-0.1,0-0.1-0.1-0.2-0.1
			c-0.1,0-0.2-0.1-0.4-0.1c-0.6-0.1-1-0.3-1.2-0.5c-0.2-0.2-0.3-0.5-0.3-0.9c0-0.3,0.1-0.5,0.2-0.8c0.1-0.2,0.3-0.4,0.5-0.6
			c0.2-0.2,0.4-0.3,0.7-0.4c0.3-0.1,0.6-0.1,0.9-0.1c0.6,0,1.1,0.1,1.6,0.3L268.4,39.5z"/>
	</g>
	<g class="st9">
		<path class="st2" d="M299.9,37.7c-0.2-0.2-0.4-0.3-0.6-0.4c-0.2-0.1-0.4-0.1-0.6-0.1c-0.3,0-0.5,0.1-0.6,0.2
			c-0.2,0.1-0.2,0.3-0.2,0.5c0,0.1,0,0.2,0.1,0.3c0.1,0.1,0.2,0.2,0.3,0.2s0.3,0.1,0.4,0.2s0.3,0.1,0.5,0.2c0.6,0.2,1.1,0.5,1.4,0.9
			c0.3,0.4,0.4,0.8,0.4,1.4c0,0.4-0.1,0.7-0.2,1c-0.1,0.3-0.3,0.6-0.6,0.8s-0.6,0.4-0.9,0.5c-0.4,0.1-0.8,0.2-1.2,0.2
			c-1,0-1.8-0.3-2.6-0.8l0.8-1.6c0.3,0.3,0.6,0.5,0.9,0.6c0.3,0.1,0.6,0.2,0.8,0.2c0.3,0,0.6-0.1,0.7-0.2s0.2-0.3,0.2-0.5
			c0-0.1,0-0.2-0.1-0.3s-0.1-0.2-0.2-0.2c-0.1-0.1-0.2-0.1-0.4-0.2c-0.2-0.1-0.3-0.1-0.5-0.2c-0.3-0.1-0.5-0.2-0.7-0.3
			c-0.2-0.1-0.5-0.2-0.7-0.4c-0.2-0.2-0.3-0.4-0.5-0.6c-0.1-0.2-0.2-0.6-0.2-0.9c0-0.4,0.1-0.7,0.2-1c0.1-0.3,0.3-0.6,0.5-0.8
			c0.2-0.2,0.5-0.4,0.8-0.5c0.3-0.1,0.7-0.2,1.1-0.2c0.4,0,0.8,0.1,1.2,0.2c0.4,0.1,0.8,0.3,1.2,0.5L299.9,37.7z"/>
		<path class="st2" d="M302.1,35h1.8v3.8c0.2-0.3,0.5-0.5,0.8-0.6s0.5-0.2,0.9-0.2c0.6,0,1.1,0.2,1.5,0.5s0.5,0.8,0.5,1.4v3.3h-1.8
			v-2.6c0-0.3,0-0.5-0.1-0.6s-0.1-0.3-0.2-0.4c-0.2-0.1-0.4-0.2-0.6-0.2c-0.3,0-0.5,0.1-0.7,0.3c-0.2,0.2-0.2,0.4-0.2,0.8v2.7h-1.8
			V35z"/>
		<path class="st2" d="M308.6,36.2c0-0.1,0-0.3,0.1-0.4c0.1-0.1,0.1-0.2,0.2-0.3c0.1-0.1,0.2-0.2,0.3-0.2c0.1-0.1,0.3-0.1,0.4-0.1
			c0.1,0,0.3,0,0.4,0.1c0.1,0.1,0.2,0.1,0.3,0.2c0.1,0.1,0.2,0.2,0.2,0.3c0.1,0.1,0.1,0.3,0.1,0.4c0,0.1,0,0.3-0.1,0.4
			c-0.1,0.1-0.1,0.2-0.2,0.3c-0.1,0.1-0.2,0.2-0.3,0.2c-0.1,0.1-0.3,0.1-0.4,0.1c-0.1,0-0.3,0-0.4-0.1c-0.1-0.1-0.2-0.1-0.3-0.2
			c-0.1-0.1-0.2-0.2-0.2-0.3C308.6,36.5,308.6,36.4,308.6,36.2z M310.5,38.2v5.1h-1.8v-5.1H310.5z"/>
		<path class="st2" d="M313.4,41.1c0,0.8,0.4,1.2,1.1,1.2c0.4,0,0.7-0.2,0.9-0.5h1.8c-0.4,1.2-1.2,1.8-2.7,1.8
			c-0.4,0-0.8-0.1-1.2-0.2c-0.4-0.1-0.7-0.3-0.9-0.6c-0.3-0.2-0.5-0.5-0.6-0.9c-0.1-0.3-0.2-0.7-0.2-1.1c0-0.4,0.1-0.8,0.2-1.2
			c0.1-0.3,0.3-0.6,0.6-0.9c0.2-0.2,0.5-0.4,0.9-0.6c0.4-0.1,0.7-0.2,1.2-0.2c0.4,0,0.8,0.1,1.2,0.2s0.6,0.3,0.9,0.6
			c0.2,0.2,0.4,0.5,0.5,0.9c0.1,0.4,0.2,0.8,0.2,1.2v0.2H313.4z M315.5,40c-0.1-0.3-0.2-0.5-0.4-0.6s-0.4-0.2-0.7-0.2
			c-0.3,0-0.5,0.1-0.7,0.2c-0.2,0.1-0.3,0.4-0.3,0.6H315.5z"/>
		<path class="st2" d="M320.1,35v8.3h-1.8V35H320.1z"/>
		<path class="st2" d="M325.3,35h1.8v8.3h-1.8v-0.6c-0.4,0.5-0.9,0.7-1.6,0.7c-0.4,0-0.7-0.1-1-0.2c-0.3-0.1-0.6-0.3-0.8-0.6
			s-0.4-0.5-0.5-0.9s-0.2-0.7-0.2-1.1c0-0.4,0.1-0.7,0.2-1c0.1-0.3,0.3-0.6,0.5-0.9c0.2-0.2,0.5-0.4,0.8-0.6c0.3-0.1,0.7-0.2,1-0.2
			c0.6,0,1.2,0.2,1.6,0.7V35z M323,40.8c0,0.2,0,0.3,0.1,0.5c0.1,0.1,0.1,0.3,0.2,0.4c0.1,0.1,0.2,0.2,0.4,0.2
			c0.1,0.1,0.3,0.1,0.5,0.1c0.2,0,0.3,0,0.5-0.1c0.1-0.1,0.3-0.1,0.4-0.2c0.1-0.1,0.2-0.2,0.2-0.4c0.1-0.1,0.1-0.3,0.1-0.4
			c0-0.2,0-0.3-0.1-0.5s-0.1-0.3-0.2-0.4s-0.2-0.2-0.4-0.2c-0.1-0.1-0.3-0.1-0.5-0.1s-0.3,0-0.5,0.1c-0.1,0.1-0.3,0.1-0.4,0.2
			c-0.1,0.1-0.2,0.2-0.2,0.4C323,40.4,323,40.6,323,40.8z"/>
		<path class="st2" d="M331.7,39.5c-0.3-0.2-0.7-0.3-1-0.3c-0.2,0-0.3,0-0.4,0.1s-0.2,0.2-0.2,0.3c0,0.1,0,0.1,0,0.1
			c0,0,0.1,0.1,0.1,0.1s0.1,0.1,0.2,0.1c0.1,0,0.3,0.1,0.4,0.1c0.5,0.1,0.9,0.3,1.1,0.5c0.2,0.3,0.4,0.6,0.4,1
			c0,0.3-0.1,0.6-0.2,0.8c-0.1,0.2-0.3,0.4-0.5,0.6c-0.2,0.2-0.5,0.3-0.8,0.4s-0.6,0.1-1,0.1c-0.7,0-1.4-0.2-2-0.6l0.7-1.3
			c0.5,0.3,1,0.5,1.4,0.5c0.2,0,0.3,0,0.4-0.1c0.1-0.1,0.2-0.2,0.2-0.3c0-0.1,0-0.1,0-0.2s-0.1-0.1-0.1-0.1c-0.1,0-0.1-0.1-0.2-0.1
			c-0.1,0-0.2-0.1-0.4-0.1c-0.6-0.1-1-0.3-1.2-0.5c-0.2-0.2-0.3-0.5-0.3-0.9c0-0.3,0.1-0.5,0.2-0.8c0.1-0.2,0.3-0.4,0.5-0.6
			c0.2-0.2,0.4-0.3,0.7-0.4c0.3-0.1,0.6-0.1,0.9-0.1c0.6,0,1.1,0.1,1.6,0.3L331.7,39.5z"/>
	</g>
</g>
</svg>
