<?xml version="1.0" encoding="utf-8"?>
<!-- Generator: Adobe Illustrator 26.5.0, SVG Export Plug-In . SVG Version: 6.00 Build 0)  -->
<svg version="1.1" id="Layer_1" xmlns:shaper="http://www.shapertools.com/namespaces/shaper"
	 xmlns="http://www.w3.org/2000/svg" xmlns:xlink="http://www.w3.org/1999/xlink" x="0px" y="0px" viewBox="0 0 430.9 340.2"
	 style="enable-background:new 0 0 430.9 340.2;" xml:space="preserve">
<style type="text/css">
	.st0{fill:#FFFFFF;stroke:#000000;stroke-width:0.8035;stroke-linecap:round;stroke-linejoin:round;stroke-miterlimit:113.3858;}
</style>
<path shaper:cutDepth="0.011" d="M430.8,335.5l0.1-1V5.7l-0.1-1l-0.3-1l-0.4-0.9L429.5,2l-0.7-0.7L428,0.8l-0.9-0.4l-1-0.3l-1-0.1
	H5.7l-1,0.1l-1,0.3L2.8,0.8L2,1.3L1.3,2L0.8,2.8L0.3,3.7l-0.3,1L0,5.7v328.8l0.1,1l0.3,1l0.4,0.9l0.6,0.8l0.7,0.7l0.8,0.6l0.9,0.4
	l1,0.3l1,0.1h419.5l1-0.1l1-0.3l0.9-0.4l0.8-0.6l0.7-0.7l0.6-0.8l0.4-0.9L430.8,335.5z"/>
<path shaper:cutDepth="0.011" class="st0" d="M208.6,285c0-4.6-3.7-8.3-8.3-8.3c-4.6,0-8.3,3.7-8.3,8.3c0,0,0,0,0,0
	c0,4.6,3.7,8.3,8.3,8.3S208.6,289.6,208.6,285z"/>
<path shaper:cutDepth="0.011" class="st0" d="M400.4,184.3c0-12.5-10.1-22.7-22.7-22.7c-12.5,0-22.7,10.1-22.7,22.7c0,0,0,0,0,0
	c0,12.5,10.1,22.7,22.7,22.7C390.2,207,400.4,196.9,400.4,184.3C400.4,184.4,400.4,184.4,400.4,184.3z"/>
<path shaper:cutDepth="0.011" class="st0" d="M125.5,94.3c0-5.3-4.3-9.6-9.6-9.6c-5.3,0-9.6,4.3-9.6,9.6c0,5.3,4.3,9.6,9.6,9.6
	C121.2,103.9,125.5,99.6,125.5,94.3z"/>
<path shaper:cutDepth="0.011" class="st0" d="M201.7,72.2c0-9.5-7.7-17.2-17.2-17.2s-17.2,7.7-17.2,17.2s7.7,17.2,17.2,17.2
	S201.7,81.7,201.7,72.2z"/>
<path shaper:cutDepth="0.011" class="st0" d="M395.8,72.2c0-9.5-7.7-17.2-17.2-17.2c-9.5,0-17.2,7.7-17.2,17.2s7.7,17.2,17.2,17.2
	C388.1,89.4,395.8,81.7,395.8,72.2z"/>
<path shaper:cutDepth="0.011" class="st0" d="M125.5,50.2c0-5.3-4.3-9.6-9.6-9.6c-5.3,0-9.6,4.3-9.6,9.6l0,0c0,5.3,4.3,9.6,9.6,9.6
	C121.2,59.8,125.5,55.5,125.5,50.2z"/>
<path shaper:cutDepth="0.011" class="st0" d="M238.5,184.3c0-21.1-17.1-38.2-38.2-38.2s-38.2,17.1-38.2,38.2
	c0,21.1,17.1,38.2,38.2,38.2S238.5,205.4,238.5,184.3C238.5,184.4,238.5,184.3,238.5,184.3z"/>
<path shaper:cutDepth="0.011" class="st0" d="M340.2,224.4c0-4.6-3.7-8.3-8.3-8.3s-8.3,3.7-8.3,8.3c0,0,0,0,0,0
	c0,4.6,3.7,8.3,8.3,8.3S340.2,229,340.2,224.4C340.2,224.4,340.2,224.4,340.2,224.4z"/>
<path shaper:cutDepth="0.011" class="st0" d="M139.9,288.3c0-4.6-3.7-8.3-8.3-8.3s-8.3,3.7-8.3,8.3s3.7,8.3,8.3,8.3
	C136.1,296.6,139.9,292.9,139.9,288.3L139.9,288.3z"/>
<path shaper:cutDepth="0.011" class="st0" d="M211.7,240.9c0-6.3-5.1-11.3-11.3-11.3c-6.3,0-11.3,5.1-11.3,11.3l0,0
	c0,6.3,5.1,11.3,11.3,11.3C206.6,252.2,211.7,247.1,211.7,240.9C211.7,240.9,211.7,240.9,211.7,240.9z"/>
<path shaper:cutDepth="0.011" class="st0" d="M343.2,184.3c0-6.3-5.1-11.3-11.3-11.3c-6.3,0-11.3,5.1-11.3,11.3c0,0,0,0,0,0
	c0,6.3,5.1,11.3,11.3,11.3C338.1,195.7,343.2,190.6,343.2,184.3C343.2,184.4,343.2,184.3,343.2,184.3z"/>
<path shaper:cutDepth="0.011" class="st0" d="M74.1,94.9c0-5.3-4.3-9.6-9.6-9.6s-9.6,4.3-9.6,9.6c0,5.3,4.3,9.6,9.6,9.6
	S74.1,100.2,74.1,94.9z"/>
<path shaper:cutDepth="0.011" class="st0" d="M266.4,72.2c0-9.5-7.7-17.2-17.2-17.2c-9.5,0-17.2,7.7-17.2,17.2c0,0,0,0,0,0
	c0,9.5,7.7,17.2,17.2,17.2S266.4,81.7,266.4,72.2C266.4,72.2,266.4,72.2,266.4,72.2z"/>
<path shaper:cutDepth="0.011" class="st0" d="M331.1,72.2c0-9.5-7.7-17.2-17.2-17.2c-9.5,0-17.2,7.7-17.2,17.2c0,0,0,0,0,0
	c0,9.5,7.7,17.2,17.2,17.2C323.4,89.4,331.1,81.7,331.1,72.2C331.1,72.2,331.1,72.2,331.1,72.2z"/>
<path shaper:cutDepth="0.011" class="st0" d="M74.1,50.3c0-5.3-4.3-9.6-9.6-9.6s-9.6,4.3-9.6,9.6s4.3,9.6,9.6,9.6
	S74.1,55.6,74.1,50.3z"/>
<path shaper:cutDepth="0.011" class="st0" d="M308.6,184.3c0-12.5-10.1-22.7-22.7-22.7c-12.5,0-22.7,10.1-22.7,22.7c0,0,0,0,0,0
	c0,12.5,10.1,22.7,22.7,22.7C298.5,207,308.6,196.9,308.6,184.3C308.6,184.3,308.6,184.3,308.6,184.3z"/>
<path shaper:cutDepth="0.011" class="st0" d="M354.5,281.3c0-12.5-10.1-22.7-22.7-22.7s-22.7,10.1-22.7,22.7c0,0,0,0,0,0
	c0,12.5,10.1,22.7,22.7,22.7C344.4,304,354.5,293.8,354.5,281.3C354.5,281.3,354.5,281.3,354.5,281.3z"/>
<path shaper:cutDepth="0.011" class="st0" d="M139.9,246.6c0-4.6-3.7-8.3-8.3-8.3s-8.3,3.7-8.3,8.3l0,0c0,4.6,3.7,8.3,8.3,8.3
	S139.9,251.2,139.9,246.6z"/>
<path shaper:cutDepth="0.011" class="st0" d="M18.6,13.4l0.1,0.8L18.6,15l-0.2,0.8l-0.3,0.7l-0.5,0.6l-0.6,0.6l-0.6,0.5l-0.7,0.3
	L15,18.6l-0.8,0.1l-0.8-0.1l-0.8-0.2l-0.7-0.3l-0.6-0.5l-0.6-0.6l-0.5-0.6l-0.3-0.7L9.7,15l-0.1-0.8l0.1-0.8l0.2-0.8l0.3-0.7
	l0.5-0.6l0.6-0.6l0.6-0.5l0.7-0.3l0.8-0.2l0.8-0.1L15,9.7l0.8,0.2l0.7,0.3l0.6,0.5l0.6,0.6l0.5,0.6l0.3,0.7L18.6,13.4z"/>
<path shaper:cutDepth="0.011" class="st0" d="M18.6,325.2l0.1,0.8l-0.1,0.8l-0.2,0.8l-0.3,0.7l-0.5,0.6l-0.6,0.6l-0.6,0.5l-0.7,0.3
	l-0.8,0.2l-0.8,0.1l-0.8-0.1l-0.8-0.2l-0.7-0.3l-0.6-0.5l-0.6-0.6l-0.5-0.6l-0.3-0.7l-0.2-0.8L9.6,326l0.1-0.8l0.2-0.8l0.3-0.7
	l0.5-0.6l0.6-0.6l0.6-0.5l0.7-0.3l0.8-0.2l0.8-0.1l0.8,0.1l0.8,0.2l0.7,0.3l0.6,0.5l0.6,0.6l0.5,0.6l0.3,0.7L18.6,325.2z"/>
<path shaper:cutDepth="0.011" class="st0" d="M421.2,13.4l0.1,0.8l-0.1,0.8l-0.2,0.8l-0.3,0.7l-0.5,0.6l-0.6,0.6l-0.6,0.5l-0.7,0.3
	l-0.8,0.2l-0.8,0.1l-0.8-0.1l-0.8-0.2l-0.7-0.3l-0.6-0.5l-0.6-0.6l-0.5-0.6l-0.3-0.7l-0.2-0.8l-0.1-0.8l0.1-0.8l0.2-0.8l0.3-0.7
	l0.5-0.6l0.6-0.6l0.6-0.5l0.7-0.3l0.8-0.2l0.8-0.1l0.8,0.1l0.8,0.2l0.7,0.3l0.6,0.5l0.6,0.6l0.5,0.6l0.3,0.7L421.2,13.4z"/>
<path shaper:cutDepth="0.011" class="st0" d="M421.2,325.2l0.1,0.8l-0.1,0.8l-0.2,0.8l-0.3,0.7l-0.5,0.6l-0.6,0.6l-0.6,0.5l-0.7,0.3
	l-0.8,0.2l-0.8,0.1l-0.8-0.1l-0.8-0.2l-0.7-0.3l-0.6-0.5l-0.6-0.6l-0.5-0.6l-0.3-0.7l-0.2-0.8l-0.1-0.8l0.1-0.8l0.2-0.8l0.3-0.7
	l0.5-0.6l0.6-0.6l0.6-0.5l0.7-0.3l0.8-0.2l0.8-0.1l0.8,0.1l0.8,0.2l0.7,0.3l0.6,0.5l0.6,0.6l0.5,0.6l0.3,0.7L421.2,325.2z"/>
</svg>
