<svg id="Layer_1" data-name="Layer 1" xmlns="http://www.w3.org/2000/svg" viewBox="0 0 800 600"><defs><style>.cls-1{fill:#c6c6c6;}</style></defs><path class="cls-1" d="M401.085,200.067a75.419,75.419,0,0,0-17.46,2.044V306.325a32.359,32.359,0,0,0,32.682,1.3V201.673a75.251,75.251,0,0,0-15.222-1.606"/><path d="M456.417,170.845H408.909V118.689a13.627,13.627,0,0,0-8.939-23.715,13.629,13.629,0,0,0-8.937,23.717v52.154h-47.51l22.6,14.314h17.507v6.392a85.639,85.639,0,0,1,17.458-1.788,87.139,87.139,0,0,1,15.224,1.343v-5.947h17.507Z"/><path d="M440.4,259.709h35.171a77.527,77.527,0,0,0-49.169-55.258v37.89a43.985,43.985,0,0,1,14,17.368"/><path d="M426.406,313.342v.53l-4.047,2.139-1.415.751c-.174.094-.356.161-.53.249-.9.462-1.813.9-2.748,1.295-.252.107-.5.2-.757.3-.962.386-1.927.751-2.917,1.067-.291.1-.594.162-.888.252-.945.276-1.888.552-2.855.766q-1.907.429-3.843.681c-.192.025-.378.04-.564.062a41.036,41.036,0,0,1-4.813.3c-1.284,0-2.567-.082-3.845-.2-.423-.038-.841-.085-1.264-.137-.866-.107-1.724-.241-2.579-.4q-1.139-.209-2.264-.48c-.7-.171-1.4-.34-2.1-.549-.741-.217-1.475-.465-2.2-.724-.311-.112-.625-.231-.936-.351a44.389,44.389,0,0,1-4.188-1.873c-.776-.392-1.517-.843-2.271-1.28-.393-.234-.8-.431-1.194-.675l-1.537-.972-3.243-2.057v-.42a44.289,44.289,0,0,1,0-67.562V205.291a77.762,77.762,0,0,0-49.04,72.551c0,42.954,34.323,77.772,76.663,77.772,36.183,0,66.49-25.436,74.546-59.645H440.4a44.044,44.044,0,0,1-14,17.373"/><path d="M385.839,318.9a45.323,45.323,0,0,1-4.186-1.873,44.408,44.408,0,0,0,4.186,1.873"/><path d="M378.188,315.071c.388.244.8.44,1.191.674-.915-.537-1.853-1.04-2.728-1.649Z"/><path d="M405.842,321.436a42.059,42.059,0,0,1-4.813.3,41.022,41.022,0,0,0,4.813-.3"/><path d="M420.943,316.763l1.415-.751c-.627.365-1.3.669-1.945,1,.174-.089.358-.156.53-.248"/><path d="M417.667,318.307c-.254.107-.5.2-.757.3.252-.1.5-.194.757-.3"/><path d="M413.993,319.673c-.293.1-.594.162-.888.251.294-.089.595-.154.888-.251"/><path d="M410.249,320.691c-1.264.279-2.542.515-3.843.682,1.291-.167,2.572-.4,3.843-.682"/><path d="M426.406,313.871v-.53a42.2,42.2,0,0,1-4.047,2.669Z"/><path d="M373.407,312.042l3.244,2.055q-1.68-1.165-3.244-2.478Z"/><path d="M271.315,455.52q0,9.345-5.059,15.137-4.543,5.264-10.379,5.265t-10.511-4.87q-5.321-5.532-5.318-15.134V390.373q0-9.738,4.607-15.662t11.222-5.922q6.354,0,10.767,5.658,4.671,6.051,4.671,15.267v15.4H261.194V391.029a13.068,13.068,0,0,0-1.392-6.185,4.313,4.313,0,0,0-3.93-2.629q-2.03,0-3.865,2.365a8.216,8.216,0,0,0-1.841,5.134V455a7.662,7.662,0,0,0,1.9,5.527,5.413,5.413,0,0,0,3.806,1.975,4.609,4.609,0,0,0,3.741-2.107,9.214,9.214,0,0,0,1.581-5.659V438.41h10.121Z"/><path d="M302.7,400.041q0-16.635-6.034-16.644h-6.549v32.247h7.323q5.261.129,5.26-15.6m12.846,74.037H304.811l-8.855-44.747h-5.835v44.747H280v-104.1h18.684q14.133,0,14.137,30.134a97.2,97.2,0,0,1-.776,14.745q-1.558,7.9-6.486,10.923Z"/><path d="M355.247,454.994q0,9.214-4.674,15.07t-11.284,5.857q-6.88,0-11.481-5.919T323.2,453.681V369.974h10.12v82.65a13.669,13.669,0,0,0,1.52,6.451q1.651,3.425,4.447,3.42c1.437,0,2.768-.895,4-2.7a9.8,9.8,0,0,0,1.838-5.592V369.974h10.121Z"/><path d="M395.718,449.465q0,12.108-3.89,18.955-4.282,7.5-12.455,7.5-6.358,0-11.026-5.793-5.059-6.186-5.059-15.925V441.176h10.12q.123,6.189.254,12.371,1.011,8.953,5.84,8.949,6.1,0,6.1-12.371,0-8.687-5.675-17.637-5.288-7.894-10.573-15.791a43.973,43.973,0,0,1-5.676-21.848q0-11.189,3.5-18.032,4.283-8.028,12.324-8.028,7.263,0,11.548,6.842,3.891,6.317,3.89,15.791v10.4h-9.986q-.135-5.793-.132-11.451-.512-8.159-5.323-8.158-5.7,0-5.7,12.372,0,7.5,5.8,15.925,5.152,7.89,10.446,15.657a48.832,48.832,0,0,1,5.673,23.3"/><path d="M424.615,436.566l-4.828-45.4-4.87,45.4Zm14.565,37.512h-9.937q-.791-7.9-3.148-23.427H413.288q-1.167,7.637-2.713,23.427h-9.668l12.068-104.1h13.361Z"/><path d="M468.752,449.748v-56.1A14.554,14.554,0,0,0,467.215,388c-1.114-2.714-2.35-4.074-3.721-4.074H456.95v76.6h4.617q2.95.134,5.071-3.09a13.672,13.672,0,0,0,2.114-7.685m10.12,2.35a25.73,25.73,0,0,1-4.733,15.662q-4.737,6.447-11.351,6.452H446.83V369.974h16.736q5.966-.127,10.64,6.708a26.521,26.521,0,0,1,4.666,15.266Z"/><polygon points="516.753 474.078 488.601 474.078 488.601 369.974 516.363 369.974 516.363 383.263 498.721 383.263 498.721 413.405 513.639 413.405 513.639 427.095 498.721 427.095 498.721 460.388 516.753 460.388 516.753 474.078"/><path d="M547.107,400.041q0-16.635-6.029-16.644h-6.551v32.247h7.32q5.261.129,5.26-15.6m12.844,74.037H549.214l-8.854-44.747h-5.833v44.747h-10.12v-104.1h18.681q14.136,0,14.14,30.134a96.565,96.565,0,0,1-.779,14.745q-1.555,7.9-6.481,10.923Z"/><rect x="240" y="485.952" width="2.403" height="18.05"/><polygon points="267.028 485.952 270.189 485.952 279.964 500.786 280.013 500.786 280.013 485.952 282.421 485.952 282.421 504.001 279.359 504.001 269.48 489.165 269.428 489.165 269.428 504.001 267.028 504.001 267.028 485.952"/><path d="M309.042,501.706h3.04a9.865,9.865,0,0,0,2.892-.418,7.058,7.058,0,0,0,2.4-1.266,5.978,5.978,0,0,0,1.627-2.1,6.708,6.708,0,0,0,.6-2.943,9.158,9.158,0,0,0-.272-2.024,6.334,6.334,0,0,0-1.044-2.209,6.268,6.268,0,0,0-2.117-1.768,7.428,7.428,0,0,0-3.507-.726h-3.619Zm-2.4-15.754h6.19a11.283,11.283,0,0,1,3.3.433,8.848,8.848,0,0,1,2.46,1.159,7.413,7.413,0,0,1,1.729,1.674,8.814,8.814,0,0,1,1.092,1.937,10.222,10.222,0,0,1,.577,1.987,10.584,10.584,0,0,1,.174,1.833,9.272,9.272,0,0,1-.627,3.353,8.511,8.511,0,0,1-1.858,2.883,9.172,9.172,0,0,1-3.042,2.024,10.819,10.819,0,0,1-4.208.766H306.64Z"/><path d="M347.76,485.952v11.063a7.281,7.281,0,0,0,.221,1.748,5.142,5.142,0,0,0,.752,1.667,4.135,4.135,0,0,0,1.38,1.251,4.824,4.824,0,0,0,4.216,0,4.128,4.128,0,0,0,1.378-1.251,5.082,5.082,0,0,0,.753-1.667,7.391,7.391,0,0,0,.224-1.748V485.952h2.4V497.4a7.421,7.421,0,0,1-.527,2.871,6.709,6.709,0,0,1-1.453,2.231,6.426,6.426,0,0,1-2.178,1.452,7.469,7.469,0,0,1-5.415,0,6.4,6.4,0,0,1-2.184-1.452,6.922,6.922,0,0,1-1.455-2.231,7.476,7.476,0,0,1-.527-2.871V485.952Z"/><path d="M383.914,500.229a3.984,3.984,0,0,0,1.671,1.463,4.939,4.939,0,0,0,2.1.475,4.275,4.275,0,0,0,1.228-.194,3.551,3.551,0,0,0,1.134-.575,3.048,3.048,0,0,0,.844-.942,2.512,2.512,0,0,0,.325-1.3,1.961,1.961,0,0,0-.654-1.6,5.759,5.759,0,0,0-1.612-.918c-.646-.243-1.348-.482-2.111-.711a8.363,8.363,0,0,1-2.107-.96,4.783,4.783,0,0,1-2.266-4.432,4.672,4.672,0,0,1,.339-1.684,4.724,4.724,0,0,1,1.064-1.634,5.833,5.833,0,0,1,1.871-1.231,6.785,6.785,0,0,1,2.743-.5,9.479,9.479,0,0,1,2.783.408,4.8,4.8,0,0,1,2.333,1.659l-1.957,1.81a3.309,3.309,0,0,0-1.276-1.149,4.026,4.026,0,0,0-1.883-.432,4.528,4.528,0,0,0-1.669.266,3.058,3.058,0,0,0-1.065.689,2.459,2.459,0,0,0-.562.9,2.766,2.766,0,0,0-.161.9,2.309,2.309,0,0,0,.651,1.761,5.044,5.044,0,0,0,1.615.99,18.361,18.361,0,0,0,2.1.686,9.235,9.235,0,0,1,2.114.858,4.9,4.9,0,0,1,1.609,1.478,4.383,4.383,0,0,1,.654,2.564,5.421,5.421,0,0,1-.49,2.343,5.088,5.088,0,0,1-1.318,1.758,5.775,5.775,0,0,1-1.952,1.1,7.477,7.477,0,0,1-2.4.381,8.691,8.691,0,0,1-3.236-.607,5.36,5.36,0,0,1-2.435-1.888Z"/><polygon points="421.095 488.247 415.385 488.247 415.385 485.952 429.223 485.952 429.223 488.247 423.505 488.247 423.505 504.001 421.095 504.001 421.095 488.247"/><path d="M454.239,493.906H457.4a8.648,8.648,0,0,0,1.393-.112,3.725,3.725,0,0,0,1.227-.425,2.229,2.229,0,0,0,.865-.876,3.528,3.528,0,0,0,0-2.984,2.269,2.269,0,0,0-.865-.881,3.793,3.793,0,0,0-1.227-.423,9,9,0,0,0-1.393-.109h-3.158Zm-2.4-7.954h6.238a7.193,7.193,0,0,1,2.8.472,4.8,4.8,0,0,1,1.746,1.2,4.1,4.1,0,0,1,.888,1.634,6.565,6.565,0,0,1,.256,1.746,4.723,4.723,0,0,1-.3,1.669,4.626,4.626,0,0,1-.866,1.452,4.991,4.991,0,0,1-1.38,1.1,4.745,4.745,0,0,1-1.818.545L464.446,504h-3.012l-4.509-7.956h-2.686V504h-2.4Z"/><rect x="487.21" y="485.952" width="2.41" height="18.05"/><polygon points="514.237 485.952 525.7 485.952 525.7 488.248 516.647 488.248 516.647 493.627 525.071 493.627 525.071 495.923 516.647 495.923 516.647 501.706 526.146 501.706 526.146 504.001 514.237 504.001 514.237 485.952"/><path d="M550.146,500.229a3.956,3.956,0,0,0,1.669,1.463,4.941,4.941,0,0,0,2.091.475,4.318,4.318,0,0,0,1.237-.194,3.578,3.578,0,0,0,1.131-.575,3.189,3.189,0,0,0,.843-.942,2.523,2.523,0,0,0,.326-1.3,1.97,1.97,0,0,0-.654-1.6,5.7,5.7,0,0,0-1.614-.918c-.642-.243-1.348-.482-2.112-.711a8.421,8.421,0,0,1-2.106-.96,5.236,5.236,0,0,1-1.615-1.642,5.18,5.18,0,0,1-.646-2.79,4.868,4.868,0,0,1,.328-1.684,4.813,4.813,0,0,1,1.074-1.634,5.841,5.841,0,0,1,1.866-1.231,6.827,6.827,0,0,1,2.748-.5,9.47,9.47,0,0,1,2.778.408,4.835,4.835,0,0,1,2.341,1.659l-1.96,1.81a3.345,3.345,0,0,0-1.283-1.149,3.982,3.982,0,0,0-1.876-.432,4.56,4.56,0,0,0-1.674.266,3.03,3.03,0,0,0-1.059.689,2.429,2.429,0,0,0-.565.9,2.723,2.723,0,0,0-.164.9,2.317,2.317,0,0,0,.652,1.761,5.061,5.061,0,0,0,1.614.99,18.325,18.325,0,0,0,2.109.686,9.273,9.273,0,0,1,2.107.858,4.923,4.923,0,0,1,1.616,1.478,4.384,4.384,0,0,1,.652,2.564,5.434,5.434,0,0,1-.487,2.343,5.121,5.121,0,0,1-1.321,1.758,5.828,5.828,0,0,1-1.955,1.1,7.442,7.442,0,0,1-2.4.381,8.669,8.669,0,0,1-3.231-.607,5.353,5.353,0,0,1-2.44-1.888Z"/></svg>